<mxfile host="65bd71144e">
    <diagram id="6x_h8LjxLCAc3SOEo2HN" name="Page-1">
        <mxGraphModel dx="807" dy="693" grid="1" gridSize="10" guides="1" tooltips="1" connect="1" arrows="1" fold="1" page="1" pageScale="1" pageWidth="850" pageHeight="1100" math="0" shadow="0">
            <root>
                <mxCell id="0"/>
                <mxCell id="1" parent="0"/>
                <mxCell id="17" value="" style="edgeStyle=none;html=1;" edge="1" parent="1" source="2" target="16">
                    <mxGeometry relative="1" as="geometry"/>
                </mxCell>
                <mxCell id="2" value="/header/user" style="rounded=1;whiteSpace=wrap;html=1;" vertex="1" parent="1">
                    <mxGeometry x="90" y="210" width="120" height="60" as="geometry"/>
                </mxCell>
                <mxCell id="4" value="/profile/[wallet]" style="rounded=1;whiteSpace=wrap;html=1;" vertex="1" parent="1">
                    <mxGeometry x="90" y="490" width="120" height="60" as="geometry"/>
                </mxCell>
                <mxCell id="5" value="Connect to wallet" style="text;html=1;strokeColor=none;fillColor=none;align=center;verticalAlign=middle;whiteSpace=wrap;rounded=0;" vertex="1" parent="1">
                    <mxGeometry x="580" y="80" width="110" height="20" as="geometry"/>
                </mxCell>
                <mxCell id="6" value="Not connect to wallet" style="text;html=1;strokeColor=none;fillColor=none;align=center;verticalAlign=middle;whiteSpace=wrap;rounded=0;" vertex="1" parent="1">
                    <mxGeometry x="285" y="80" width="140" height="20" as="geometry"/>
                </mxCell>
                <mxCell id="7" value="Have profile" style="text;html=1;strokeColor=none;fillColor=none;align=center;verticalAlign=middle;whiteSpace=wrap;rounded=0;" vertex="1" parent="1">
                    <mxGeometry x="580" y="119" width="110" height="20" as="geometry"/>
                </mxCell>
                <mxCell id="8" value="Don't have profile" style="text;html=1;strokeColor=none;fillColor=none;align=center;verticalAlign=middle;whiteSpace=wrap;rounded=0;" vertex="1" parent="1">
                    <mxGeometry x="450" y="119" width="110" height="20" as="geometry"/>
                </mxCell>
                <mxCell id="9" value="Connect to wallet" style="text;html=1;strokeColor=none;fillColor=none;align=center;verticalAlign=middle;whiteSpace=wrap;rounded=0;" vertex="1" parent="1">
                    <mxGeometry x="450" y="80" width="110" height="20" as="geometry"/>
                </mxCell>
                <mxCell id="10" value="Don't have profile" style="text;html=1;strokeColor=none;fillColor=none;align=center;verticalAlign=middle;whiteSpace=wrap;rounded=0;" vertex="1" parent="1">
                    <mxGeometry x="300" y="119" width="110" height="20" as="geometry"/>
                </mxCell>
                <mxCell id="19" value="" style="edgeStyle=none;html=1;" edge="1" parent="1" source="16" target="18">
                    <mxGeometry relative="1" as="geometry"/>
                </mxCell>
                <mxCell id="22" value="Y" style="edgeLabel;html=1;align=center;verticalAlign=middle;resizable=0;points=[];" vertex="1" connectable="0" parent="19">
                    <mxGeometry x="-0.15" y="1" relative="1" as="geometry">
                        <mxPoint as="offset"/>
                    </mxGeometry>
                </mxCell>
                <mxCell id="16" value="connect?" style="rhombus;whiteSpace=wrap;html=1;rounded=1;" vertex="1" parent="1">
                    <mxGeometry x="250" y="200" width="80" height="80" as="geometry"/>
                </mxCell>
                <mxCell id="21" value="" style="edgeStyle=none;html=1;" edge="1" parent="1" source="18" target="20">
                    <mxGeometry relative="1" as="geometry"/>
                </mxCell>
                <mxCell id="18" value="fetch address" style="whiteSpace=wrap;html=1;rounded=1;" vertex="1" parent="1">
                    <mxGeometry x="370" y="210" width="120" height="60" as="geometry"/>
                </mxCell>
                <mxCell id="25" value="" style="edgeStyle=none;html=1;" edge="1" parent="1" source="20" target="24">
                    <mxGeometry relative="1" as="geometry"/>
                </mxCell>
                <mxCell id="26" value="Found" style="edgeLabel;html=1;align=center;verticalAlign=middle;resizable=0;points=[];" vertex="1" connectable="0" parent="25">
                    <mxGeometry x="-0.0722" relative="1" as="geometry">
                        <mxPoint as="offset"/>
                    </mxGeometry>
                </mxCell>
                <mxCell id="28" value="" style="edgeStyle=none;html=1;" edge="1" parent="1" source="20" target="27">
                    <mxGeometry relative="1" as="geometry"/>
                </mxCell>
                <mxCell id="29" value="Not found" style="edgeLabel;html=1;align=center;verticalAlign=middle;resizable=0;points=[];" vertex="1" connectable="0" parent="28">
                    <mxGeometry x="-0.2333" relative="1" as="geometry">
                        <mxPoint as="offset"/>
                    </mxGeometry>
                </mxCell>
                <mxCell id="20" value="profile?" style="rhombus;whiteSpace=wrap;html=1;rounded=1;" vertex="1" parent="1">
                    <mxGeometry x="530" y="200" width="80" height="80" as="geometry"/>
                </mxCell>
                <mxCell id="24" value="fetch profile" style="whiteSpace=wrap;html=1;rounded=1;" vertex="1" parent="1">
                    <mxGeometry x="670" y="210" width="120" height="60" as="geometry"/>
                </mxCell>
                <mxCell id="27" value="Display&lt;br&gt;&lt;br&gt;profile_username = &quot;No Profile&quot;" style="whiteSpace=wrap;html=1;rounded=1;" vertex="1" parent="1">
                    <mxGeometry x="430" y="340" width="200" height="130" as="geometry"/>
                </mxCell>
                <mxCell id="31" value="" style="shape=image;verticalLabelPosition=bottom;labelBackgroundColor=#ffffff;verticalAlign=top;aspect=fixed;imageAspect=0;image=data:image/png,iVBORw0KGgoAAAANSUhEUgAAAgIAAANcCAYAAAAttsf/AAAMbmlDQ1BJQ0MgUHJvZmlsZQAASImVVwdYU8kWnluSkJCEEkBASuhNkE4AKSG0ANKLYCMkgYQSY0JQsaOLCq5dRLGiqyKKbQXEjl1ZFHtfLKgo66IuNlTehAR03Ve+d75v7v1z5sx/yp3JvQcArQ88qTQf1QagQFIoS4wIYY5Kz2CSOgAF0IE2sAZUHl8uZcfHxwAoA/e/y7sbAFHerzoruf45/19FVyCU8wFAxkCcJZDzCyA+DgC+li+VFQJAVOqtJhVKlXgWxHoyGCDEK5Q4R4W3K3GWCh/ut0lO5EB8GQANKo8nywGAfg/qmUX8HMhD/wyxq0QglgCgNQziQL6IJ4BYGfuwgoIJSlwJsT20l0IM4wGsrO84c/7GnzXIz+PlDGJVXv2iESqWS/N5U/7P0vxvKchXDPiwhYMqkkUmKvOHNbyVNyFaiakQd0myYuOUtYb4g1igqjsAKEWkiExR2aMmfDkH1g8YQOwq4IVGQ2wCcbgkPzZGrc/KFodzIYa7BZ0sLuQmQ2wI8XyhPCxJbbNRNiFR7Qutz5Zx2Gr9OZ6s36/S1wNFXgpbzf9GJOSq+TF6sSg5DWIKxNZF4tRYiOkQu8jzkqLVNiOKRZzYARuZIlEZvzXEiUJJRIiKHyvKloUnqu3LCuQD+WIbRWJurBrvKxQlR6rqg53i8/rjh7lgl4USdsoAj1A+KmYgF4EwNEyVO/ZcKElJUvN8kBaGJKrW4hRpfrzaHrcU5kco9ZYQe8qLktRr8dRCuDlV/Hi2tDA+WRUnXpzLi4pXxYMvATGAA0IBEyjgyAITQC4Qt3Y1dMFfqplwwAMykAOEwFmtGViR1j8jgdckUAz+gEgI5IPrQvpnhaAI6r8MalVXZ5DdP1vUvyIPPIW4AESDfPhb0b9KMugtFTyBGvE/vPPg4MN48+FQzv97/YD2m4YNNTFqjWLAI1NrwJIYRgwlRhLDiQ64MR6I++Mx8BoMhzvOwn0H8vhmT3hKaCM8IlwntBNujxeXyH6IciRoh/zh6lpkfV8L3BZyeuEheABkh8y4AW4MnHFP6IeNB0HPXlDLUcetrArzB+6/ZfDd01DbkV3JKHkIOZhs/+NKuiPda5BFWevv66OKNWuw3pzBmR/9c76rvgDeo3+0xOZj+7Gz2AnsPHYYawBM7BjWiLVgR5R4cHc96d9dA94S++PJgzzif/jjqX0qKyl3rXXtdP2smisUTi5UHjzOBOkUmThHVMhkw7eDkMmV8F2GMd1d3d0AUL5rVH9fbxP63yGIQcs33ZzfAQg41tfXd+ibLuoYAHt94PE/+E1nzwJARxOAcwf5ClmRSocrLwT4L6EFT5oRMANWwB7m4w68gT8IBmEgCsSBZJAOxsEqi+A+l4FJYBqYDUpBOVgCVoI1YAPYDLaDXWAfaACHwQlwBlwEl8F1cBfung7wEnSDd6AXQRASQkMYiBFijtggTog7wkICkTAkBklE0pFMJAeRIApkGjIHKUeWIWuQTUgNshc5iJxAziNtyG3kIdKJvEE+oRhKRfVQU9QWHY6yUDYajSajY9EcdCJajM5FF6GVaDW6E61HT6AX0etoO/oS7cEApokZYBaYM8bCOFgcloFlYzJsBlaGVWDVWB3WBJ/zVawd68I+4kScgTNxZ7iDI/EUnI9PxGfgC/E1+Ha8Hj+FX8Uf4t34VwKNYEJwIvgRuIRRhBzCJEIpoYKwlXCAcBqepQ7COyKRaEC0I/rAs5hOzCVOJS4kriPuJh4nthEfE3tIJJIRyYkUQIoj8UiFpFLSatJO0jHSFVIH6YOGpoa5hrtGuEaGhkSjRKNCY4fGUY0rGs80esnaZBuyHzmOLCBPIS8mbyE3kS+RO8i9FB2KHSWAkkzJpcymVFLqKKcp9yhvNTU1LTV9NRM0xZqzNCs192ie03yo+ZGqS3WkcqhjqArqIuo26nHqbepbGo1mSwumZdAKaYtoNbSTtAe0D3QG3YXOpQvoM+lV9Hr6FforLbKWjRZba5xWsVaF1n6tS1pd2mRtW22ONk97hnaV9kHtm9o9OgwdN504nQKdhTo7dM7rPNcl6drqhukKdOfqbtY9qfuYgTGsGBwGnzGHsYVxmtGhR9Sz0+Pq5eqV6+3Sa9Xr1tfV99RP1Z+sX6V/RL/dADOwNeAa5BssNthncMPg0xDTIewhwiELhtQNuTLkveFQw2BDoWGZ4W7D64afjJhGYUZ5RkuNGozuG+PGjsYJxpOM1xufNu4aqjfUfyh/aNnQfUPvmKAmjiaJJlNNNpu0mPSYmplGmEpNV5ueNO0yMzALNss1W2F21KzTnGEeaC42X2F+zPwFU5/JZuYzK5mnmN0WJhaRFgqLTRatFr2WdpYpliWWuy3vW1GsWFbZViusmq26rc2tR1pPs661vmNDtmHZiGxW2Zy1eW9rZ5tmO8+2wfa5naEd167Yrtbunj3NPsh+on21/TUHogPLIc9hncNlR9TRy1HkWOV4yQl18nYSO61zahtGGOY7TDKsethNZ6oz27nIudb5oYuBS4xLiUuDy6vh1sMzhi8dfnb4V1cv13zXLa533XTdotxK3Jrc3rg7uvPdq9yvedA8wj1mejR6vPZ08hR6rve85cXwGuk1z6vZ64u3j7fMu86708faJ9Nnrc9Nlh4rnrWQdc6X4BviO9P3sO9HP2+/Qr99fn/6O/vn+e/wfz7CboRwxJYRjwMsA3gBmwLaA5mBmYEbA9uDLIJ4QdVBj4KtggXBW4OfsR3Yueyd7FchriGykAMh7zl+nOmc46FYaERoWWhrmG5YStiasAfhluE54bXh3RFeEVMjjkcSIqMjl0be5Jpy+dwabneUT9T0qFPR1Oik6DXRj2IcY2QxTSPRkVEjl4+8F2sTK4ltiANx3Ljlcffj7eInxh9KICbEJ1QlPE10S5yWeDaJkTQ+aUfSu+SQ5MXJd1PsUxQpzalaqWNSa1Lfp4WmLUtrHzV81PRRF9ON08XpjRmkjNSMrRk9o8NGrxzdMcZrTOmYG2Ptxk4ee36c8bj8cUfGa43njd+fSchMy9yR+ZkXx6vm9WRxs9ZmdfM5/FX8l4JgwQpBpzBAuEz4LDsge1n285yAnOU5naIgUYWoS8wRrxG/zo3M3ZD7Pi8ub1teX35a/u4CjYLMgoMSXUme5NQEswmTJ7RJnaSl0vaJfhNXTuyWRcu2yhH5WHljoR78qG9R2Ct+UjwsCiyqKvowKXXS/sk6kyWTW6Y4Tlkw5VlxePEvU/Gp/KnN0yymzZ72cDp7+qYZyIysGc0zrWbOndkxK2LW9tmU2XmzfytxLVlW8tectDlNc03nzpr7+KeIn2pL6aWy0pvz/OdtmI/PF89vXeCxYPWCr2WCsgvlruUV5Z8X8hde+Nnt58qf+xZlL2pd7L14/RLiEsmSG0uDlm5fprOseNnj5SOX169grihb8dfK8SvPV3hWbFhFWaVY1V4ZU9m42nr1ktWf14jWXK8Kqdq91mTtgrXv1wnWXVkfvL5ug+mG8g2fNoo33toUsam+2ra6YjNxc9Hmp1tSt5z9hfVLzVbjreVbv2yTbGvfnrj9VI1PTc0Okx2La9FaRW3nzjE7L+8K3dVY51y3abfB7vI9YI9iz4u9mXtv7Ive17yftb/uV5tf1x5gHCirR+qn1Hc3iBraG9Mb2w5GHWxu8m86cMjl0LbDFoerjugfWXyUcnTu0b5jxcd6jkuPd53IOfG4eXzz3ZOjTl47lXCq9XT06XNnws+cPMs+e+xcwLnD5/3OH7zAutBw0ftifYtXy4HfvH470OrdWn/J51LjZd/LTW0j2o5eCbpy4mro1TPXuNcuXo+93nYj5catm2Nutt8S3Hp+O//26ztFd3rvzrpHuFd2X/t+xQOTB9W/O/y+u927/cjD0Ictj5Ie3X3Mf/zyifzJ5465T2lPK56ZP6t57v78cGd45+UXo190vJS+7O0q/UPnj7Wv7F/9+mfwny3do7o7Xste971Z+Nbo7ba/PP9q7onvefCu4F3v+7IPRh+2f2R9PPsp7dOz3kmfSZ8rvzh8afoa/fVeX0Ffn5Qn4/V/CmBwoNnZALzZBgAtHQAG7Nsoo1W9YL8gqv61H4H/hFX9Yr94A1AHv98TuuDXzU0A9myB7Rfk14K9ajwNgGRfgHp4DA61yLM93FVcVNinEB709b2FPRtpOQBflvT19Vb39X3ZDIOFveNxiaoHVQoR9gwb479kFWSBfyOq/vS7HH+8A2UEnuDH+78AMXqQxgHljB0AAACKZVhJZk1NACoAAAAIAAQBGgAFAAAAAQAAAD4BGwAFAAAAAQAAAEYBKAADAAAAAQACAACHaQAEAAAAAQAAAE4AAAAAAAAAkAAAAAEAAACQAAAAAQADkoYABwAAABIAAAB4oAIABAAAAAEAAAICoAMABAAAAAEAAANcAAAAAEFTQ0lJAAAAU2NyZWVuc2hvdDTwiukAAAAJcEhZcwAAFiUAABYlAUlSJPAAAAHWaVRYdFhNTDpjb20uYWRvYmUueG1wAAAAAAA8eDp4bXBtZXRhIHhtbG5zOng9ImFkb2JlOm5zOm1ldGEvIiB4OnhtcHRrPSJYTVAgQ29yZSA2LjAuMCI+CiAgIDxyZGY6UkRGIHhtbG5zOnJkZj0iaHR0cDovL3d3dy53My5vcmcvMTk5OS8wMi8yMi1yZGYtc3ludGF4LW5zIyI+CiAgICAgIDxyZGY6RGVzY3JpcHRpb24gcmRmOmFib3V0PSIiCiAgICAgICAgICAgIHhtbG5zOmV4aWY9Imh0dHA6Ly9ucy5hZG9iZS5jb20vZXhpZi8xLjAvIj4KICAgICAgICAgPGV4aWY6UGl4ZWxZRGltZW5zaW9uPjg2MDwvZXhpZjpQaXhlbFlEaW1lbnNpb24+CiAgICAgICAgIDxleGlmOlBpeGVsWERpbWVuc2lvbj41MTQ8L2V4aWY6UGl4ZWxYRGltZW5zaW9uPgogICAgICAgICA8ZXhpZjpVc2VyQ29tbWVudD5TY3JlZW5zaG90PC9leGlmOlVzZXJDb21tZW50PgogICAgICA8L3JkZjpEZXNjcmlwdGlvbj4KICAgPC9yZGY6UkRGPgo8L3g6eG1wbWV0YT4Ksh7PXQAAABxpRE9UAAAAAgAAAAAAAAGuAAAAKAAAAa4AAAGuAAC6RKkgA9kAAEAASURBVHgB7F0HYBVV1j4vPSRAQmhpVEGsSBGQ3jsI2HvXXVddu2t3dXV39V/burquvWKni2ABQbrSpPfeawIkIe0/332Zx81k5r15JeHlcY6SN+/ObfPNvLnfPfecc13RccmlLioTz4GR4P6sXas2paamlU+Ub4KAICAICAKCgCAQ9ggcOLCPDh8+ZN3PUiJXDBMBsiEAKCUkwBo7SRUEBAFBQBAQBKoLAvZkwMVEIJ6JgI0kJ9WkunXr2ZyVZEFAEBAEBAFBQBCoLgjs3bubjhzJ1brr1gLYEoH4uHhKT8/UCsihICAICAKCgCAgCFRnBHbs2EoFBQV8CWUkgD9siQBIAMiAiCAgCAgCgoAgIAhEBgIFBfm0Y8d2dTGuMrMASyJQu3YdSk1JiYyrlqsQBAQBQUAQEAQEAQ8CBw8epEOHDrh1AswGTETARTHRMZSVle0pIAeCgCAgCAgCgoAgEFkIbN26hYqLitRFaUTArSOow26CtWrViqwrlqsRBAQBQUAQEAQEAQ8COYdz6MCB/cpUoIwIuElAdHQ0ZWc18mSUA0FAEBAEBAFBQBCITASUVqC4BEsDNT3ug+6YAXUi84rlqgQBQUAQEAQEAUHAg8DBAwfocG5OeSKQnp4hngIeiORAEBAEBAFBQBCIXATgRrhz544TRECMBCP3ZsuVCQKCgCAgCAgCVghs27r1BBFwRxGsa5VP0gQBQUAQEAQEAUEgAhHYt3ffCSIg3gIReIflkgQBQUAQEAQEAS8IwHvAYyzYoEE6JSYkeMkupwQBQUAQEAQEAUEgkhDIy8s/QQSyMrIpJjYmkq5PrkUQEAQEAUFAEBAEvCBQVFh0ggg0ym5MUVFRXrLLKUFAEBAEBAFBQBCIJARKSrQ4Ak0aN42ka5NrEQQEAUFAEBAEBAEHCHhsBIQIOEBLsggCgoAgIAgIAhGGgJsIcIThJo1EIxBh91YuRxAQBAQBQUAQ8ImAKybBHWJYiIBPrCSDICAICAKCgCAQcQiUEQEXawSaRNzFyQUJAoKAICAICAKCgHcEmAjUUpsOCRHwDpScFQQEAUFAEBAEIhEBRQSwCXFj0QhE4v2VaxIEBAFBQBAQBLwi4Iot0wgIEfCKk5wUBAQBQUAQEAQiEgEhAhF5W+WiBAFBQBAQBAQBZwgIEXCGk+QSBAQBQUAQEAQiEgEhAhF5W+WiBAFBQBAQBAQBZwgIEXCGk+QSBAQBQUAQEAQiEgEhAhF5W+WiBAFBQBAQBAQBZwgIEXCGk+QSBAQBQUAQEAQiEgEhAhF5W+WiBAFBQBAQBAQBZwiUEQEXBxRq7KyE5BIEBAFBQBAQBASBiEGAiUBtFWJYiEDE3FO5EEFAEBAEBAFBwDECQgQcQyUZBQFBQBAQBASByEPATQR4s4HG2bI0EHm3V65IEBAEBAFBQBDwjoArNrFsaUCIgHek5KwgIAgIAoKAIBCBCAgRiMCbKpckCAgCgoAgIAg4RUCIgFOkJJ8gIAgIAoKAIBCBCAgRiMCbKpckCAgCgoAgIAg4RUCIgFOkJJ8gIAgIAoKAIBCBCAgRiMCbKpckCAgCgoAgIAg4RUCIgFOkJJ8gIAgIAoKAIBCBCAgRiMCbKpckCAgCgoAgIAg4RaCMCPBeA9mNnJaRfIKAICAICAKCgCAQIQgwEUgp5cCC1EiIQITcUrkMQUAQEAQEAUHAOQKuOCYCyC5EwDloklMQEAQEAUFAEIgUBIQIRMqdlOsQBAQBQUAQEAQCQECIQACgSRFBQBAQBAQBQSBSEBAiECl3Uq5DEBAEBAFBQBAIAAEhAgGAJkUEAUFAEBAEBIFIQUCIQKTcSbkOQUAQEAQEAUEgAASECAQAmhQRBAQBQUAQEAQiBQE3EeBAAo2yJKBQpNxUuQ5BQBAQBAQBQcApAq64GmVxBIQIOMVM8gkCgoAgIAgIAhGDgBCBiLmVciGCgCAgCAgCgoD/CJQRARcvDWT7X1pKCAKCgCAgCAgCgkC1RoCJQKo7xLAQgWp9I6XzgoAgIAgIAoJAIAgIEQgENSkjCAgCgoAgIAhECAJCBCLkRsplCAKCgCAgCAgCgSAgRCAQ1KSMICAICAKCgCAQIQgIEYiQGymXIQgIAoKAICAIBIKAEIFAUJMygoAgIAgIAoJAhCAgRCBCbqRchiAgCAgCgoAgEAgCQgQCQU3KCAKCgCAgCAgCEYKAEIEIuZFyGYKAICAICAKCQCAICBEIBDUpIwgIAoKAICAIRAgCQgQi5EbKZQgCgoAgIAgIAoEgIEQgENTCrEx0dBQNHNifzj7rTCopKaGlvy+jqVN/pNJSFT06zHor3REEBAFBQBAIJwSECITT3QigL6mpKfT2/16ns846o1zp3xYuoltvu5OOHj1aLl2+CAKCgCAgCAgCOgJlRAC7D2bp6XJcTRB4+aXnaeCAfpa9/fKrMfT4E09bnpNEQcAOgWFDB9NppzWzPP3qv9+g4uJiy3OSKAgIAtUTASEC1fO+qV7HxsbSot9mU0xMjOVV5OYeoQ6dussSgSU6kmiHwH9ee4n69O5pebp1m05UUFBgeU4SBQFBoHoiwESgTqnLRZSdGT4agVEjL6QWLZqHBNGtW7fRp6O/CEld4VZJ/fr1aMb0qV671aZdZ8rLy/OaR046RwDkq1ev7tSyxWmUnt6QMjIyKIM/4+LjaNu2HbR161basmWb+ly5ag1t2LDReeVhklOIQJjcCOmGIFBFCIQlEfD2IvIXlwULfqNrrrvZ32LVJv/c2dMpJaW2ZX9BgvoNGGZ5ThL9Q6BJk8Z02aUX0YgLhxHsMpzKzJmz6H9vvUsLfl3otMhJz+ft9ycagZN+e6QDgkDIEXDFJ9VRpuXhpBHw9iLyF4FIJwKXX3YxPfXko5aw3PfAwzRp0neW5yTRGQJpderQs397knr27O6sgE2uRYuW0JtMCKZPn2GTI3ySvf3+hAiEz32SnggCoUJAiECokDyJ9Vx15WV0z913UnJykurFoUOH6fkXXqJvxow7ib2q/k2ff347evH//kH16tUN2cWM/uxLevqZv4e13YYQgZDdbqlIEKgWCAgRqBa3yXcnEUugcePGyqIbSwKIJyASOAK33noj/fmuP1F0VFTgldiUHDt2Aj36+FN8r8LzHgkRsLlxkiwIRCgC1Y4IYLbrT6CcRYuX0O1/ujtCb59cVmUgcM3VV9CjjzxYGVV76pz83VR64MFHqaioyJMWLgdCBMLlTkg/BIGqQaDaEQFZo6yaB8NoxcUuJf4QL6NcMJ8no02jv+eeczZ98vG7BO8Ab7Jq9RoaP34Sewhspe3bd1DB8ePUsGEDysrKVHEdLujUgXAd3gSagb888oS3LH6dCxVuQgT8gl0yCwLVHoFTlgjAyK5Vq9Mtb+Azf/uHJ2hKYmIi9WJDsX79elOzpk0JLnuFhYW0Zs1aWrtuPa3mTxgkYjBwKp06duCQwNZBgD7+eDStW7/BU1VGRjpdcvFIate2jXJXe/+Dj+mTTz/3nPenLk8hm4O4uDjq378P9eje1e0al55ODRrUp5ycXNrCbnFYcoBr3K+/LaTZs+fa1OJfMtrs17cXde/ejV3x0imdB1MMqPn5BbRz507auWu3csGbMPFbWr58pX+V+5m7du3aNObr0aofdkURvvmf/3yRELnRmzTKzqJnnn6COnY83zYbCNaIUZfR6tVrbfPYnWjatAl7MAx1uzGW4ZZcsybt2bOHdu3cTTt27qK5c+fRt5On+h1dMpREICYmhnr37kG9e/VUbpYN2dWyIT9TWLrayX3E/d28eYsyasVzJSIICAJVj8ApSwScvOxgLPbyi89TWlodr3emoOA4vfrv1+n9Dz5ytO573bVX0cN/ud+yzltu/RPN/GU21ahRg554/GEaPmwwRWnr1P/457+4nY89ZZ3U5clsc5CWlkY333QdjRwx3NYV0Vx08eKl9OprbwRMCOCDf9MN19Iwvj4MwE5k5arV9OWX39DnX3ztIWpOyjnN84+/P6MGV7v8Y8dNpCef+pvjgDrR0dHqPl991eV2VdIPP06jO+681/a8+QSi/l1++cWKGJrPWX1HDAksQ7z73ke0jomrE3Hy2/BVD7wtbr75erpw+FCqUyfVV3Z1HtqVL/j+4vkOxyUTRxchmQSBaoiAmwiwA2F2GIUYDsWLyNe98NUGNAYPPnAP4WXuVJYs+Z0efvRJn0FkfA3eW7Zuo/++/go1bdqkQtOhJgLt27Wll178Z8CW8ZgZ333Pg7R3774KfbVL6N+vD/2NXfJq8Qw2EFm4aDHdd9/DPJvcFUhxyzKIDYDgTHZLAuN4GeChvzxmWdZbItT17737X4Lmxk5GXXwlrVjhXdsBsvTcs0/ZRvyzq9tIB1n95/P/chRcy9dvw1dkwfPbt6UX/xX4M/X778vp3vv/ojRQRv/lUxAQBCoPASECFthOmfoDDejf1+KM76ScnBwaNHgk7T9wwDazNyKAQfWuO2+nZs2aWJYPJRHATBWaCX/IjlWnoNq++tobCSGNvQk8Gx595CG68opLvWVzdO7w4cP04EOP0c8zfnGU31emG1k7AeJnJSAcwy+8xOf1WZVFGuwGPvrwbYqLjbPMMoOvAQTSTmC38MorL/CySUO7LI7TsSvlQw8/7jXaZDBE4Ibrr6H77787aG8LPEv33PcQ/cLaMRFBQBCoXASECFQCvlAh/4VftnbijQhg0PH2wg8VEejZoxv9941X7brodzoi5918y+1e1eb33nMn3XrLjX7XbVcAdgSXX3EtwXAvWPnu27GE6IFW8ud7HqApU36wOlXpabDRGPP1Z47V6046NHHSZLr/gUdsswZKBLA/AcqGSkAGRl18hWgGQgWo1CMI2CDgiue9BnBOlgZsEOJkrFdu3LiJDZxK1UzdTn2s13DNtTfZhpX1RgT0OqyOQ0EEYPA4bswXPkPlYta9iuPlJyUlcYyCRlSzZrJVlzxpX38zlh597K+e7/oBIvO98Z+XfVrSo8yu3bspNSWV4jl+vy/BuvJFl1wZ8Gwd9Z933rn02acfWDYFDU+Xbn2VgahlhkpMhKHdxx++o/rnq5n8/Hxl1Il760RgEKsbneplAiECMPAcN+Zzr/YeuK+rVq6mDfxbQljs5s2aKYNdb/d52bIVdMVV158U/HVM5FgQiGQEyoiAi4lAZthcZyAvIn87760No671bL3/1F+fpUVsGGcYL0GN3rr1OfT0U4/xVq32GyNBXX7hSGsV+MkmArA/8BYyFwZs/3z+xXIzMZCfkSOGKbWv3do+MOrZeyDt27ffgFB9wnBs8uSxXm0C5sydT2+++Q6tWLmKB7QctVzRrFlT5cFwx5/+QAkJ8eXq1L/AowA++YEKNrnC+ruVwHjtiSefsTpV6Wn33H0H3XbrTbbtHDt2jF559XWlPt+4abOyxIetw5lnnkG3//EWrwaF8HwZedEVlgaE3n4bdu67b735GnXr1sWyr5jZw5j209GfVzCmhfbr/vv+TEOGDLQsi8R/vfgqvfX2e7bn5YQgIAgEh0C1IwI//jTdcdS8t956j+DuZSXeXnbID0vrh/7yOB1n/3ArgdvbC88/69WW4PyO3Sxnqk6JAGwVpk37mQfk7bR9B/uq8/avsAKHStwQb3UZHghGXnxmZmbQD1Mn2s7M8cJ+479v28YOGDigH7380vN6leWOMTC98d+3yqXdcvMNdN+9d5VLM76APPzfv16hDz78xLZNEIIX/vksnXXWGUaxcp/F7IrWu88g2r17T7l0p1/u+NNtBLJhJTAQhKFgVQuID4wXa9WqZdk0nmuo96ERsRJ4mtx043V09585OqKNwetnn3+liK65vLffhhURgA3E91MmWD5TMFK84srrFMEzt6N/v/mm6xUh0NOMY1zjgEEX2j4fRj75FAQEgcAQqHZEwJ/L/NMd9xCIg5V4e9lhBjNg0HA6cOCgVVFPGtzupn43TqnOPYnawaWXXWNJRLwN3iiOAe3uex8kbFTjS7zVZUUE/nT7rXTnHX+0rBbW+FdedYPlOT0Rs2fMoq0ENg59+w3xzPxgNT/1u/GUzX71VvLm/96hl15+zepUuTRgjXV8u+WJf7/2Bv3n9f+VK+P0i7frueHG2wjaiqoWxAiAO6OV5OTm0kAeGH09nygLAgYiZiVHjx6lbj36EzQLunj7bVgRAZAokCkrgUYNhMOX4DmBpqoH265YCXYQRbwOEUFAEAg9AkwE0spsBKrH0oA/EARKBPwZVDDj+sNt1tsc280mvQ3euL577n1IaSScXKu3uqyIAGZudoPyjTf9gWbPmeezWcQ4GDSwv20+LC3AvgDS+YKO9O47/7XMizVjeFhAy+FEvIX+BQHp03eIY22R3t57775JiARoJUOGjqL1GzZanarUtE8/eY/atjnPso3n/v4CffjRp5bnzIkIiPXtpG9sDVAff+Jp+vKrMeWK+UsEoGGCVsAsINSdOvd0HPOhOy8t/I+XGKzETnthlVfSBAFBwD8EhAhY4HXbH+507JbWr29v+ver/7Kohei/b75NL7/ynwrnvA3eS5b+Tpddfm2FMnYJ3uoyEwGomefP/dmyKsQu6D9gmOW5YBK9aSD+/o//U0sCTuuH++HPrC6vy9oBK+nVe1BAsQU+H/2hsvuwqrMPazf8iRppVYe/aVDr/75kvqVKH3ttdOnWx/HgiravYjfRxx99yLIbVgae/hABb8/Ut5On0L33/cWyXatE2DfMmTXN6pTSykA7IyIICAKhR0CIgAWmWI9E2FMn0rLlaTR+7JeWWe2M2LwN3h9xiOFnn7Nfgzc35K0uMxHw1lf4a9/MUQ1DLX975km6+KIRltU61UDohT98/y3q0KG9nuQ5vvLqG2jhwsWe704PYPMA2wcruZzXtxFFsSoFFvjTf/rOskmnyzd6YUTI/OiDt/UkzzE0QLgPuvhDBLw9U1ji2rNnr161z2PYgeiRNI0Cm9gYcuBg6+fIyCOfgoAgEBgC1Y4IYJbhdIvd997/yDY+vbeX3XltO5UzyPMGLSK+zZsz3TLLpG+n0H0cIc0s3gZvs3uguaz5u7e6zETAm+r1c17HfZLXc0Mt77z9BnXp3Mmy2t59B9OOHTstz9klwlvj0ksvsjx93wMPq5j1lie9JCKQEAIKWcldd99PCMJTldKmTWsa/cn7lk2OGTPea/Ahq0L16tWlmT9/b3WKrAZYb78Ns42At2fKssEAE+EeeV7bCwIsLcUEAUHAGwLVjgiYX0TeLs7bOX9edt7qgSvd/HkzLLMEQgTuvOs++v6Hnyzrs0r0hwhcNGoEPcuhfa0ESxhYygi1TJrwNTVv3qxCtcXFxXRO6w6OSZ1RgTfr8hf+72V6590PjKyOPxFh8TEb1bmVF4TjigPM6M0zA14dr79R3ivDSTOLF85hF8yEClmtBlh/fhvenqkKjQWRgA2azjqnvd/PSxBNSlFB4JRBQIiAxa32h2yEmgiYZ/EW3SuX5A8RGDCgL73y0gvlyhtfoD1B7IBQCwL1IGCPldi5V1rlNdK8WajD3x9+//5K71496HUOdmQla9euo2EcXrgqpUuXC+idt163bBJulrCt8EdgW7F0yQLLsL9Q3XfvWd7w0x8igN0qX33Zv/7403cjL2JLdOjUw/gqn4KAIBBCBIQIWIAZqUQAgZBgGGclUH9DDR5qwYZGdh4GiAjo79bCT//1cbr0klGW3byJQxzPmjXH8py3xOTkJKU6h4W9lQwfcQlvO73O6lSlpDXnuAmTJloTmunTZ9Afbv+zX+0i2iBiElgJ7B9gB6GLP0Sg9bn8TH1m/Uxt2LCJl3526FUHfIxNrbztxxBwxVJQEBAESIiAxUMQqUTAmxEaQrlefOlVFmgEl/TQg/cSNqKxEliUw+bDHxk/9gtq2bKFZZFBQ0aqUNCWJ30kPvP0E3TJxSMtc2GpBks2gQqiMt515x8JQaisZNu27QQjUUPgnrnw11nG13KfGFwHD7XuZ7mM2hfs9vjqK9azdqvlK3+IAPZC+Hma9T0c/dmX9Nenn9N6IoeCgCAQjggIEbC4K5FKBBBh7rcFsyzD9SLkbD92H9y1a7cFIoEnXXbpxfTXpx61rOD773mA/bPzAfaMVqfTmG8+s6wLESA7dOru2MjTXMnZZ59JX33xiTnZ890uJoQng5cD7CaJkL928sijT9E3Y8aVO/3LjB+obt2KbpIwlB3FoYH92WjJ28COIEyIm6GLt/zm3wYs/H9b8AtZaVMQonvIMGvDTr09ORYEBIGTi4CbCLh406HMzJPbE611f15EWjG/DkPVRnWyEQBA//fCczR0yCBLrD4d/QU9/czfLc/piVjzt3NHA6Ho23+oJ+odfMOhlrbbqOna62+h+fN/1au3PEbkOcSz79q1s+V5hAHGYB2MfPPVaI7T38qyCgTHueOue2nevAWW5+0Sz2/flhCwCBsIWQnC50KTAeNJXf7y0H10/XVX60meY+AF3JxIu7Zt6EPeAjmaB2yzwAAPrrLmMMX+/jb+8dzTNIL3oTAL6oeWycnyDwgFjCSj2J7BSuZydEfzHhZW+SRNEBAE/EdAiIAFZuZZj0UWT1J1IwKd2ZXvXXbpsxIM4li397YeDsOz995509aXf/yESfTgQ+UHZG9++jDGu/6G22j/gQNWXfKkedsPAJlC4e+PQft9jlNgNWiiDQzWiOpnt2sf8uiC+AlPPvGILQlCXmxXjW2rzXJa82Y0kT0u7AQqd6jevQk29EGEwvT0hpbZYE8Buwqz+EsEvMUpgHsiNjfyFT0Sy0dYRrKS/fsPUJ9+gwPW9ljVKWmCgCBwAgFFBEpdpdQoM+tE6kk+8vdFFEh3Q9VGdSMCmHn9+MMk25CziDsPVfV3U76vACvWruF+aGf8hwJW+yt4Ix8os2//fnrkkSdpxsyK6+JYg37wgXtpyOAByGopK3nHQgw2oRBvGyQZ9UPlDTIA0nPkyFEjWX1C89G/X2+6/LJLCAOkN8EgOWTYKCYYJZbZRn/yPiGmgJ2gfWhwzH3APe7btxfvkPm42u7XrrxdCG5/fxvQ1kzh/SQaZVu/Q+bOm0+PP/FMud0s9T5Bm/AMG4HaaY1efOlV+h9vICYiCAgClYNAGREgJgLVY2kAftTGlsBOINmxcxdNnDi5QlZ/X3YVKihLqG5EAN32ZjxmXCesyX9ftpxWrlxNNWokEnYAHDp0kNethLEjHoiAlXjTCiA/1MgbNmxUu9RBS1CT4zPAKBBLAXYzdJSDbQAiCsLYMRSCQe0NdiX0tk2z3g5mqwiKVHC8gDLS0wnExW63P3O5G2/+A2G7ajvBdsKfffq+rZEhymEDIqjeQYYO8f4OWRkZajtgOy2A0ZY3L5FAfhu4T1i6AX5Wgh0zP//iK/VMbVi/UQ36TZs2VksKnTpa7/OAenB92FnSTHas2pA0QUAQCAwBV3xSGr+Cqw8R8PcysWMZdi4zSyAvO3Md+F4diQD6DZX1FZeHzj/+4MFDakDeuHETqq8gcNHDGnyjRtkVzgWTYLVpTjD1oSzi57/P6/p29gLB1o/Qu9ffeJsjD4crr7iUnnj84WCbLFcemyiBsGH3QSsJ9Ldx/31/pptvut6qyoDSYBiJrZb99SwJqDEpJAicwggIEbC4+ZFsI2Bcbnx8PH3y0bsEa/lgBcsJ111/q5rteavrzDNa0Qe8Bm+3lbC3slbnPmaXu7/5sS+DVR12aXD1e/gv94eULKEtbGAEErCVN3lyKtiOGNsSh0KwdfHV196ktC929QVKBKAJee+d/9raj9i1Z5UODRHiBowdO8HqtKQJAoJACBEQImAB5qlABHDZCQnx9NSTjwU1yEA1jwA3s2fPtUCyYhK2q335xeeDIiAwPHvmb/+s4HJXsbXgUwYPGkDPPP04JSUlBVUZBjZsz4wNpQJx0YQx3X333mXrfeCkc3PY8v7Bhx4lBOfxJoESAdQJ74gH7r+bEPEyUAFWTz71t4CiRAbappQTBE5lBIQIWNz9U4UIGJeOTXzuu+dOwgZKTqWY1bbYAOc/r79JO9kOwx+BURgGtSsuv5Ti462D7NjV99vCRfTY4087Uqvb1eFvOtb9L7l4FF188Qhq2KCBX8VhzzJhwrf01jvve52FO6kUUfyee/Ypy70bvJWH6+Nbb79Lb7/zgaNY/cEQAaMfsEPB/g2IauiPTJv2M7367zdo5arV/hSTvIKAIBAEAooIoHx1iSPg77WKjcBsR5BhqWBA/768s98oat+urW0ZzCZhBY5ANLB6D0awFj982GAVMtguWiDqhzp73PiJ9PU342jduvXBNBlUWbhOduvWlS4aeSG1aNGcGrJ7HrQquhQUHKdt27fTNlb9I+gPXPwC0QDodZqP27Y9jy5lYjJwYD/LjYSQH7NqxBsAZlO//8Ev17tQEAH0AXh1796N+zqSuvfoZmv0eZiNHLF9NDZTgoGqiCAgCFQtAmFJBKoWAmnNjADU4LA6z+B/CEt86NBh2rxlCwee2ebTH9xcl9PvIAVoLz0jnbBtLgaHXTt3046dOwmW+U63nnbaXqjypdWpQxncZxCprdu2ETbxwSBcFYI1edwf931qqLwLdu7apYgHtDS+fPeroo9GG8DH6Gs6e1fAy2LL5q38XG0lbCgkIggIAicPAUUEXOSirMyMk9cLaVkQEAQEAUFAEBAETgoCQgROCuzSqCAgCAgCgoAgEB4ICBEIj/sgvRAEBAFBQBAQBE4KAkIETgrs0qggIAgIAoKAIBAeCLgSk+uxbVOp2AiEx/2QXggCgoAgIAgIAlWKQBkRICYC6VXasDQmCAgCgoAgIAgIAicfASYC9ZW3U1am9ValJ7+L0gNBQBAQBAQBQUAQqCwEXAnJDUqJ3Z6zMv2LmFZZHZJ6BQFBQBAQBAQBQaDqEGAi0FBFP8nKqF91rUpLgoAgIAgIAoKAIBAWCAgRCIvbIJ0QBAQBQUAQEARODgJCBE4O7tKqICAICAKCgCAQFggIEQiL2yCdEAQEAUFAEBAETg4CTATS2UaA4wiIjcDJuQPSqiAgCAgCgoAgcBIRcCXUZCIAr4EM//YNP4l9lqYFAUFAEBAEBAFBIEQIuBJrZrgjCwoRCBGkUo0gIAgIAoKAIFB9EBAiUH3ulfRUEBAEBAFBQBAIOQJMBNLdkQVFIxBycKVCQUAQEAQEAUEg3BEQr4Fwv0PSP0FAEBAEBAFBoBIRcCUkNSx1uUopM0NCDFcizlK1ICAICAKCgCAQlggIEQjL2yKdEgQEAUFAEBAEqgYBIQJVg7O0IggIAoKAICAIhCUCTAQa8NIAydJAWN4e6ZQgIAgIAoKAIFC5CCgioCILZjas3JakdkFAEBAEBAFBQBAIOwTYa6A+RxbkEMOZ6WHXOemQICAICAKCgCAgCFQuAkIEKhdfqV0QEAQEAUFAEAhrBIQIhPXtkc4JAoKAIBD+CCSmtS3Xybz9C8t9ly/hjQATgXplSwMZ4d1T6Z0gIAgIAoJA2CCAwT+lxc1kJgFGBw+ueYcOrn3L+CqfYYyAEIEwvjnSNUFAEBAEwhGB1Ba3UGrLmxx1TQiBI5hOaqawJgJxcXFUJ60epaamUUqdumzTWEIHD+xX/w7s30tFRYWVCt7Jbr9SL87Pyk9vdTYR/Ewdyo7tWyg357DX3DVr1ab0jCxK5Xubwve4uKiIcnMP097dO2njhrV8v3l/bAdSOyVV1YHnJLlmLdXuwQP7+DnZRzk++uCgep9ZatRIcj+nddKodkodys8/5nlO8bziuTVLdHQMNczINCf7/H5w/z46duyoZb6TjYNlp6ow0eWK4vtf09NiSXExHT16xPMdBzWSkvlZSSuX5uTLrh3bqJjrC5U0TM+iFi3PUNXl5ubQ4oXzQlV1pdfjDwkwOiNkwEAiPD+ZCNTlpQFir4HwWhpISa1DXXv0o4SEREvkjvEPfMb0qXSEf0SVISe7/VBdU/PTTqeYmFjL6kpKSujw4UN06OB+On68wDKPkTjq0mspKirK+Orzc97sn2nrlo22+TKzGlOHC7oRBkQrOXTwAM2b87NXMuFiYnJeu47U/LRWVlWotFUrltKypdbrlRi0GzZ0/tyvXbOCgJkujZs0p/YduzJHsiZJu3ftoDm//MSktUgvRkk8IA0adnG5NCdfFsydSZs3rS+XNVgcylWmfalbrwHVrVtfDZ7x/DvMzzvGA2suPy8Hac/uHVrO8Dg865w2dMZZrT2dwTP0w5Txnu84aNL0NHW/yiU6+PLt+C9tCZiD4hWyNGvektqe31mlg7D+OHVihTzhmBAICTCuQ8iAgUT4fZYRAbgP+j87qazLwQuoS/e+FBtrPYAZ7Rbk59PMn6fyi+mAkRSSz5PdfkguoqySoRdeRgmJ1mRKbwfEasmiBbR922Y92XMcSiIActKm/QWeujHzP3z4ICXVSKZY1gIZAo0CXpBWmh+Qkg6dulNWoyZGdtvPDetW06Lf5lbQMOgvY9vC2omxX31Sri8tTj+LWrc5X8thfQjt1S8//1CObIWKCIQCB3Ovm/H9adHyTILGxk5wb0CMNrHmxkyO7MpUZnpa3XrUs8/gcoRMiEDoEW82ZG5Qle6cezuJIWFQEFZKYQ4oxBoBVgmEExEYPPwSgroVUlCQTyuWLaYDrBLFzCeNZyhnnt2aSYJ7wLD6sQeL1MluP9j+6+WdEgGjDGbPmEWbxSACeOnPnzPDfLrC9/08+OVZqLBjYmJoyIWXeu7f8t8X0ZpVy1ntWuS5v+d36qZmzKh01crfadmS3yrU37RZC2rXoYsnfduWTbRp0zrVJtS/IBtQvxoye+aPtGP7VuOr+gyGCCQn16KBQ0d56sNzuGrlUqXBiI9PoPTMbDqtxRmegWnt6uWKaBkFoKXJdkBikP/cNh08pHjq5HGUw6TJkFDgYNQVFx9P53fsppZrjDRfn26Nx7RyBMlXmVCfB5Z9Bw6n5OQTywJow+rdgKWjejzR8CUJiTUIGgZIHmtCJk/4KqSER3/2qpNGAHjAODChTjtKSGtjayiIfFYCEgAyIBJeCCgi4GIikBkmGoH6DdKpe68BCiXMFKd+O4bXjcur/2E30LvfEA+S3383ng4fCo1W4GS377moEB3oROC3BbN5/X2Xp+b4BB6weI0eanp99jfth29p/749nnw4MIgABuwxX35c7pw/XzDbbFumDVi5fAmBCJgF/bmgay+VjHs/ZdI35iw8+xtE0NxAoCqHytwsWFpqmO7WdO3YtoVms4peF/1lDI3EnJnT9NMVjo8cOfEc6mroo0dyaQo/p+aZ8elnnEPntG6n6gGhnTTuiwp5KjRiSqjfIIN/D/1V6h62nZgxbUq5HKHAARViMO3Tf2i55wDPwMb1a9TyEZaOsLZer15DapCewYNuLU8/DvFvb8ZP37HG47gnrSoP2rGKvSmr2iG7d27n/rnvuRURcNqvs89tS63OPFdlxzOKZzWUoj971Y0ImHHwd7lgw6RO5irk+0lGIOyIQIcLulOjxs0ULJjlzZ093RKiHr0HUr367rDIa1ev4NnWfJUPaTCagoBI4EVmfkHjXFZ2E4/KHC+MfXt3I5nXrYNrX1Vi+gPtBga3JJ6xYLaYX5CnbBu2b93MhmV5ptzWX6ECTs/IVi/jRK4PhnUwhML6PmZldqITgV9m/EAwejJLdHQ09RkwjGrVSlGnrNbVQ0UE+g+6kGrVTlX3ZuK4zwnLO1aCazVsEmB4qBsOYlY3cMiJ2fjUyWN5lnyoQjUgChgoIXgGMBBjQDYk0JcxNFNY3ze0Vot+nUPrefnBLFjagnbJ0F7NnvkTayW2mLN5/a6TmVms1dipaTVChQM60Klzz3LLLHYkDXlh1wGyDnW8IevXrlLLL8b3qvqE5qVLtz6qOSxXLJj3i2eSECgRwPUN4fsGDUlJSTE/N1+We270awOBysxurH47iTVqUFFhIWGZbceOrZbPpFHW7tnD+6EO4wrNZyJrJVAX3k3efuNGnZX5aXYRNKv3/SEDsjxQmXcqsLrDjggMH3UlwVof8tP3k3hJYK/llWGg6NK97AWgzRoxs+3HasKoqGhVbjmruleaVN2pdeqqlwVe6DDi+p4HEsO6ONj29c7iRYLZL0gA2jILBie8QA0SYz5vfIdB2jnntbc1nDx86CD9vuRX2sWzIbM4IQIoo89w8eKZ/uPkclWFggjgBTvykqtVvbt2blPr5uUacfjlNLa2Pq9tx7J6tnM939uW7NN/mMdKfB4vaWzdvMGT1+5l7MlgcwCi2W/gheosZsGTmNDYWZSfe9751LLVWSovSCm0Mk6lVu0U6j9ohMp+BFoH1ozohChUOEArBJscQ7D2v2Shm1gbaebPuLh4RbLQRwj69f13WLaoSMjMZUP1HRqt/gNHED7R/rQfJvF9KFG/f7QRKBHQbVg2bVxLv86bVaHL+D3jN3Ma21JguctKoMGZM2saFVpoSszPHt51Z7P2SHnnWFRmkBy796FFkaCTAokTkN7pdZ/LBUIEgr41Ia/ATQR4jMrMcG49HfJelFWImenIS67xVG82zvKc4APd2ArGZMhryJlsOXxm2foeXtA/8AtKX17o3W8ou3vVVdnhtrNuzUp1HKr2URlUp917D/DMGlUDNn9gzLaQZ5VWAgJg93LQ8+NFCOt08zq4UyIAFTZU2ZDtrEZHXbqYiQBm29mNmiocExOTlEU1tBPr1q60HQz0dXV9zRwv8rS0+kotjTqgkjZb2et90fsK+4Klixfop8sdn88W/Y3ZUhyCfMhviPll7NRyG8sNmKlD4B7449QJRpUVPnUr9Z08S5w148cKeewSdJU3BmYM0LqECoeuTAIaMhmA+NNHzIYT+N4ZguWDqlwegCYAGgHIarYl+Z1tSeAJgokAJFAiMIC1TTVZ6wSB1wHq0QWTjG49+3k0kvo58zFsm2ayd1NhYfllE/3ZwyAPogdC5k2gnZjL3jhY5qps8WeGb/YG8EUGhAhU9t3zv34mAmmlPF2lrDAgAvrgjof+my8+sr0ivIRGXHyV57xOGqBShvGQoereu2cX/cxrmBCsJeIFC8GAg5mvMcsKZfu9+g7xzEQxqEHVih8wDI/g69yIZ/kwJjPU3+vXsWr11/IWuVA5XtDFvVaO/mI2gPVKvJighmzQMJNnJGcoFSLOA7Mpk8Z4tBtIc0IEYKnfb8Bw5SaGMr+yenXTxnU49MgJIlCsXrpw07LScqDACu7jCos1VV1VDw3G1s0b2RagtwcnozHcD2gl4IJotXSiD+4wJIRBoZ2cy1b9Ldm6H2ImDfrL2J91Wn1wx5r0TC8aCV117Ys06NcAcjR42CWsho9WhnhY1ihktbMuocABHiVDhl/quZfQrlhplvR2w+FY/x3n5Bxisj9BPf/BEgH9funvDf2aoY3C784QxLyAZg+uzImMJ36XZ7BBM9T8EDcZmFLu/unPnlEPPmHvgmfqIBNiaC7h3op3hSHQLkDzYhdLwsgXzKc/JMBoRycD0CSADNiJ2AjYIXPy0sOKCOhGgBgw8fLzJsbghDzfTfyGWfUJYy6ssfXqO9hTHCpZrMkPGDJS/UDdmoLxKoCNkSlU7es/cqj/YXyHgcYssGrv2uOEShZkBS8fCAbZwbwODXsACNb2YexmtndAn7EObhAK82CnEwEM0Ae0fuBFhT7A+AuqXsgWGN4xETDIkUrkPzrWRho+8fKLZtUo1jN1sZrBQoPQsXMPlW31qmXKFsRcTq8D1vHTYYRWUD7GQTeejRsGYbivULnbCQy+YPgF2cLLArrHg36fYPA222a2DjKi496KNSdQ41rVqRK1P1hHBymEOHmmjaJnnn0ee8ecp75CY2UVcCYUOMCmBvY2ENxzkG+rAEgqQ5j8gXcAiD4mA+gz1OrG7ytYIqDbHs35ZVoFd9qaNWurd4gBhdVzjnP43fZluxuDDMDzCf8M0Z89Iw0uriAUZtGXgHDObrnCXC6Q74GQAKMdnQx4q0eIgIFY+HyGFRHQ1yrB8qd+O9YrUsNGXu75oVnZE7Rp38kTbAYqyz1sVJdV5rIFNSLUibqEqn28+A1DKgx4vy/+VW+m3DEGRgyQEN36vQHPBLr17K/S8bKDQRxUiFYCtS5eUBCoIOHbbYhOBIw0q08Y0UEjsW3rJqvTFYgANBxox7CtgDYF7nzwuoBg9jp5wpflVMX62qvRCLQb61jljQiAICN16zdQM3iD2FjN1GHdjtkSZO6s6bZ9xvnmLVpRm3adcKhmuro9gdXLWGU0/TF7UZzLyzUtW3GkRRZfRnL6Oj/I55gv7bVcRrPQAsDI0BhEzCTXyBcKHLBsAs0CBO6ekzhwTjgLCDLiBRi/L7NhazBEAF4RsCmBwEhv8sSvKxBi3ZsAM/2fvrcPBKR7yKC+b9kF0RDzs+frPaFrtrAUOmEM7FKKjOpC9hnKOAFWdelkIWSdloqCRiCsiIA+i4fqC9G8vAnsCfDShMCQSrcDQBqstvsPHllhtgoVLX7A5llvKNrH+uGoS0/YOWBWsX//HnTHUpo2a+nxV4ahFQZ8iP7CsRoMLSuzSHRKBPByAQlYtmShpTpe1wiYZ9ZGs5ihQeNizPLNamYYPSJGgCGIPIgZuvk+6EsIyGseCEGQQJQgv86fVY74qETtj+7Ch6UIRCs0xPwyNtLNn2YioGsZdPJmLofvupYpPy+P4CnhS3S1t7c1+1DggOUpRGeEgGjCDTKcBUtShn8/fi8/THEvCRh9DoYI6B5DZnsSo35oGfGegED7tmb1MuNUhc9atVI9rp84OWHMZx7vA/Ozh/cRiIWdmH8T5mfSrpw/6d5m8U7r0eMEWNkKiDbAKZJVmy+siADc6wYNvUghgHX1sV99bIuG2bBv3NeflFuDMwrqPulIg4oXxl2wtDdLKNrX7QzM9fv6jlk0rgOCARMDJ8SbG6XK4OWPTgQwewIJMsQV5WKjS9grNKPa7NIHgU887CagxtYlI6sRufg/CFyZQBysRCcw5uBEqKMz2wRAMJuZOPZzy3uG87qmxBxWV8dmKWtb1rDWxU7Oac3Glme4Z++6gSLy6y9jXC+MNq0E9hJ6cKQmHMyofVkwo528ZDOL3TLtRF/+cWq8NoDJqxHXYca0qbbhfEOBQwYb23Uuc78zG93aXdPJSseMHdo2aIvMSwJGnwIlAlDlYykOGge8eyaNZ5sMC2t/PdiY0abTT93wUH/20N64rz/layofvlqvFxOMERdf6fGG8hXCWy/r9NhqBu+0rJ7PGOzNxEK0ATpK4XUcVkRAdy8DTN988WG5tVkdOsw6EaEO4i3IjVprZzWrMUvFC/07NqizUquFon3dtUzvr5Nj/UUMI7pMHjghG3gNfKEfbmd6WzoRsIsjAIwwGzKWKMwzZ70+X8e6IR00DFDdG6KvR/vScujromZDSt2TwqwaNtoyPnXLexgorl55gjToL2Nf/THqwyeWYmBpD9m/b69yW1NfLP4gJgawhThxmdSJg64hsqhauZQaHiWB4qAPnGgD6muoscNNQPz7skGrQZBA/pYtXVShm/j9YckEAruPn6ZOUscYZM2aJ3Wi7I9OGL0t9+juxXp5J8fQXsArBqI/e/AY+I6XIXzJ0BEcLrxs7xVfmjBfdZnP+zLwM+f39t3wCtDrFBLgDbGTfy6siADggCcAVMwQK3W/OsF/dDU+ZrFYz7MS+HDDl1sXvEQwk7SSYNtH7IDhI6/wVI1ZaIHJ2M1z0nQAImC4MmJdG+vbEMzA4YIUiDghAqhXJ1b4jhmK2eUJ6b5ED3lrJjBY84ZdB8QqSp5etz6AmgkFvACwZgrxRVoQlQ/R+SBmzYL+MvaHCGCnRBiCQaBJwBKW3SBzBhsrnlVmrAibCrzAvYneX5A/YGgnocABJFAPjmQVd8Ou/apM15cwAmnXzhAPdeF9gwBCxj4XWB6xs8cxAmKhHIJDeVPnI48uG9gzyHCv1J895NGXDfQyxrFZ0whPFXgXhEr0QTvYOg0igHqwPJC/fxEdXPtWsNVK+UpEIOyIAFTHUCFD7Kylca7jBWxk19htZGcXqAWR1xD4BbMJGGoZ9gR4acNn3GDnqM+QULSvzxoCVeG1OP1M3tCmg+qWr8HG6LvVp1MigLKwbYAKEqKvWWKWZWgLYFSISI52os/WrWYteOFCDetrvVyPBWFer9VnsXCZ/Hb8V5Z2DZg9Qs0OwT3HbFdX8esvY3+IALa7HTriUo8xn5V1OdpEvkHDLvLEkoA9BOwr7ES/LvjkI6KdlebKKK/nDwYHfd0d5A/eK2bfeaNN/RPGcEZ0T6TjuTiwf6+eJWTHWN7BrD1QsYv+iPp07RNcJ3WDUnN7+vvBW/wPcznzd/3Zwzm7Z8goZ7avwd4HhqGukSeYz8oiAsH0ScpWHQJhRwQyMnkduZt7HRlrZ9/C8tw0owY7Hsi2BJjNQOwMZ/Q47HC9O73VOR5rY7zoYCtgnsmFon3dWwH+8HixmttBv6Hm0/3xYTxnuA/qa5bIa+Xbj3RggJcTBmsIZih6WGanRAABVBBIBYK+Thgz2jN7MWsLzBH6VCH+g5kVBj7D2t0q9K+uqrcjSSAj/Qdf6Ilnb3V/oSbGVtEQu42J4MUADQUE2+ZivV0X/WXsDxFAHSBpIGsQDH7wWjEL/L87lBlHwv5j4tjPFCE15zO+63EBjAA5xjm7z1DggPuFCIaIXQAB2YOdiN2sGHn0JSB8R15siORtnRv5AhUQURAPXxLPGjmEsIZAw2bYxEAzZw62hTz4/SBcNeyDIGYDV5Wo/YHXEcIxQ4ATfPpBas2CeuH+afwWEBdAd3PVnz2Uxfvo52nfWdol4D2BdxkmNhBf3goqk59/hAj4CViEZXdvQ8wXFQ4BhYAtDIGw9u/5AbHfO7bHxewdPy5YYbdu28ETLAh+7N9ZbEpTzm2MDbqwPg5XLrw4Ddc0uPXBbUeXULSPFxFUx0Y7UO/C31if3WHQhM8yDKAgbne7r3jwPeEzr9sJ4KWD9XaDKBh91kMDI83sTueECGBm2YYtx2GZDEGgJQy+uuj+1egLZvt7du30XBMGEWwLbFjzY7kG98VMgIAN1KsQXCsiKsIY0hCEl8Y+7dgLAmI3gOoaExiArmQfbVjwQ3uCPQAwaMDFD88MxGo2rr+M/SUCICF4lgzBTB/r9Hge4QYJOwIsSRnhsu20VkZ5BPZBACE8M8AMMz4nQWNCgQP6ALdPeCEYeAFHLE1ghqzfQwxKsF05j5eujLwoj6UrPR4+7G2wSyg0BjC21A0xMehikATBhBuq/kwjP7wyCjh2w3K+p3iO/BE9CJcT40zdmNiJ1wRI6kD2jMEOlxDYiMybPb3CvUJocZ24YLMoLIcZoj97RhoIJd5T+sQHzwXui2HMi7xWz7JRRzCfoTYWDKYvUrZqEQg7IoDLz4aBFc+k9BeNFSxQ90OlBiMsXaAx6MeDDQZbqEwRjwAGORB94ER5zFrNL5tg20c7ZtsEvNSxpofPVF5jxqALewJDMCDqL0ukY3A1YqnjO17IeDGDFOGFjEHXeCHhPM7Bgl1/cetEwGgfeSEYdPDi1etA2flzZ5aLyY+8wLQ3G2EZBA1pwHbf3j3KTRMDvLH0ggA805lIGJgjry5wV8OaryHABC9hxGyHZgP3DYL7gxmaPlAYZeAa2rVHf4+Gx0i3+sR1z+INf9BfXfSXsb9EAPXodhx6veZjGN9BK+RNlat7W5htIsz16d9DgYNRH7whMIAZBBbpIAQ57GGDtW2QVmNWapQBCUMAKn0PB5zTXSDxHaQQJAmiu+nh3oP04LnD7123V0BwKzyL/oi/REB3B/RmR6D3AZMRlDPeT9Bcwl4AzzBIDn5T+L0YYmXHoj975mVLPIvQIKRxO7BH0cVqF039fDDHVu5+/tYnRoH+IhYe+cOSCAAabCrUqUtPz+BihgszRQx6UL2bRTe4Mu+iBkaPWOSG9bGVyhj1BdO+0R/MbEA8jBeGka5/4gWITYcMI0H9HI4xMEIzYN5r3ZwPsw3ggZeKLjoR0NOtjqFKRSxzqx0KkR8vQLisGXHYrerALH/6j9/xfgMV3TON/MAD7nfGHgBGuv6JAQbLOXZ9QV4QB2BjaCH08sYxtA3z586w9D7RX8aBEAG0oRNLo039E5b/mC1jQLUTzJ6HXMi73ZVFd7RaCrEri/RgcdDrxmAP1019m2H9vH4MAg3NkBVRM+OiR83Ul+wwiMKNFM8eCOCwkZfxbz5GNYN6Uc4f8YcI6DEe4CoIl0H0x4nAu6PDBd0898yujDtWxkwmOiXlspifPcQkaN+xi+fay2Uu+wKyMX/OTIWV1flg00KxPGC4DgbbFylftQiELREADFDlN+S43al16lIKv6DwY8KaH17au3ZsLxdS2IBNn4lgJgYLYPPgaA7OgRnNZlZfmiWQ9s11YHMj7FCWxfsGgIQYgtkpNvcBUcFg4U2wjS0MmnBtxta3Rn64SEEljfDJuibAOO+LCAAjA9Pt2zZXCMpk1GN8wgCuSbPTCP7nGCygTVBbrx47orbIRdx1b4OeUQ8+cV+h2saeEKgniuMa5B07Rnv27FTaEatYD3p5HGP2CvUu6jJmrLkclRLXhHDKmEFZ4YKy5pex002HUFYXqNXxTEHTU5uXDPJ50DcwxcvbsBTXy+jHesRFlPO2iZFeTj8OBge9HhyDqCHKZtPmpyuNi0FQcA7aHtwXuHRiS2Q7bPGcduWNeXBvzUGRMIie36mr0iStXL5U/QZQNwQ2MyDQIAYL5v5SQdvnzmX/1x8ioG+9bA7Nbd/CiTOw42nBv+3GTZuX05QBE6j58duGls5KrJ49LDfh2kFQ9N858IaNg3n/D6t6g00z+/77U59oA/xBK7zyhjURCC+ogusNXtR4cUC1joECg6XdS9RbS1gSQD3F/KKEqtlMcryVlXOCQCAIYKaOZSoYxel2Lk7qwvNqtXEUfg/QZFiRJNhVFBUVV1jKcdLeycgD4uT+XdZQ1wNyDY1WMAL7CdgH4Deu2wwEU6fTsoGQASEBTtENz3xCBMLzvkivBAFBQBA4aQj4QwaEBJy02xSyhoUIhAxKqUgQEAQEgchCwBshwL4Ch9a+TfgUqd4ICBGo3vdPei8ICAKCQKUjAENCXWTw19Go/sdCBKr/PZQrEAQEAUFAEBAEAkZAiEDA0ElBQUAQEAQEAUGg+iMgRKD630O5AkFAEBAEBAFBIGAEhAgEDJ0UFAQEAUFAEBAEqj8CQgSq/z2UKxAEBAFBQBAQBAJGQIhAwNBJQUFAEBAEBAFBoPojIESg+t9DuQJBQBAQBAQBQSBgBIQIBAydFBQEBAFBQBAQBKo/AkIEqv89lCsQBAQBQUAQEAQCRkCIQMDQSUFBQBAQBAQBQaD6I+CKT65b6uLryMrIqP5XI1cgCAgCgoAgIAgIAn4hIBoBv+CSzIKAICAICAKCQGQhIEQgsu6nXI0gIAgIAoKAIOAXAooIYGkgU5YG/AJOMgsCgoAgIAgIApGAgGgEIuEuyjUIAoKAICAICAIBIuCKT2JjQVYJiLFggAhKMUFAEBAEBAFBoBojwEQgjYmAS4hANb6J0nVBQBAQBAQBQSBQBIQIBIqclBMEBAFBQBAQBCIAASECEXAT5RIEAUFAEBAEBIFAERAiEChyUk4QEAQEAUFAEIgABIQIRMBNlEsQBAQBQUAQEAQCRYCJgHgNBAqelBMEBAFBQBAQBKo7AiqOQGlpKWVnZlb3a5H+CwKCgCAgCAgCgoCfCKilAZQRIuAncpJdEBAEBAFBQBCIAASECETATZRLEAQEAUFAEBAEAkVAiECgyEk5QUAQEAQEAUEgAhBgIlCnFNeRnZkVAZcjlyAICAKCgCAgCAgC/iAgRMAftCSvICAICAKgjBufAABAAElEQVSCgCAQYQgIEYiwGyqXIwgIAoKAICAI+IOAEAF/0JK8goAgIAgIAoJAhCEgRCDCbqhcjiAgCAgCgoAg4A8CQgT8QUvyCgKCgCAgCAgCEYaAEIEIu6FyOYKAICAICAKCgD8ICBHwBy3JKwgIAoKAICAIRBgCQgQi7IbK5QgCgoAgIAgIAv4gIETAH7QkryAgCAgCgoAgEGEICBGIsBsqlyMICAKCgCAgCPiDgBABf9CSvIKAICAICAKCQIQhIEQgwm6oXI4gIAgIAoKAIOAPAkIE/EFL8goCgoAgIAgIAhGGgBCBCLuhcjmCgCAgCAgCgoA/CAgR8ActySsICAKCgCAgCEQYAkIEIuyGyuUIAoKAICAICAL+ICBEwB+0JK8gIAgIAoKAIBBhCAgRiLAbKpcjCAgCgoAgIAj4g4AQAX/QkryCgCAgCAgCgkCEISBEIMJuqFyOICAICAKCgCDgDwJCBPxBS/IKAoKAICAICAIRhoAQgQi7oXI5goAgIAgIAoKAPwgIEfAHLckrCAgCgoAgIAhEGAJCBCLshsrlCAKCgCAgCAgC/iAgRMAftCSvICAICAKCgCAQYQgIEYiwGyqXExgCNWokUYcLuqvCM6ZNoZKSksAqklKCgCAgCFQzBIQIVLMbFsndTeTBuH2HLpaXePToETp0cD8d2L+XPw9Y5gkmsWbNWjRgyChVxZgvP6Li4uJgqpOygoAgIAhUGwSECITgVqXWSaNGTU6ntLqNKTEpk6LjG1Ix1aKSqBQqLo2nktIoKi0tJZermGKiCiiacshVfJhKCvdQ/pHtdGDfJtq8aTUdPLA/BL2pvlXog7G3q1i18ndatuQ3b1n8Pqe3LUTAb/ikgCAgCFRjBIQIBHDzYmJi6JzWnSk9ux2lNDiX4mpk0rE8ouPHS6iIJ5LQKmNGWVJKTADwz6VacblABlwUhX9RRNHRRLHRpRQXF0WJCUSFx7bTob3LaOfWhbR08SwqKioKoHfVt4g+GE8c9zmVFLvV864oF9Wt24DSM7Mou1Ezxi2aVjMZ+D2EZEBvW4hA9X2GpOeCgCDgPwJCBPzArE27LtT8jF5Uq+4FdOAwUf5xFw/8pWq2T4TBvmzAJx791T/81dJxyMxAEQOXsQZtnC/mnC6KjYlmUuCilJollLtvNq1d8RMtXjjbj15W36xOBuMWLc+k1m07EJYKJk/4yvZia9aqTcms7i8qLFTLCYaqH0QsObmmKnfkyBG+F+774KRtFPK33ihmfElJyaq93Nwc9Ym0lNQ0qpGURLk5OfyPtUMlvpci0PfaKalcLplKmW0ePZJLubm5nmtQldv8iY9PoFq1Uyg+IYEK8vMpJ+eQ+rTJLsmCgCBwCiEgRMDHzcbsv2ffi6leZn/KL21AR/J5IOexo5TV/fxe5qEbU37+Xw3s/E3N/t2Du4vTsCSgC8oQl0Uhd1n8dedHHaVlWoPSUiYGriiqEU+UFL2X9myZTDOmfRPRWgIng3Fyci0aONS9lj9x7OeUn8+qGE3qpNWjtu07qYHWSMYgu3/fXtYg/MqD5xEaNvJydQpEAoQC4qvt0NT7MZ3dui01P+101gixOqhMMDAvXjSftm7eYCRV+GzcpDmddU4bRQL0k8eOHaVVK5bShnWr9WTPcVx8PLVr35kyshopbZRxAs/lju1baeGC2VRQkG8ky6cgIAicgggIEfBy0/sNuobSsoZQbkFN98y/JLrMiIzn7jyiu9gSoJQ/S0uj+diY4bsrVAQA4zsL8kJOpIE5gAzgHP4yucAx/nA1UVEx/MF189pCFKvBXdElbFvAM9n4XNq3dTz9NOUTFIo48TUY44LrpNWl3v2GKiyhwtet+1NS61CP3gMpNjZOnT+wfx8dPnRAlamdUodJVCHNnzuTunTro7BzSgRCVe/OHdsoPSOL9u7ZRYe4X+hn/foNPYP7ot/m0vq1qyrc1yZNT6P2Hbuq9P379tCBA/sIM/wGDTPUJ06sW7uSFv82r1zZ2Lg46tFrgCJFxwsKaNeu7ZTHxAFYpDFhwnn0A14SOC8iCAgCpyYCQgQs7nvHzgPptHOuprziurz2X0yFvFSPYR8DNkQN2urI/QczejW719Jw6M6Nsm4xyimlAf9R6Tz6q3z8x10HUsu3pdgCz+BiY1yUGM9agph9tGHFxzTnl+/Kao6MD19EAANXxwt6UMP0TNq4YS39Nn+W58Jr1qzNmptBamAEAfjl56lss3Hccz4xsQZ150ERanXYGECcEIFQ1gvNxOyZP9Gunds9/UJf2p3fmY1Nm1MhL2NM+fYbys87oeXIym5CHTv3UITn13m/0NYtGz1lQTBbnn4WnXNee5U2b84Mj1YBmixcLzQZO3dspQVcVh/s4+LiqWuPvuo8vDCm/TBJPCU8yMqBIHBqISBEQLvfGZnZ1K3vH6k4tg3lHClU1v4nhnEt40k+jI4qoVo1mSzkLaZZP75JO/hFHwmiEwGou41lFQx4aXXrU916DdRlrlm9nFb8vqjcwAWCkN24qVr7nv7Dt+VIgIENyECvfkMIMQMgTohAKOvFNS1butDojuczJiaWBg29SK3fQ2OxZdN6dQ7XPXjYxQS3ypXLl9ByvmYr6dazv9IOYPkDAzqkWfOW1JYJxjFe+vj+u3GKZJjLRkfHqPphNwCtwJ7dO81Z5LsgIAicAggIESi7yV17DadmZ95Cuw9EUVGJ9Qw/LJ4HHv+hgWBrAopmrUJ6nVLauPIN+mX6xLDoXjCd0ImAXT3bt23mde055da1YXx34UVXqZn+0kULCETBTs4+ty21OvNcddoXEQh1vT9Oncguovssu3ZB116UmdVYrfcbZAHkp1ffwSr/2K8+UUsbVoXRT5AJyPHjbhU/tAH1G6STL1dLaBuyGzX1SjSs2pQ0QUAQiBwEhAjwvRx+yX3kqtGfCgqPUzGvyxeDCLChnlt5rxT3YXfHMVvGAEBsYJiYGEOU+z2N//JfYddPfzqkE4E5v0zTLOldlMCz1rq8nt6ocTOV/vNPU5Q3AOqHuh8zZ8hP30/ypKsE05+GvEbftXtfleqLCIS63vHffGqpqUBnzj3vfGrZ6izavHGdUuMjrTHbBpzPtgFY1580/kskORbggf7vZIPAHPZKsBPYXNRjXGG38PNPkbXUZHfNki4ICALlETiliUAdDgQ0YPjDdMx1NtsCFPEs270+r1boEQSAD3AcbgKjQmWkyB1zxyYgJgPRVKNkGU0d/w9lTBZufXbSH50I2Pnyw/q9c9felJd3jKZ+O0apvGHM13fAcNXE+DGjy62Fm9vVvQ58EYHKqtfcJ3w/u3U7anXGORxYaj0t4OUBSIvT2VWyTQcVaOrHqRNUmtM/F150pTJGdJofRoM/fDfeaXbJJwgIAhGEwClLBDCz7D7oMTqYl87GWWVue+R263Mr34OnANAllK+FzQHhHhikksFdnOuBywG+wPowigMTsSFhncQdNGPys7Rls70rWrg+v06IAPred8AwZQk/a8aPyhAuISGRho64TF3WzOlTafeuHbaXCOO7Tl16qvO+iEBl1WvVOSsigGcU+x/AvW/CmM+sitmmIVwy8IRtgTc8jArgUVEZoZuN+uVTEBAEwheBU5IIND+tFbXr+TjlHEvlZQD4+hsEoHJuVAnHBIh2RfOYzaGGWZUfLBEw99LgFVFcdzT7p9eucZB+nf4MrV9X0RXNXDacvjslAl2692E3vGwVZhhr4BAQAQzcK5YtVv/srgvBiBCUCOKLCCBPZdWLunWxIgK6RmLSuC+UFkQvYxzjupOSOcgQPwjYiwFyQRe2OchuTGtWLecolQuMrBU+4V0AQgk3TCPoUoVMkiAICAIRjcApRwQwy+rU72k6eLQuewWw0z4vAWBiXSnCb2ao8InjAFARxwPggZo45gDW9UMvqJsJDccbgH1DnaT9NOf7x6uVZsAJEYC73aChF1NCYqJa08baNqR1m/NZlX6Wmj3//ONky3Xx1Dp1Oc7AAI9hnRMiUFn1mu+/FRFAnv6DR1CtWim0Yf0aFfzHXA52Ir37D6UUjg0Ae4BZM39UWTIyeQmlW29lPPg9q/xhZ2AW2Af07DNY2ZrMmTWNtm/dbM4i3wUBQeAUQOCUIgJ1eCAYfOnztC+3IRUioivP1HnkZPU9/MpxHHopYSIQxYQgId7FxohMDDBYl4W1DVVrbo0ArgO+BLB0iFIxB9KSd9G3Xz7ANgPVYzMjb0QAkfjqN2hIp7U8g+MIZCmju4ljP1MzWeCI4Dw9+gxUAyLsB+bN/pmjCe5RLogYLGEQBwt5zHrhRghxQgQqq17VAe2PHRFAHIDuvfqzR0SMUvND1W+4VSJq4Flnt6HmLVqptOlMgHDNhiAIEYIRQeWPOAIIrmQIggp1YaIAg8KcwwfZxXC8p14jj3wKAoLAqYHAKUUErrj+/yinlGeN+YX80kOIYEQFxAzaUK6H/qbHxLmofm0XNWyQSCvXH2OjRDj/hVbcvUdgIvg58F9OwDXFJcRQTddy+uz9+0PbYCXVphMBDF7GgAelSjIHDIIaG4LZ7S9sH6APbEiHirwnu9sZewkUshdIzuFDKpIeyiLW/7zZ0z2GhU6IQGXWi7oNsSMCOA8S07VHP+UeiXDEB3k7ZgQEwq6Xyk6E8yDY0Cb2ONAF5zp06q7iKwDLw4cOqrgCqawJMMgQQiyDQFhpDPS65FgQEAQiF4FThghcyC6CVLMfx5bn0L0YLHmgLC3FwFKMlXv+D3YCwYlBJ4yBHgNYau0o6tclmXcZjKWfF+TQ9t0cqAhafG7KyBdcq0ZpaANAbKJ5dYBDIbKWAy//pCT+zJ1KE7560cgYtp86ETB3EgZz2KYZfviwfdCj7+l5McNFrAAYBSr3Sj6JDXb27t5FK1fwbJqXggLZa6Cy6jX67o0IIA+CKZ15dmvWimQYRdT9hSEgAg3ZxSfAMlGrM89RAYYQmMgQxBvA/gRrVi2zdWk08sqnICAIRDYCpwQR6NpzKKU1u4NnPdgaGMO+21HQPHAHe6sxEGOzABV/AIZ7zDPatkqkiwan0JbtpbRk9RFaujyfcjlsMfoBZb57cwHuCccuCFbM1wMPBSx6JCTE0oFN/+GgQ6eOexiWEpJ4dz+E7TVvTBQMzpVVr9M+QbOByIgw7jt69CiTAef2JtCYxPO/fF46kY2GnCIu+QSByEeAiUAqjx8uyua93iNREDa419DXaW9ulHsmrq42tFeKAVhtOgQVAH9Ryw5stNeoYTQN7VObWjVNoHWb8mjngWJavqqA1vDx8ZIirOSrF7mLPQpCbTeAK8QQgaWCaDZWTK8TRd+P+aPacQ7nRAQBQUAQEAQEASAQ8UTgkmueoUMF7Yg1pGpgxAxKzdhDfP/15QYsOyTEEQ3sVos6t0+iRI7+um5zHh04XEp7D5bSgqU5tP9w2TCtiAm0AaAToRVVI5MTFxVRbFQs1Y5bxPYCj4S2EalNEBAEBAFBoFojENFE4IIuAynrrDtofw77BfCoCAt+0AEXAvCEVLg+Nas/rrQBsay+Pa1RNI0aXJMy68epvQvWbsjnjYxK6VhBCW3alk+/ryxkLwImA0waXHAz5OE61ILLddMeboeXIlJ4o6KtK15hgzkJJRtqrKU+QUAQEASqKwIRTQSuuvVj2nukNpUUs8EcQgaX2QOGfsjFcgAPuSADrmKqxbH/rxyRSqfzkkBcXKkiAus3FNHB3EIq5kE/n3fHnbcoh/bsL+U1bDcFABUItUAXABNC7hhF8fVH8RJB3VqH6JM3rwl1U1KfICAICAKCQDVFoIwIENsIZFfTS7Dudu8BV1HtzGsoh70E3AM//oZ+sPW0zgSglAlHzeRoOveMOBrZtzbVYEKAfYEKeRBeu66QDnNfEMmwqLiUdu8vpCXL8+hQLpsucprhBuapL4QHoBqwFYDUqhlNuds/oe8nfxTCFqQqQUAQEAQEgeqKABOBFEwZI4oIwLJ65HUfU25+Td66tWpuDWb08BLIbpBAlwxKpcYZ2BrWrYJQRGA9E4EjIALwGHBxYJtSWrbmGK3fXKSWCFhRUEZYKre/MTEuSqmRQ1+9dzVjU0XgVO4lSe2CgCAgCAgCQSBQRgSgEWgURDXhVbR3P4473+AGHmANbUAV9I/X4BNqlFKfzgk0uGsKL0PAnx+zcJdbI6ARAdgFlBa76OCRIlq8LJ927uMB2T1hr/SOopnEeKKCPR9yNLnPK709aUAQEAQEAUEgvBGISCJwxc3v0cH8+lTI46sai6viHvAI2/6cBBreN4Xq1uGNXNQU370oYdYI4FQUe/gXsQvhll2FtHBJHuUXcSJG6UoWLBNExRRT3YTdNPqdmyu5NaleEBAEBAFBINwRiDgicF7bLtSo9SO8Uxui7FXByMp3OIpjBqSluHhJoBbHDEimaHYddCnjQeulAdCA0lLEEYjhHRALafnqPNq0g5cNeLmgsgUtREW7KCmhmDYv+Sct+u2Xym5S6hcEBAFBQBAIYwQijghcctVjdLDkAt7tj2fjahwO/eAK70OPCyKrHOJjo6jb+cnUu1MihxRmQwHOgKh+bn2AeWnA7TIIm4IojiZYzP/2Hy6mOYuO0NFjJWw46C5VaeoBVT0wKaXUmHn05cd/C+PHU7omCAgCgoAgUNkIRBQRgJHgtXeMp827YBuAAdk94IUaxFL2EKCSWMzr2UCwlOqmRtMfrqhHaRy9L4oDFkDt7xa0byYCFXc5hBfB8nUFHH2wgPILsHcgV1+2M2KlEAIOf4wQx03SS+nD10aI0WDZ3ZIPQUAQEARORQTChAi4B8xgb0Cb9t2p2XkPs5see8+zMZ6KHxTyhXeey/MgXeKK5yBFxZSagjDCqdT2zFiOGYDwPbyDAG/841YHOCMC4CtH8nkHucW5tHtfCW+RzMsGbGyoBFWEWLBkUsL1pySW0qal/+DlgRkhbkGqEwQEAUFAEHCOQGjGQOftlc8ZBkTAGOkMlXj5Dvrzbeioe6g4sT8PpKyW52qhfg+1uH3yUWspxfIWw61bxNOFA2pRai3EDIC/vnEdRtu+NQKorYSJy+adBRxxMI83JUIKbBxALCpDWCPARCCOVQ/Rx76nSWNeqoxGpE5BQBAQBAQBRwicGC8cZQ9xpogiAlfd9h7tPtyAx2hoAzBzN8ANHWpq5Z/rj+Llgcz0OBrWqyad1TKBvyuDhDItBNoz2nZGBJD9WEEprVybx/sSFLrJjKIBRj2huQaQI4WN0lwQNay9lz7+3/WhqVxqEQQEAUFAEAgAAeM9XzlTP18dOslEwLh4dDM4AFLrpNHw6z6hbTsKeYU+loqxjo9a9SZUiv9/UIXROxgKRrlg8Z9II/onUec2vKlQgjsHliJAPhAlEBzEiBZodh+07gEX4HX7vYeKaD6HH849FsNeBGxYWEYo9D5Yl3eWinpKqFhhhKOshvE07qPLeD/7/c4qkFyCgCAgCAgCIUYAb2ZDjNHG+F75nyeRCOgXjgsN7uLPa9uZWnZ8gvYfRHAeZW6HkThIIsADMavQi3hAjuMZPzwBMDRHsR3i6VlxNIqXBDLSE3hQLRumK1yC+xqPcwjhtRuKKScXLoJsv8D5XGxfAHsCVZK7y6sAbHeAvQdKaOvWIlq4Kp/jIPBZZOacbi8EJhn8PZglD7SH8rwpM9cZQ2ns5bB6wVO0ZOFsPiMiCAgCgoAgUPUIuMeKE+1WGExOnKqEo4ghAr37X0m1sq+mXOwtAGM9npKrATco0GBdz8N1FOqMdw/GUSWUnOCiiwel0NktEykhHsM5S9l9K+X8biPFEjrOnCQvn90DDx2n5avyeOiNoqTkKIqN5hk5b0LAeyKyuyAP7iAC+A/jPhOCfF4i+G3ZMdq5t5iXCGAn4D7nbsn8wPh3ge7S+AvNRQzVqhFFh7Z/QD9N+dS/iiS3ICAICAKCQIgQML/XTwkiYL5oYBnchQ8e+QBF1erNg2iRIgLKPiC4KpkE8NDNgyWVFvJgncDfCygxMZratoqnkf1T+ZgdBVUbfD3QGPBIjt0FiziGQQFvN3wwp5gO5xSpjY9W86ZDeZyWkEhUh2fhNWpEc/wBF8Vy7H9iVb2LDQ1LOYYA6EER70ewex/RwuVHeVMiPof1DagilFaCiQEYToDiRt79N4p3S0yMj6Li3B9o0jcvBFijFBMEBAFBQBAIDgH3O7l8HYG/58vX4/vbSdIIhP6ih176AhXHn0OFmIar4RRz7OAE5TEbxyiMXYxjo2Mpmw0ELxpUk5plsJdADLY3Zp7AfvmYzheWRNERdl08yAGCDvO/gkLedpgLFvHpNes5jTcdwk6D2JEwmfclSE2JZVIQTwnsdkhRHJOASUcpn4+OiqXjxbw74QpsSlRIBexRwLoDzOFVWy619BH4tWGZQWku+JoQDCm6aDlN+Pz+wCuUkoKAICAICAJBIIBxxiwRTQQsLhhJbn26GQnH34de8SYVRjWiYl5jL+WZM8fsQ6WOy9tl5Dm+6puLZ8/JvAzQvVMcDexWl2fyZap87nveceIliVI6eLCAcrHDYDGvwGMWX7Y2cZzjAqzmgEGHc5lSQP+v1PLoIykSkJISQ3Vrx1JSUizvWMj95zwY7PcdzKelqwpo+15e02cDxVImGliHQNXBiNvSIZrbL6GYaCYCpTto0uibg6lSygoCgoAgIAgEigDGBcvhyjIx0FZsy1WxRsBmBENykERg4BWf8eCbrPzxUZfywUedNk3aIlLuBPQBrJrHf2w0eG5LjhnQP5kapsWyASGr/5kAHMo5TgcPlVJ+IZYEMOOv2CTW+ddg98FcttdHBhZ1yfwJz4JoNmmIZ2KRzPYDqSlxVCuZffx5zQGGhZvYC2LxChgOYgtjGCwWs/KA2UCA4obD/RfXBe1EtOsITf70sgBrlGKCgCAgCAgCQSFgSwRQa+WTASYCqWpUyM7MDuo6nBV2D0Dl8nISUg1Xu3Ln/PjS97KxXAmv5yvQQASgSA9SoPeHJR9PwdN4gB7am2MGNI/BPJrX/lnVn3ucjQFh6Y8B2j3AW7VYWFxctjTARIAH94pUgVO4fDS3lRAXTTVruKg22xHUTIpibUMxrVyXR9t3YImhmLGCJsECR6uGLdJUSfXQ4YjrYpCiXYU0ZfQIi9ySJAgIAoKAIFDZCHjGK8tByzIxpF2qQiJgM3hxMs4ESwT6XDoRlShw8FfVGSxUXBHCCcfHRFGntonU4dxkpZ7PYc+EfDb8K+aZOSwR4D6I/+zECREoKVvOgLoeqv+oaBCBUqqdzHsaxEbT/IW5lH8cyxHQBti3ZdcHPR19VcqSsg2OsIzywxfD9SxyLAgIAoKAIFBFCHgnAuhE5ZIBJgJ11KiSnZlVyZdsMXhxkpEaNBG4bCJD5Z4rq0GOKw4WOsy+YdEfx4qGLu1q8ZIAhypiK/sSzMzRCBQGaITJArENgZ04IQLuaH9cWZna38VuirgAeAiUcDyBfTkldCwPdg8ADY0GJsBbPXSq40AMCUVCBAKD02epGjVqUI/uXalNm9ZUt24a1U1LU6R348ZNtHHTZsLn6jVraefOXT7r8idDamoKXdCpIzVoUJ/S0uqodotYM7V//37at28/bd++g+bMnc/bdat41v5UbZs3iteZsjIzqFnzZtS8WVNq3rwpNWnSmD1ojtOB/QdoH7e9cNFimjlzNh07dsy2HjkhCJxqCOCdDFHvY8vXu2ViyGCqIiLgvsgKvcaYVpYYLBHof8U4NsRD/AAGjAc52AgA1mDgQ1leked19BKqlRhD9dNc1CgrnoPw8Bp+HGqHyyCaMa6i7GJMH06IAGpTWgWuyoXlCP6GgEJ5BcVMAHhX5ULwDuSBe2RwV6W6rPrM9eACSo8zERhp6nX1+9ooO4uuuupy245j8Pvwo6qJl4AB+MEH7qW+fXpRfDw/LF4EniSjP/uSXn7lNcrNPeIlp/dT0Wz4edGoETRk8EBqf347FavCW4n8/AL6ZdZsGjNmPP3403RvWX2eO++8c+mZvz5OLVqc5jPv8ePHadr0GfTP51+kHTt2+swvGQSBSEfANxEAAsG8970jePKIAMYfrW/BEoGBV33OM/UkNqhzD6RwwwMhCAo6Xrd3r8mzqp7rwoynNqvrG2XEU0aDaEqqwS6FMbFu7qGuxbgiQzfhvkZrIoC8Ru+wIADPAKj+2TyRvQ4Kj5fwbI2JABshFpYcZ6uEWL4+Jggc3Cg4jQC3iWaZKAFzdV2US9+Nrt7GghgEP/noPcKAZCeLFy+ly6+8zu50yNJHjbyQHnn4ATb+TPKrTsyY//HPf9HEiZP9KofMZ57Rip55+gk666wz/C6LAtOm/Ux/febvtGvXbr/K4xrvvecuuvyyi9Xvw5/C0EY8/8JLigT5U85X3vr169EN11/jK5vj86NHf0Fbtm7z5P/jH25h7x7YI1WOLF++gn7i+6HLrbfeSPFx8XqSOt61axd9+dWYCulOEq695kq2RapdIeuhQ4foo49HV0iXhMpDwCACaEGNCuqPuT3LRHOmgL5HDBEYxO6Dpa5sjsSHADzwx4e6PjgioGboTAZcPDDX5WWBI0dKqAiqeh6QG9QhatoontLr8/bDbEPggvk9u/i5bxW75mGmjYGdb0s5IsAExZ0KY0bkhvYCKdACFDEBYHfEPDYSzC9ibQRm/7HsVcDeCGyJoMITq3V91BqYqJIcswDdi+JriWWXhWjaShM/vSWwCsOk1O1/vIXuuvN2r72pCiIwcuRw+vuzf/XaD18n//Lw4zR2HNu8OJTu3brQG6+/ws+J/fKUk6oOHz5MV1x1A23YsNFJdkpPb0ifj/6QMPAGI48+9lf6+hs29g2RnNHqdBrzzWchqo3o2utvofnzf/XUt3jhXEpIqDgoezIEefDV12PpscfLP0ML5s2kmjWTK9S8ZOnvdNnl11ZId5Lw/ZQJlM1aNLNs3ryFBgy60Jws3ysRgVOACFgMWpxkTg1WIzD08heoNPZcDuLDRIAHOPjKQ4PuQ2vv9dbCkr+UlxtA/k9vxMGEeFlgzYYCtV0w6o51xVLDOjHUoinH7OdlgzjOiPaYf7AhIQ/zXB5SngjA8h9XzwM/8vJwj4PjTDaOHSthI0Si47wMgDRsZlSfCUdq7SRaviaXlwq4fqU7wPnAxX1dvOTB/8VxQKGowqU08fMHAq/wJJc85+yz6LPRH/gcCCubCHTseD69+/YbPvvhC66jR4/SyFGXl5uF2pVpdXpL+vST9zhSJaunQiBbeeZ72RXX0oEDB33W9r83XyOQkGClmMn7NdfdTAsXLg62KlVeiIAzGIUIOMOpKnLpRADt8RBS9gcHuqgzekJIjqtAI2Ae8rnfnGRODZYIDB51P0XX7EPH8rGSjtk1Zt42WDqFDjYHURzIJ5r3F4hLoK7tE6h5oxjauqOIFi0voH2HETnQRTUSS1VsgezMOEqp6eJofRiw0TqGfN6GmF90a9YjsqA7joAiKTwlhy1AMYcjzmcXxKMcGhkbDsFYEMaJDerFUFaDBPaILKGVawo4XgHagtYBeYJ9GNz9Ak6JHCSp+MiP9G01DTGckJBAY74eTU2bNmG8vUtlEgEsG00Y9yUbyDWz7QRiSKxZvUbFm8jKyiQY9NkJZnpX8uwcg6Q3+fLzj+mcc87yloWfrwLasmULxcYymeUZoC+1NlTNjz/xtNc6hw0dTC88/6zXPDgJQ0Es2/hqc9GiJayNuN5nfU4yCBFwghKREAFnOFVFrlOPCFiQAAAdLBFQmw5lYdMhJgIYwJUqwEw3/LylPN7CQwDr6Dz/54GZaGDPmkwG4ni74yj69ffDtGEbBxTiaIJRPEjXqllC2ZmJlNkgnpISeGMhfgHiusoRATZiAEWBCcNxXv+HHUABEwHoCeI4qFBtDiaU0SCOGmclsDNCEa1iDcT6bYhW6F52KCnhZYcyTYOfV6Nlh6YCro+kNh06vP0j+mlq1RjRaZ0IyeETjz9MV15xqaO6KpMIjBgxjP7xnPXguYa9ArD2v3jJ7+Ws5Xv36qFsCUAKrOQPf7yLpv880+qUSmvb9jz69OP3bM+vXLmKnvv7C/Trb4vU8hMyYvkA7T704L1k1y4G7159BtpqBUBgvp04xpbI5OTm0ksv/Vt5JWzdulURXngP9Ondk27/4622xpM33vxHmj17ru31OD0hRMAZUkIEnOFUFbnMRABtqume+qP3oEKCfjLg40rWCFgMxJxkkRo0EWjdpjOd3vFxOsDbEIMIuN3trVpyjhUm3oji5w7Jy8dMLlo0j6dLBqZQgzRW5bM1/+pN+TRzbj5t3XNczehjePOgtJRoat4kgb0M2LuANxYqZvdCpRHgyIKIMljEmw8cPcYkAARA7T7IywBxUUwiYpgA8P4DteKYBJTQqo3Hac3GPDrKZAF2DzDwc0vg1wVdAP7DsgCkLvd11YJnaPHCWe6qq9FfqKWhnnYqlUkEJo7/ik47rXmFroAEXHfDrRx++lCFc0ho2rQJYVZvZVgIg61nn3se2SzlqScfVUZ6VieXMOm48urrlV2J1fmkpCQaP/YLymR3Pyt58qln6fMvvrI6pYgXCJiVrF27jm657Q5bo8OmTZvQh++/RfXq1a1QfMrUH+jPdwe/ROWNCEA74q/L5J/uvKfcssW0nybzrqMJFfpvJID8p6RUNMLD+cLCQrY1OmpktfycMPFbReD0k2IjoKMRecfOiQCuPfRkoGqJAI9fdkNYsBqB1DppdOF1n9K2nYU8O4+hIo6WB9V7MDYCFR43xr8Gb0Hc7pwkGt4niZJYh4+B/CgH+pm/OJ9+XZpLO/exkR8vF3AMIMpoGEPNsrGxUByt3ZxPe/e7XQFzjxayJwBIRjRHEmQ7gLrR1LIZLyskx7AKFQN0Ee09GEULlx3lDYyK1IZHobr1wB/EhikKfxbxJkqxNPbDK+jggf0VLjecEzArnTDuK+Wbb+4nXvSJibzNo0kqiwg0apRNU78bb2qNeOOpwzRw8AhbEmAUuOfuO+i2W28yvno+17PR3pChozzfzQfvvfsmxwroYE5W3wcNGaliFFieLEvs1rUzvfW//1hmee/9j5R7n9VJOy0MXmbwygAJ8SZDhw6i/3v+uQpZMEB26tyTiTI2DgtcvBGBt95+j/714quBV+6gJAwJYVBoJT/8OI3uuPNeq1Ne04QIeIWn2p+0IgK4KPXer/Dyr5AQ9PVXIhGwGPIrkQgAiStvfZf25LD+HuoAtuA3gvMEjZJWAS8F886BLhrcpxa1O6MGJfO2xNhI6GheEe06UEK/ryqgZSvzeCBniz/eLyCJJw710mKUHcDBQ4hI6A5GFM0V1U2NoSbZcVQvlV0RE7gedg10MYnJyyuhX5kE7N5fxC9FCxy1/vh9qJ4h1gkoY0aihrX30Mdv3uB3NSe7wL9f/Rf169u7Qjdg7Aaf+Ouvu7rCucoiAnBVg6rdLP976116kVXkvgRq87/y7N5KMBu1m0GCfICEmGUnu5T16j3InFzhexwHw1i0cI5lvIGpU3+ku+6+v0IZJGBG36FD+wrn4PJ2+5/urpBulTB50hhLuw6zhb5VWV9pQgR8IeQ+L0sDznCqilz+EQH0KLRkIKKIwJCR91BxYj+Oyc+aACrkwQ6z69AKhmV4EWTUi6VRg2rzdsRxaidC3Bes+x/hXQg3bT9O85Yeoc1sVHiE1fq8vM8DPJsPch4XuwLWqhFNmfVjeCkgjvcVgBaAK2UyUcIqxTwmFOs3ldCK9XlK22CrQgnysrA7YhyvF8fkTaWJ37wUZG1VWxx++s89+1SFRvFjwkDS+YKOBF9vs1QWEXiLlye6datoPT/qoitoBa/TV5bASPIMjh9gllm8zn4Tr7c7kansQoZATGaBOx/c+qxk1swfVbRC87nX/vMmvfaf/5qTLb+/8vILNKB/3wrnXnr5NXrzf+9USPcnQYiAM7SECDjDqSpynTpEwIs2AEAHuzSAOtq0605NWj9MOViC43X5UNSJessJ1hp4rT7aFUfnnxdLg3uk8Do7jALLbAkUIShmo8VoWrG2iOYuPEibdh1XUQ/jY1wcdyCOlwsSiKO+8io94hZyzAO1fsHf2EJ8y84CWrjiGGsOuB14CYRcmJDwckYpk49UJiQbFz9HC3+bEfJWKqtCGLiNG/M5b9lcMVjPx7ym/jdeU//zXbdXKRGY9uNk5VOvX3NOTg6ruXsxOTTsOvSzoTl+7d8vqsiF5tpWr15LF470bUAJT4ffFvxiuYzyyquv0xv/fctctQpAM2/O9ArpSLj/wUccB0OyWw5BlMOHH33Ssn6niUIEnCElRMAZTlWRy44IoG0eUsr+4MAQlWp8CfqzkjQCPIiZBeOnOU37HopBGy5K194xjv38mQTwKjjaCy1cRoe5Vt4OOCk+mrqcn0yDe9VWFv+Y8sPPHw2X8BBfyHGBD+QQLVqWR2u35LEWIZ7qpcRQFLsEKvsF1UfuKwf4wXix/0ApLVx+jPYfZpcxTnAHGfKGmtEf/z9LeOmkacNY+uC14UGvyfrfemAlMHB99OHb1K5tmwoVIPLb8Asv4SWY/ColArBFWPjrrAqk87eFi+iqq2+s0E8jAR4l7p0ojRT/P2++6Xq6/74/VyiINfaOF/QkxCPwJohBMJZJlZVcf8NtNHfe/AqnYNT46/xfKqT/P3vXASBFsUTrDrgER0Y4UBGzKJgjiCCCBEXMCSOKWRETigkj5izmjCDmiJgVc84J/aISJefM/Xq927MTemZnd2fDHdX/43So7ul5szf9urq6GhlXXjWCRj1pbs9dAZ4X4dnOHaLYRihEwI2qOS1EwIxLPnJTJwLoZXSjW60iAoDmoAHDaP6qXdUaONJRB/gF0Hv5i3mHQMumJdR7z/q03WZlPMCDCGD9nW3yeb0fAznsnpbw7oBfWdXPu7LUzgMeNbASwPHYcgKaXLx0JX33y0qaPGMFreKjh3kBgu8DEhA9EVCbD3irYtM6n9LTT1wVNURZaw9uVocMPsPTPmbdRx9zIm+T+1qV5VIjANe+z7GK3h1efOlVumDoxVZ2xw5bEYzksLbeqmVLZVWObXbTp02nSZP+oVdeHafcyqZiKAfL9PfeGW/0cvfCCy/T0Isute7vjmAbIRwRbd2xg7uIfmVfB/33P9STrzOgRTBqZEaNoauuvk6LBV4fYCPFzmys6A6z+XCiTrt3d2enlBYiEA4uIQLhcMqFlBCBOMpRaATQ1Lbbd6INOg6jRct4bs4DRHScSXcUV/YFwGN1ERsDlvBZA+u1WkOH9VuHSQEcp8QG+JjBIgZxtlZgVfzEP1eyQyH2B4CZPvz8F8fcIENzAT8DEyctZbKwkpbwkkCRapzL+T5R9z/WI6Lyimqa/P219M1XNWPbYPv2W9DYMY8xvgywKzz62Ci6dsSNVm4uiQAGMwxq7nDf/Q+zoeDt1Lbt+nTtNcNpu223cYt40jhr4JZb7kzJ3e4Zp59Cp506yNMWMsY89QxhzR27F+wBBoaXDLvAaNeAD9Ipp54V6L/g1VeeU6cL2ttEHEaKvfvsr7Qy7jJ7umnTJjR+3EtGl7nYXtdha/NOCHsbQXEhAkHoJMqECCSwyHesFhIBwwyWswy5DuyjIgJo9IiBD9PMZS14sOYZerIbO3oRLgGPfEVsg4AlfDQP18I7b1NKPTpVsL1ACc/0uUCN4Ch1EoHYmjH0BjzIs+ZgFZOE/2avoE+/WcQHDPF2RF5OKOYjjWFYiNaj7j/arcvagCal/9GYB/1V17h7oQRsx3r2mdHGwQd+0bEejv3hOuSSCPTs2Z1uvzVBQnQfbr3tLvr994l0803XGWfsWs50ha95qNmXL088k0kOefi7ueXm66jX3j2MItA6wEgSxx1jl8CG7TYgOCKCl0FTuOHGW+nBhx41FVl5cJwEB0qmEGanxNVXXaZOSTTVR96WHXZQ9jJ+5cnyhQgkQyhWLkQgHE65kAoiAri/Gg7Uf9y9MWa6hZKms7A0YBh5OcuQ6+hclESgR6/DqXSdo/gIX8yoowFKdxYDKZYHiqvh6Q978fkePFqXldSh/r0a0k5blvOHnw0HoY2A7p+lnBoBXjLgwb+YtQloZy5P1r7+diHNWIBTB0ECAFZ81qvi+s7RXPEeSvl8gaXTH6Z33xobTaNZbmXYRefTUQMO99wFpGrA0QMdzl4glEsi4OdREEZvvXr1MBrieR7EkJGK0RwG9TNOP5kGDjzWuBXQ0LwnC7YVN9x0G41i9X6ysOMO27Gthr9l/9inn+NTBW/2bHuEfcGFQ88NJAG49w47dfbUTdYne3kQEZg06W+a+MefdnHf+OTJU3x9KfhW4oJc+hHAsdXf//BjUHd8y2BrYzo8SQ4d8oUsawVCBOLQRkkEoD4+6LgnaN6SSrVGH+Xbw0AKz3zKHJBPBuQJWYwMsBJgXXYN3KdbA+q4CdsLsGEbj/MqOIkAlgaYAnDZkqVFynZg4t9sF8CeBGE4gJaBBchClJjEegJtQBFVli2g5x8dUCOMBDt12lWp3k1Y+Dm9ySURgHtjPy97GvN0r4PPPp9eH/9m6Oqnn3YynX7aSaHl7YLnX3AxvfTyq/aswPj4cS+qZQ8/ISxH/PLrb3yS4SS1VIAzGGAnEXS+gm6rc5e9aNas9B1cBREBfY8wV/Qfhz+lGnJJBFLtWxh5IQJhUIpWRohAHE/Thz4TqHv0Pooq2xxJCxaytR5GZAzKGGWjCKzSx4kBGOvRZkyNv5pK2Svg5uyC+MAeTagZOwuC8SACzo2Z+CcfHLQYNgLYIcBuh9esor/+XUW//LGEFrCvAd44EGuIG63G1kck+b+xFtBK6kGRini1WFvVVFm/mOZPeYLeGT8q9QZzXANnpeMgH9Mxt1B173/gYY4lAd29XBKBww49iODqN1nAwPjjjz8TvAVCk7HRhu1oi/ab8/HWzXyr4gTALl17JiVsOEhoGFvhd+3axbetZAX4EOGwIXjdc9sUmOrCo+GDD4yMEV6TQAZ52PEQpg9+txAi4IdMuHwhAuFwilKq9hMBDJQhEIuaCOCWR5z0OM1a0IgHXVjx8wCLWTem4lkJPJvnthvyoUE7bVVKvbs2UssFcCC0hk8YnMiHB81bsppn/kwMmAzMm7eGvvpxCc2ah7MR4IMgDEqpdVwRFCxRwMcB/6tXvIaaNZhLo+4bkFpDeZK+9ZbrjWvfGEiPGHCcWvs2dS2XRCDZKXzYBfDY40/S3SPv86i7sWY/+KzTlBdEpUEyPMzJMNx77wNDSSwLJGD0qEeMrpZ9KwUUYMfAUbzcApVzsnDySSeo/ieTM5XjwwfDQGDgDjAWRFm6QYhAusjF6gkRyAy/dGonIwJoU41cnuHLk5HO7SliGwHDYJZHIrDzbr1ovS3OoDmLquHtlwMb4fEHKBw1SRXP2Ey+mM8YqGBHPYf1bkpbblxCZXxE8Sq+5+9/sO/5xUvYGLAOLeFthF+wceCMmUwMsENAkQCoF6INmlzg0VczEWjRkOjfn26nTz56PdobZaG1/fr1petGmLc2wpgNRm1+IZdEoBuf5DfyLv++4DhfzLSDgp+LYtR5bdx4GnLOUGN1qNmfGv2Y0c2wrgBDQRgt/v3Pv2rQbcs7BjrylsENN9xAi3iuX3z5NR0/8OSkgzHIO8gAliOwHTGVMPyKa+j4445WxyLb64E4bdVxR3tWynEhAilD5qggRMABR04S6RMBdC9zMlCriQAgOvSYq2neim1YHQsf/2wpnQUioKgFG/bhdRSx9qEOG+Ot36qY9mfjwbZVbC/A38jfeGsglikWsVbg90kr1PHCyqEMy1fzTD0LCgHuDKgA9jhwYK1D45Kv6OnHE3vbkV2IoXXrKvYeONa4vQxrzlgSCLKozyURgF8A+N43hbC+92HTgtMLceaAO/z330y1PODOR/r8885Wg6mp7KeffuGjj28kDOruAO3DvuzT4NxzBhtPAYT8pZdfRWPHPuuuakxvvXUHGn75xQQHRckCjPVwNPIHEz6iD957w7PsA4+MO+2yR7JmAsuDiMCff/5P2S4ENhAvnDp1WqizItxt5dJGAOdQ/PTTz+4uhEpvs83WxiOhhQiEgi9SISECcTizsTSAplu3WY+673c3zZzHZ/ph0GV9Oez1owyqNV7kh4qfrfy4fdgHsHe3rSuoZ5dKatqgHv3JBoH/zVlFk9nd8DfsQhhnEMC4INYbtBBtn2LPx09axLYM/K8VHzf89ksn09Qp/0b56JG3hUHq0Yfvox133N7TNnwwHHHEsfTd98Gn2+WSCMC/wXPPPOnpKzLOOe9CevXVcNoX+AKATwB3wDN34BlybNtporSysgE7E3rd6NgH1u445wBbB4MC+j7myUeM6nkMBjjB0H3foPZABPqxJmdLbrdVq5ZqkMe2zpkzZ9IPP/5Eb739Hk1gAqCdJplO1Js2jQ9M6t476DZJy4KIgJw+mIBPtg8msMh3TIhA/A1kiwig+c7d+lGztqfydsKVtFqNuTiUKDb0Zq5UiT8Ak4Aidtu7hgeyIj5euJqNARtWFlPXnepTl50a0t+TV9CkqSv4qOKlNH02r38qwoClCq7P7opx8kAUQTVnNcQ0gz0clpUW07xJ99CE9162Sgo1AnUxZrqmMHfuPPrii69MRY68jTfeyKj6hgHaZ5996ZD1O2HPIRSQwICHAdkU+vU/mNXyvCYUIvTt24tuuuFao6TJir7/fvvQiGuvNMqncoLfqaecSGeecaqxHdhhfP31t8ayTDPLysr4qN5PPM2ka6lvb0iIgB0N/7gQAX9scl1S64mAGuhCoJpNIoDb9ztoCBVV9qTFrJpXgyXU5jxg8+q5GoJjiv0QHQ0lAp0D7wRgLUHVOjiYqKEyVHz3i6WKEKxWbCRUQ6GFcMbBGjgyYjuIIlrFz8YGkqwJKOdjkmnRW/TS0zeFbiufgtAG7LxzZmvEqfR/8/becwtSqQ/ZTz9+T7kMdtfr1Lk7nx8xx51tTGNP96gnHjKW9dnnAN6G95ejDIM3BnF3wGx72+13S7q+r+vBudCTTzysk44rXBTDVXE2Qrt2GxCOInaHl195jc47f5g7O6W0EIFwcAkRCIdTLqTCEAH0w2zrnvl0Nrs2AjziYtANE7JNBNCHw4+9iRasac8n+2FGjp0EPGCzeh5r6aE7GuZh4jJourReEbVuXszbCUvo179W8JkCPPsPC0qK99LLDHicIiYB9UrqUsPin2jMI+Zz5VNoPmeiNZEIPPzQvYTtdO6Qyow6SCOANXOsndvDDddfzev8fexZKj5x4h+0Lx++FDYEHSJ019330R13jgzbVEpyfs97Izs1euDBR1Jqyy0sRMCNiDktRMCMSz5yQxMBdM4z7nsyUn6ECImAYXRLYXzNBRFo2rQ59T74et5S2JL1AEwC2ICQ6QCvo/OsmffuRx0UIkw2YEBYwicOruT13jVrMGNn48AIg7oPPwN7J2Bigy2SvFWQt0k0q5xG48aeT3PmpO+cJcJuhmqqJhIBP6O9VAzu/M4MgMe/bbbb1YPdzTeNoD699/bkz5w5i3bfo4cn3y8D2w8xIJjCvfc9qM4qcJfhsKMnn3jEna3Sg4ecF2o55LJLL6LDD/MSlkEnna4MCY2Nh8wUIhAOKCEC4XDKhVRmRAA9zIwMrFVEAHCt33ZD2mWvK2ju0hZqHZ94Tz806kozAIEIg1ogYF3OGtCO1XV5ixUTAagJshGw1AF+ARsFfqCm9WfTp29eQv/8/b9s3C1rbdZEIoABGQOzO2CHA85BSLYnHuvlr/FBPtgt4Q6wcu+774HubDp78Ol00qCBnnxkdNp9L5rNBxiFCX5nJaDusIuH+x6A5Lcc4kce7H0pLS3lHQPjCQ6j3GGPbnvTjBn/ubNTSgsRCAeXEIFwOOVCSohAHOVcaAT0C91o481p+64X04IlTdnBDzQBsBUwaDR0hTSvOIYYBoQIMCCEN0HsJYzGLDDRKd1z2ATU4fYbVsylr967kv7849eEUA2JFQIRwOl4nTvtxnvc29CUKVNpwoefBA6sGMhhMIiZsjuEGRj9NApoy6/+gQf0p6uvusx9O5V+/InRdPU11xvL7JnY+z/myUepQ4ct7dlW/KhjTvA1zoRXwU677WLJ6gh2Khxy6FF8tPLfOstzvWL4JXTIwQd48uF58aBDjvTkp5ohRCAcYkIEwuGUCykhAnGUc0kEcEtoBrr0vpg1A1W0fBmm0jxTx6wahID/r/qjR9h4H1O/YPavWuTWlX5ANRGVTkB1T1mP8JZFTpSW1qHG5VNowuvX1DhNgMZ2fVZVV1RU6GRa19FPPmI87Oe33ybSBUOdfhTgSc8e9ureTQ2w9tkqBrdhwy6nN996xy7qiAfN0N//4EO64sprFamwV2rWtClBRY5ZuV/oy4aCcEvsDlDpv87+/uuwBsgUzh5yAY17/Q1TkcrDNk0QkGOPGWCUwTN37daLlixZYiwP8qiIrYcXXzLc48MA9zzv3MEEB0qmcOGwywiHLWUahAiEQ1CIQDicciFVe4mAGqXCz7NzTQTwcmEzsHe/C2lJcXtayrsJVldjmQBb/zBsQ1MQ1ZAd7U+Ju8n9jPeNE9AElFXUpYrVP9IbL4+oUTYB0SITa+3Lzz8kGMG5A7zsHXbEMe5sK43B9aUXxhpJBAZEGOFBQ2AKOA/hnbde40Od4idHuoTwhz59+gxl/b+YPUxii2PbtusFeuTDVknMyv0CthvC6M4vvPX2u3TXXffSH7y8oJcnysvLaRt2AAQSsMUWm/tVpZH33E+33X63bzme8+03X6WWLdfxlfnuux/o94l/KG0KfBZst+02xveCBubNm09YFghyFOV7I1dBEBEAphM+/MhVIzj58ivjCP4NwoZcOhSCT41DDzs6bNccckIEHHDkNZESEUBPPUOTJyOl58mejUANIAIaqX4HnUNFDXqwn4EVbCtQhw36GFRMtPjjnRm8+g4RXq39I3BcBBLAmgD21169eDy9/MzNEd6o5jaVLhE48YTj6JwhZ/o++HXX30w48dAvwNUuTgCMIsBjXP8DDiU4B/ILm222CT337BhfrYCuB6dEIDAlJfWoVcuWOtv3unjxYuqx975MKOf6yqAgyL4gsKKhEIcdwdlPFCGICKTTfip+GdC+EIF0UF6769RqIhDnAqHecD40AvaOde66L7Xd4kSaMacu78dnHoDOQ9+eykPYG8xiHFhBX8GejKlVkzX050/30YfvZa5SzWKXc9p0ukTAz5Jddz7M2vvwy4bRoXwiYaYBe+mxpz5ZOGD//eiaqy9PJha6HJoDWO5/8unnoeoELYmEaoCFXnjxFRp64SVhxZPKCRFICpESEI1AOJxyIRWWCKAvanKq/mPvmSfDXpg0nlWNQCpjaL6JAJBq3Xo96tR9EBWVb0/zF7KtPxhBoQXuUhGfTdCAHQWVrv6WPnhzZMG7Dc41hOkSgQFHHkYXD7vAt7s4KGf0mKd9y1GAdfCbbryWevfqGSjnV4hT/y5kRz5Q64cNJww8ls8NOCusuK8cNAfn8AFHr49/01fGXYDnxe6FdA4eQlsgHCcOOs1yO+xuP520EIFwqAkRCIdTLqSECMRRLgQioF/4rp17U7v2A2jpqma8XLCaVrKxP6wGtHoABMdOEXD8sN8ygl3WTYwcbWgc4ld3Pchi+bmCCUB5nVn0xw9P0Gcfm13bxptYay/pEoGGlZX00ktPG9Xn02fMoH37HRTqeF4Av0eXzuz5bxDhQJ4wAT79P/74U2VU+M+/k8NUccjstuvOyvCwbdv1HflhE1hrvvzyq0MfyONud5ttOtKlF19I7dv72x3Y62DNfeS9D9Bzz70YKQnAPYQI2JH2jwsR8Mcm1yVCBOKIFxIR0D+CPfc+kpqv148WLW/IdgNEQfOfIQAAOfhJREFUa1azSp63GypPvhDi0RpGe3ANUA1/BJyBAVvtE1CjPA45YiE7A1AC3BiTB/0/FMO/QLF1CqGuxwcG1eWtjXwWQSlfG5TOp9mTX6M3x/mvU6Nba3tIlwgAt0033ZhGXHOlY0DDzgLsNsCug1QDBui9e+5Fbdq0Vv+qqqrUGjJcAcP5z7Tp0xUBeI6t5XHaXSahhG1FoNXAyYJBhoD6HtAA4CwBWOq/8OLLKR0wpNtwX4Hf/v37KQK0TosW6uAhGBbCN8BktlOYwjYPX339jVoO0AaM7jYyTQsRCIegEIFwOOVCSohAHOVCJALoGj5iu3c9gKra9qFFq1vQkuWxQT+mEuChHGSA/6lVBDX4xx4I5KBIGxuqRDxfkQWmDKgXpw2qGnsDgmYBvgdigQkHF9QvL6Lyohk0a+qb9N5bz0Q+e4rfTC42BKDuxpHA663LfgR4cP7rr7+YADJ5iyhA87CIDfJSOdkv1VuDeEArgWvz5s35XzNFYnES4KxZs2kSb/F7//0JSQ0CU72vSR7+CkCgJQgCgoAZASECcVwKlQjYX9u223eiTbboRg2a70rzFhbxskERLxvw/F+59IOknuNjaMesn0kDkwAM+ogjV6sHeP6vNAcxLwMxAQz8ddk1cHkJUZNG1bRw1if0xy/v0jdfpbbdSd1G/iMICAKCgCBQIxCoJUQAA5krcJYh1yWUSNYEIqB7Cy1Bx212o6r1t6fGLbamehVtaCkfJrR8RTXP2NmlMA/+a/iEQRCE1bxkEB/m1Qwfgz3WFurWwaFHa1jjUM3buoqooqwOrVg8mebN/J6m/fMV/fDdxzL714DLVRAQBASBWoxA5kQA4MSmmunAFNGuAcOQX4uJgBvopk2b0XptN6NmLdpSaf02VFzCe7WLm/AWv0patYb3+CsXxkW835tdABct50OI5vP2xPlUvXIGLV08hebMnER/T/qN5tagw4HcGEhaEBAEBAFBID0EhAjEcatJGoH0XrXUEgQEAUFAEBAEvAgIEYhjIkTA++OQHEFAEBAEBIHaj0ABEIEmrMQvovXarJsB2mv30kAGwElVQUAQEAQEgbUcgfwTgQomAmy8tl6bNhm8CiECGYAnVQUBQUAQEATWYgTyTwTqN41rBIQIrMW/Q3l0QUAQEAQEgTwhUBhEABqB1q0zgEA0AhmAJ1UFAUFAEBAE1mIE8k4Eyho0VxqBdVtXZfAahAhkAJ5UFQQEAUFAEFiLESgIIlBUVIfaVCU/p9z/PQkR8MdGSgQBQUAQEAQEAX8E8k4Eyhusw+7ti6lNq3X8e5m0xEUE4klXbmArsn0wEB4pFAQEAUFAEKilCKRMBICDx5GgJyM0WkXllS2ri4rrUOuWzUNX8gq6hnxOunK8VVw5QgRcgEhSEBAEBAFBYK1AIBUiAEDUkO8Z9z0ZobErKm/YKkYE1mkWupJX0DXsCxHwQiQ5goAgIAgIAoKAAYH8E4HGrauLi+tSVfPGhu6FzRIiEBYpkRMEBAFBQBAQBOwIFAARaFNdXIeJQLNG9n6lGBcikCJgIi4ICAKCgCAgCCgE8k8EmqxXXYc1Aq2aVab5SlwkAK3I0kCaWEo1QUAQEAQEgbUNgWiIAFBLz06gqKJpW14aqEOtmjZIE3shAmkCJ9UEAUFAEBAEBAHKPxFo1pY1AvWoZZOKNF9HFESAjztg74YSBAFBQBAQBASBtQ2B6uo1/MjhZ/NK0ihuzEwKZ1FF83bKWLBV4/KkwmYBIQJmXCRXEBAEBAFBQBBIjkABEIENlbFgq0ZlyXtrlBAiYIRFMgUBQUAQEAQEgRAIFAAR2IiJANsICBEI8bpERBAQBAQBQUAQiBYBIQIKT7ERiPZnJa0JAoKAICAI1BQECoAI8NIAtg82lqWBmvKjkX4KAoKAICAI1B4E8k4EypuxsWCdEqpqXJomqmIjkCZwUk0QEAQEAUFAEODtg3neNVDebAPWCJRSVRMhAvJ7FAQEAUFAEBAEco2AEAGFuNgI5PqHJ/cTBAQBQUAQKAwEhAio9yBEoDB+jtILQUAQEAQEgVwjUABEADYCvDTQuCTNZxcbgTSBk2qCgCAgCAgCgkAh2AgwEahbRlWN6qX5OoQIpAmcVBMEBAFBQBAQBAqACDSHZ0EQgbppvg4hAmkCJ9UEAUFAEBAEBIH8E4GK5vAsWMqeBYUIyO9REBAEBAFBQBDINQJ5txEQIpDrVy73EwQEAUFAEBAEEggIEVBYyK6BxE9CYoKAICAICAJrEwL5JwIteGmAHQrJ0kAmPzucAW2wlcikSakrCAgCgoAgEBKBmv0NzjsRKI/bCIixYPDvrU6dulS3bl3CSY2IFxcXq39FRcVUVIQfoQRBQBAQBASBfCFQXV2tjO7WrFlD+Ld69Spas3o1rVq1SsXz1a8w9y0AIrBxdRGfNdBajAUd7wuDe916JVSvbj2+8j++ShAEBAFBQBCoeQisWrWSVq1cSSvVdQUThsLS4BYIEShlIlAnzbdrAJSzDLkB7ReOjQBm+yUlTABKSmXwD3hjUiQICAKCQE1EAKRg5YrltGLFioLRFBQAEdgkrhFYu4mAIgClpUwCylj1ny4WNfHPQvosCAgCgsDah8BqXjZYsWIZrVi+PO+EoCCIgHIx3Kg4zV+CYe5fgzQCWAIoLSun0lIQgGBfClAtgU1i7Qk/ojVrVisVU6GpmdJ8kVJNEBAEBIEaiwC+5fhXXAw7rpgtF5Z0sbQbFPA9X758GS1ftjRvSwZ5JwIVLTZVGoGqhmsfEajHNgAgASW8DOAXVvAPZAWrkVauLLx1Jb8+S74gIAgIAoJADAGQA3zr8Z0v4QmfX8B3HmQA3/pch/wTgZab8fbBEmpVma7le83UCJRBC1BWYVwGgMXp8mVLaNmyZcoKNdc/CrmfICAICAKCQPQIYJdXWVmZ+vZj55c7QNMb+/YvdRdlNV0ARGDz6iImAlWV6T5nzSICePllTADKyis8DwwV/7Kli2np0iWeMskQBAQBQUAQqD0IlPMYUFZe37j9exmPAct4MohJYS5CARCB9tVUXJdarwVEAGtH5RUVbA9Q7nm3WAJYsmRRzl68pwOSIQgIAoKAIJBTBDAxrKhoYFwyWL58KS1dAjKwOut9yjsRKG+1ZXVRUZ1aTwRiJKC+Mgp0v9XFixeqtSF3vqQFAUFAEBAEaj8CsBWrX987G4YR4dIli7NOBoQIqN9Ydv0IgPWVV4AEODUB8Dq1aNECtROg9v/U5QkFAUFAEBAE/BDADoMGDRoq77F2mZhmAGQge8sEBUAEtmKNQHGt1ghA9eO2CcA2wEUL52f15dp/TBIXBAQBQUAQKGwEMGlsUNnI40wONgNYOs5WyDsRqGjVgW0Eiqh1g3QfsbCNBWEYWFHf+XAgAQsXzJcdAem+cqknCAgCgkAtRQAT48qGXjKwZPEiZUCYjcfOPxGo6gi9PBMBw4Ae6okN9TjLkBvQWnaWBrB3FOs+OChIBywHLFgwVzQBGhC5CgKCgCAgCDgQgGagYcMmnrED9mTZ8DOQdyJQv3WMCFTVT23oTqBmqFcARACsrn6DSo+zoAXz54pNQOLlSUwQEAQEAUHAgABsBho2auIogdOhxYsWRq5NzjsRaMBEAJ6XWtYyIgCbANgG2IPsDrCjIXFBQBAQBASBIARMuwlgKwCbgShD3olApdIIEBOBdB+r8DQCODOgQWVDx9kB8BOAHQISBAFBQBAQBASBsAhgJ4HdNTHOJli0cEGkBxXlnwhUbaVG8paVXneL4YAqPCKArYLl7DFKB3gMnD9vttgFaEDkKggIAoKAIBAKAdgLNGrczOGBEN5nl0a4iyD/RIAdCvGCB7VsFHzynj9ihUUEYtqARo4zBPDCxG2w/xuUEkFAEBAEBAF/BOCOuNy21IwzCbD9HNqBKELeiUB9PnSoiP0ktGrifwJf8IMWFhFwvzA4gZg3d1bwI0ipICAICAKCgCAQgEDjJs35iOOE5jzKCWbeiUBFi02qaU01tW7mPYQnABNbUeEQARg9VjZs7HAGEeXLsj20RAUBQUAQEATWIgTck8yYP5p5rFA3jIEp4pJ3IlDefCNFBNo0d1rYh38OAwicZcgNaDIaPwI4bxpeoexh7pxZkW/1sLcvcUFAI9CiRXOqrKykOXPm0Lx583W2XGs5Ao0aNaL587PzvjfYoK01C120aBH999/MWo5m4T4etqQ3adrc0UEsD2BLYaYh/0SgGRMBHrbbNKv5RMDtSrhQdwo0aFCfzj/3bMdv58nRY+nX33535AUl+vbtRTvvuIMlMn3GDLp75P1WWiK5QaB16yo668zTaO+e3dU557jrbbffTSPvkXeRzTcAFW2X3TtRr149qU2b1tS6qpW63T//TqZ///mXPv/yKxo3bjyv4WbPP/z6661Lt95yA7Vvvzn9/POvNHjI+fQP3zvK8Pmn77Njm4aqyVdfG0/nnDs0yualrRQRcO8giMr1cAEQgQ2rixiM1rWACMD5A5xA6BAVW9PtRXVt3rwZffjBW47mPpjwEQ066XRHnl+ifv369M5brxJmIjr89ttE2m//Q3RSrjlAoLy8nF56YSytxwOCPQgRsKMRfbxr1y50ybALFAEIav1//5tEt99xN70+/s0gsbTLhl10Ph014HCr/hNPjKarrrneSkcRESIQBYrRteHWOmN5AE7qMg15JwIVvDRQzGcNtGpcs20EsFugUeOmjvcxd87MSNZvHI1GkDARATR76GFH03ff/5D0DicNGkhnD3aSBiECSWGLXOCEgcfSueec5WgXSwJ3j7yPHnv8SUe+JKJBYNCg42kwa2DsRlvJWr58+NU05qlnkomlXO7+O7zl1jvp3vseTLmdoApCBILQyX0Z7NCaNG3huPH8eXMy3j2QdyJQv/nG1cV1i6llwzLHw4VPGKwB8mAjUFpaxi6FYyo09H3VSmZqfKZAIQY/IjCBtQInJtEKVFRUsDbgNWrcOKENwDMKEcj9m77+uquo3759rRsfejgTue+SEzmrgkRSQmC/fn3puhFXOer89dck+uzzL+mXX35jH/ArqW3b9Wi//fahVi1bWnKreefQqaeeRe9/8KGVF0UEGjkQ8k677UIfffwpgQhEbSsgRCCKNxVtGziDoG69hOZ5MTuqW84O6zIJ+ScCLbdgIlCHPQsmtkWk9kCFQQSwxxNWnTpEtXaj24vy6kcEcI9kg8mJJxxH5ww509MdIQIeSLKe8eSoh2m7bbdR9/nzz/9R330PzPo919YbtGy5Dr380jPUkI0xdXicVfHX33CLIgA6D9d6/JG+4vKLaf/9+1nZIAy9++5vpWtKRIhA4b0pty1aFM6F8k8E2MVwcZ161LJ8ZZqIFwYRwG4BrN/oEAVL021FfQ0iAh9++DGdMOg04y2xJg1tQJMmjT3lYYhA3bp1qV27DVhTskBZH2ey7aVt2/XZZfNimj17tqcvQRlQrek19alTp/EBUKk55IBKuB1bUi9YuJBmzpwVdCtjGQyvqqpa8nGiy2n69BnM5NO3+B371OPUscNW6j4//fQLHXjwEcZ7Zjsz3XcR1K+ysjJqw4aQCFOnTWeHXEuDxAPL6vDpn+3abUDTuJ3FixcHyvoVYgkGSzE6PPzI43Td9TfrpOeKez7/7GjadNNNrLIDDjqCjfp+sdLuCP4+WrVqSQ3YBmca/zaint3b7wc7nyq+16S//wn8GwgiAvgerL/+uvw7/i+tvmbyPSgrK6V127ShVexYB3/HK1assD9e0niUf4dJbxaxgFv7jF0DsEfLJOSdCDRYd7vqouISalmW7iEKhUEE3IaChXzKoJsI4INjN/w77Ihj6Ntvv/f8rgYefwydd+5gKx8DurYo9iMCJSUldMbpJ1PnTrvSxhtvpGZLaAAD4Tfffke33HIHff/Dj1abOnLA/vvRmWeeopK/sEX0KacNps0224QGnTiQdt5pB8IzIMyePYeeGDWG7rv/wUAL7YMP2l+pbDffbDPCrgkEqGz/xzPpe+59gF4b90agPUd/Vvf2778vddhqSz5aOlYfg8pC3lLlDgOOGkiTJ0+xsjFDPPaYAXTwwQcQLL11gLOpCUy8HnjgYfriy691dtLrVVdeRp0770rNmja18AShmRUnRb/9+juddEpMa3PJxUOpe/euqs05s+fSAQcljMvsN7r0kgtpzz33UFkL5i+gfv0Thp9Rvwv7fd3xPbvtQccdexTtuOP2jqIvvviKHuLB991333fk68QVwy+hLl06qeTo0U+rtfIee+1JhzDm22+/LR8AVqHe779s1Y8B/O133tNVk15BHkGAq+I7AxYuXER79dwn6eDXp/fedOCB/a32X3zxFXrp5VettI6o3/UJx1NP3vmB34oOkyb9TaPHPM2/79HG3/bOO+/ISxVXanEaOvRS+vSzz630yy8+zX5NYhqMC4ZeQp/zEsaJJxxL3ffsRltt1V55P8XvBn9/l156Jf3Bfwvu4CYC551/EbdxnPqtbLVlrA3UgUbqkUefoKefed7dhCOd7vcAjeA99Ondk5dZTqKNNmxntYu/o6+++oZuv3Mk4XfiF6L+O/S7T7bz3acSRmEwmHciULn+DryJnzUCpekxdaPHAOYGBnoQ8H4y9yPQuEkzNiCqY90D3gTxAy3E4CYCmN0ceMB+1qD+0Uef0MATT3V0HTO0t998lZo1ixlEYpdB/foVtP122yo5ExHAoHfbrTfQFlts7mjLnoBW4A7+A3ZvPYQ1NKyiETDzPua4QfT4ow9Y97e3gTjWSE/gPru1DBgArhh+Me3Tt7e7iiONZx508unGD67bKMtR0ZDYu/d+9DfPtBAwMwQGe3XvZpCMZeFjfNbg80IPTnfdeQt/zLv6tvfjjz/TQYccqcpvunEE9e2zt4oDx9336GGsd/NNI/gjG5MDMdx5166WXFTvwmrQJ3LE4YcQCIlfwLsdfsU1RsO7O26/iTDwI7z66uv05lvv0E38THVsntjs7aays6I9/36f49m9DlgSuDoi6/ytt+5AD94/0iKn+h7268uvvEZDL7zE89vco0tnuveeOyzRk5n8vff+BCttH8Qvvfwq2oSJuH2XgSXIkeXLV9App55JH3/ymT2b7G28+eY7PANfRb15y6RfuO/+h+hmJvemkMn3AO1dzDs1Bhx5mKlplYffx7lMVPD+3SEbf4fue+QqDa0kvAzqsGbNavZem5pmVNfV17wTgYZtd+JjiOtQi5KaTQRgyQnGqkOh7hhA/9xEAB9F/BENPiuxJHD4kcfSN998px9HzdIuOH+IlT74kAE8AznHlwjgxwrioGdRqIiPzU8//0ybbrKJ48MHwoSB3s7m7YMP+gZHJlinhY9tzOoQh2rSHs4ecgGNe/0NexbdcP3VtO8+faw83AuGXU2bNWHVaCsrHxFs9XITkr333otuu+UGSw5LAp/wxxLaDfusBLPxu+66l2eJC+jd9z5QqmxgcMP111gDsW4Ee77Rj80335S3m8bO2EiFDOSTCGTyLvTzm64mEoDfC0JpaYlVBfe/fPg19NRYpxW+nQjgXTRmQzpgiyWFGTP+o3XXbWNhjcagSgZhw3JBsgASd+cdiWWAqHYBmEgAfhdLlix1/H2gf9AkDL3wUsfkIhUiMG36dOv3PmfOXIULfFDYv1kTJ/7BW4APddzDTgSAvV1+2bJllu8KO4Y33HgrPfjQo/Ystcsik+/BbmwQ+dADI602Z82aTZ999gVrespphx22Z0daDVQZ3mv3Hn0dy3bZ+ju0OpPjCN6BfecA3gvGm0xC3olA4w124seo2USguF4DatwwYSiIFzJn9n+ZvJes1jURgUcfG+XYDYAZ9sATYqp5rMe9xYN682YxdTzUs1DVj3riIV8iAGcr9917p/Uco558ShlWYU0c6sHevXrQtddcYW3DgobB7sfATgR0I0899QyNYLUuPu74Y8BM3U5e3OvkWLaY8P6b1kACFSjugS12qI8P8Z2332wtM6Dd7Xbo5NAqjLj2SsKyAAIwOenkM6w11QMP6E9XX3WZKsNAvsNOndWSh8rg/5x+2kn872SdpLFjn6WR9z5gDT5YW7+LBxiQCgR8xLru2Ys9AwbvNsGOjdLSUrpn5O20xeabqbrQyECjgQDrdd1G1BoBdQP+T6rvQtczXaHifvTh+6wifOQvuexK+uCDmJV91z12p+Gs1dG/P3z4sPzy1dffWHXsRACZwPKaa2+gsU8/pwY2LOdAjW7XzCRb59eNu0kKtGXQIGUSMHC989Y4awDDO8NMGtsM8TvcfLNNCUtAUOHrcOttd6llLJ1OhQigDpx+nXf+MItw4/c38q7baMMNN9BN0sm8u+E9JrI62IkA8rCc9uCDj6jlOJDzZvxNwLIbfuua1ELOjVGm3wMsSWJpEgG2QT177Wv9xrG08twzo62D3qA1wpKKDtn6O9Tt5+PatNk6jttmOt7knwi021lp8ZvXS9cYyLAIwFmGXAdwzkRmSwO1gQjAE90JA5370o8YcBx9/fW3dMzRR9KFQ89VkOEjfCCMnn75NZAIHH/c0byOvZuqs5j/cM+74CLHIImCu++6lbAmjICPVNduvVQc/3ETAayhH3X0QKtcR54a8xht3bGDSmKGss12u+oiwiwCz6TDNazOda+DYu1+6AXnaBHqufe+BO9wOrz/7nilfUD6VCY/79jWqPHh++C9N6hp0yZKHP3Ta/116hTTu2+/Tuus00KVwaAJVuNu40B88F94/iklg//ACv2hhx+z0kGRMMaC2SAC6byLoOe44zZW6/eIqfUhp3939jo77rAdPf5YYo881L/nnJdYRnATAWh2oOGxBxCo99553ZrFusmnXdYex2/5/PPOtrKS7ayxBAMiUHFD1a2DyQcA7HbGj3vR2qqLv5Hue/WxlghSJQLHHneSw4YA996d/0bvv+8u3Q268abb6AEe6HVwE4FrR9xImDS4A8gySLMOWJo548zE31Wm3wP7sgCI0lHHnEBYAtMBWNXlZTiEZTzZ0Eahufg71H3I5bUWEgHWCPChQy1Kl6eJo2HIzzERQMdr+tIAiABU7W+98Yq1Dv/Jp58T1h2RBz/2CFgnPOOs2B94kEZACdv+AxsDLBPArkCHo486wrEPHoM4BnMENxGAa1O4OHUH7KOGZkCHTrvv5buTAAM3BmbsetAqTtg4aJKDNjDjt+/3fv21Fwj+1hGuvPo6GjVqjIrjPzDWe/edcUrDgbTdNgAz9eefS8g+8+wLjpkW5HXA8oVe5niN3dIOOWeoLgq85osIRPEu7A/25ecfWqpwLEdhWcoUnhrNpI+1OAjQeOzWOUEe3ESgc5e9CJoFdxg96hHadtutVTY8//XZZ3+3iCcNXw3w2aADCIhpHVqXh7naSTBm2dttv5uHJKKdIWefyQayx1lN7sNbRDWZTYUI/PWXefsiDOi+//Yz6+8BGgksfehgJwJYRtmrZ1+LiGgZfcXvXWuoMFhvy8/kF1L9HrifFe1CCwajz/c/mMCk4Cdjv3Lxd+j3jNnKr5VLA4022LEa62Ity2r29sGabCxoN5xyz5Ax+GpjM2gD4Eb499//UL/xZEQAM2VoE2A5rdW6QX8cO+68O8EiG8FNBLA1Dqp/dzjyiEMJlvE69Ot/sNU/5OFDh/3cxx49gAf09a2lCC3vvp52+tkOoz27jQE0BfhIfv75l2rN+ZSTTyQ4mUHAGmy3PXtbzXVjTcdI1nikGr7+5ls64sjEhz+ofr6IQLrvwvQs2Jf/+WcfWEXPPf8iXTTscittj1x79XDH3vytt93FGjztRGDJkiVqicdeV8dhuLl3z71U0m0UqWXc11123okeefheK9utorcKUohACwRtEAJ2mGAXgilgp8oIXkLT4UTe2oudJgjuwTHIWBDqfqj9TeGTj961tgTbiT5k7UQAgy7+PvwCdm5gl4YOO+2yh9oqrNOZfA/QBgjR2YPPsEiLbhdX7GB6gycp0KzYtxTn4u/Q3o9cxGHzUAuNBXdgjcBq9iOwOk0MC0MjUJO3D9qJAOwB3hyf0ADYX4p7thpEBKBBePbpJy3VuL0dv3gQEYBaHbMadzj0kINo+OXDrGw7EYBa8P777qbddt3ZKk8WcRMBrKM+98yT1pZB1MfWR+BkD24DKVhW33LzdZYICA4MHZOFb7/9zveD7a6bKhHAVstOu3d3N6PS9hmqe4B0k7J03oXxppwJdf2nH79nFWNN/1K2DzCFK6+4VK1H6zLMODHzRLATAWgCoBEwBftSifs5TfLIg63JRxPesrb2YWstttgmC/iN6O21kF22dJnyP4E4tvZtssnGiKodJtAmmQIMXUFGdbAP9qkQgaADg3DuCOyGEIKIwBtvvE1nDo4tEer+2K929T3yobHRtiqZfg/0fdq124Bgs4ElRRz25A4w5j3rrHMJ2kyEXPwduvuQ7XTt3D7IfgSqq1dTq/qGAT0UooZ6nGXIDWgtMxsBNFyTHQrZiQCexb1+iTxobfbtdxD9+b+/kFQhiAjcc/dthMNZdIAPdHzkMRjptzN2zOMOhytREwHsR7fvdMCs6OZb76ApU6bxoBxzJHT+eUPUh0X3000EkH8xb2McwNsZTQFaEqzrw/DMHrbZpiONeTJhOX36GUPorbfftYtkHA9DBLAdDx9OBKigO269k5GQvMJe87TRonuAzCYRQL++/foTa90e2pajjz0R2Z6A7aM77ri9ynf3MZtEADe0EyWkYSzr59MA5QjugfGyy6+2djvAkBYGdAgwNIV2w0QUYWwKYzcd7EQ310QAW2L9CAv6Z/8ewFgTz4S/D4RMvweqEdd/4BgMGMK+BFobHeyai1z8Her75upaKx0K1W+zNWsE1lDryqI0cTQM+ZxlyA1oP3MiUJNdDLuJAKz63xj/ksNfOvYyw+LYHux/+HY/AlBdffn5BOXEBfKYyffZ5wDro4C8Hbbfjp54PGH8hbyoiYD9YwsisycbWsGbnw7wMQBjP+1gCPluItBr7x7WfnSocP/HzwI7g3//mawcIn3+xZcOoyXdNqzUMYvEWiiCCT/kb8iOUTp22BJRFbAzYebMWToZeA1DBNyGbiZDPFimP/3UE5bK1T3IZpsIPHj/3dSJHU4hgKzsf8ChjuUd5GOt9xnWzGi/ADDahPGmDtkmAm4VM34LULX/8cefuguO65ZbbkFPsHGjtv3AwNi5Sw9LVY7Di4awmlsHt6U78vHbGffa89a2v7lz51GXrj0tl8a5JgLoE/wZvPDiK4g6At4f3qMO2NqHLcEImX4PgEO/ffvopum33yc6ztRA+2NGP2p52cS205126aKWjXLxd2h1LEeRWutiGFsXWlcWpwmjYcjPAxFws7SadOiQmwjgRRx26EF0+WWxgR8f5z6smseMwB78iACIxBefTbC27WG7z57de1tqUfxhj2SNwa67JFg82o2aCDz2yP20E3sh1MFtNT3k7DN43fF4XayudiKA2QZmgjAyxIf8yAHH0w9slBQ2XHP15QSvfDrAox0srkFKEDCjGT3qEUstO2XKVOrVp7/1oVdCAf8JQwS679mV4HdAB5wueQoPYFplCyKCQdTuEyHXRKBnj+50+2036i4q4giDyV9+/U3lYVC9+cYRfKDP+paM26gz20QAN8ZSj92ZDgxbsSYNt9yT/v6bZ/Rr1Fp7//32pVNOPsGxLIDBE4OoDlDFv/v2OGu5AX8jl1x6heUHA9vyrr1muKU1QD3szccSlA75IAJ4ZvyOod2DBgPLb31692I7nQsczwvHPq+8Mk51NYrvwYvPj1WeRdEgtv/25YnF7DnQLsbCgw+MVIcvIQUiDcKktRHZ/juMdyFnl1p56FBF6w7VRaw+qqrhRKAmH0NsIgIY/LA/F2E5r4lrS2X7r92PCEDm4YfudQz0mEHBGh/any7sEW399ddjxr7CIguoEzURgDHfWWeeiqZVwAD34YefsO/6acrtLA7scffBTgRgIGZXOeLDArev//zzr9Is/M6zwV/ZORH8E2AfuDtgffjhB+8hDGQ6oO5PP/9C6627LrVvv7nDeNH+8dTyQdcwRADv8bVXn3e4NsbWql9/+53K+MRMvGPI2N1F55oI4BmxPQ/aC3vAbwazPTi+sQfT1sBcEAFsUQNxs++71/2C3QiWm7T7aZ2PK8jXMccOsnbE6DL4NLj1lusd++8x658zd67aqaK1H5CH34JT2VDPvv00H0RA9x2/d7yfqqoqj73MU089Q5fZdh6gTqbfg8MPO5guu/QifXtlVPzhRx+rv0X8jerdJBB49rkXaNjFwy3ZbP8dWjfKQcS9YwC3rB3HELfeqhp6/JpOBPBC3AaDOAgCB0IUWjA5FML2wVRDEBHAbB+zaa0adbeN2e91N9xMt9+amAlGTQTgOfDRR+5TpMN9f6Qxy4fx1d3sVEUb/9mJAAzZ4ObY7pnQ1A62VWFmaPIjD6t4zFY62NT/7jYws7rp5ttD+w/Q9cMQAcjCh/2tN1/vIB26DVzhjRG+2vW+9nwQAfQD9hyw6wgKJhIA+VwQAdwHy0g3srdIu/0L8v0CtkOeevpgwgBvCnCLDDIAF7h+wUQCIJtrIgCDQ7gJDvotYwkM5xporZd+pky/B9j9cwGTRT9bHX0feEeE/QZIij1k8+/Qfp9sx3GwHezRdIjinAG0Ba08n+agm016VZJGcWNm8vbqV23FLoaLqFWD9BowWgPkYWkAT+peu1nBZ0Qv4rOiCy3kggjgmXFAD7yjbbzJRtbaLqy8MehccdUIpeLD9iQdoiYCaBdblq5jRycwMtPr9Vjq+Omnn5U7YRgQ2tWOdiKAjzOWMLRRFz4usBFoXdWKtw+ua5EH3X97XZ2HK7zInTvkLOrL5x3Y7RFARODueMT1NzncOdvrBsXDEgG0gefHNjS7pTVc78KAEU5iOnfeTRl0QTZfRAD3hj0C/Etg2cQeoInBoUPwzmgKuSICuDe+VxiEsXwG7Ra0FvaA39d3331PI9mpkd7qZy93x7G+fvqpJ1n+DXQ5VODYTgmNnV0ToMtzTQQuGHoxjeedA8P5iOXue3Z1/JZBdMY89TTdyW62TUaP6HMm3wP9zCBOp7Hx5MYbbejRpLzP5yzgu4Lto6aQrb9D072yldegQUMqYU2eDlEddy9EQCGaubEgmnGzNeTNnTMrzraQWjsDZtubbbop1albh77//kfLRW8u0cBaZrt27ZSh3/esqsWabLJw2qmD+OTEU5QYVOnHHjdIkRdkYDCAah8zbT1offfdDwSvc34BOGzQtq06avY/Xsf8/feJOccCx9xuxB9RaGQwuBZiALZw4oQlASzHwCsj7FP0mm8h9RkaLzjKwj/0b/K/k9WxydgJkGrAu8FvqT4bscIvxV9//a20Vqm2kwt5vKMN222g+gsDXBBkENswIYrvAZazQAawLXEiL9HZjYCT9aEQ/g6T9dFUXlRUzI7rmjuKotI6FwAR2JKPIS7m7YM1XyOAP47Kho2ZqdazXtbSJYt4r7OZoVpCEilIBOwzbpw2h1Pn3AGz14suPE9lw1cAtBoSBAFBQBCIGoHy8grC7jQdsCywcMG8SAhygRCBOkwE9OOlei2MXQO61+6XhbUyHEksoeYh8OrLz6rZM3ruNkDST2Nf18YhONhZIEEQEAQEgagRgDdB+zJUlJPMvBOBitZbVhezyqM2aATw4rF7AMYcduOfKF9Y1D8uac8fgSt4LfSQQw60BLDHHw5vfmarf2xl24UNIu2n2ZkOjrEqS0QQEAQEgTQRcE8wYYeBZQHtGC3NZq1qBUAEYsaCVbVgaUCj6nYuhLXD+fNmeyxptbxcCxMBrPvCKYzdwM6vpxMmfESDh1xgnXrmJyf5goAgIAikggC0AI0aN7McfqHu0qWLaemS5HZOYe9TEEQAnW3dwGl5G/YBCmnXgO5zTCvQUGkHdF6h7iDQ/ZOrGQEYrJ15xqkED4MwMnIH7Ml//oWXleW9n7W0u46kBQFBQBAIi4B7pwC0AIsWLohMG4B+FAAR2FJt9mvdoG5YXFxyhWUjoDtXxoYd2E5oD4sXL2TnPLFDUuz5Ei98BLAPeSv2BQD3wjhJEVb3P//yq3JoUojW7IWPqPRQEBAEkiFQWlbOTqoqHWJL2AAd2wajDPknAlXt1UjeurJ2EQFs9ajfoFJtKbS/sAXz5/KWMa8XOruMxAUBQUAQEATWbgTcpwwCDTioW7xoYXwGHx0+QgQUltH4EXC/lnr1ShSbK7Z5DVvDRh4LFswVewE3WJIWBAQBQUAQUAjALgBnCrjHDmiVV64M568hFSgLgwiwC4HatjSgX0JZGS8R1HcuEcT2f86PnNXpe8pVEBAEBAFBoGYiAG1yZcNGDn80eJIli3lJYFm0SwIaobwTgfq8fRCdqWrg72tbd9Z8LUwbAXtf3a6HUQYygO0fbp/c9noSFwQEAUFAEFh7EIAmANvP7U7p8PRRuRL2QzLvRKBBmw586FA1nzWQz10DMXjgGTAbAS+3vKI+n7RX7mgeywQ4i0BsBhywSEIQEAQEgbUOAQz+2CFgXw4ACMuXL1VbBbM1aUzH2FmNlMbh0piZ9F0WVbbpyP0AEUivgWi2D8b6mS0igNaLi+vEyUDiwAiNjuwm0EjIVRAQBASBtQ8B0+4AoLCcD66Dv4A1a1ZnDZSCIAL1W3espjXVVNUwXSIAfFzLA5x05YQCMZtEAB2IkYEKj2YAZfAzgG0h2WJ9uIcEQUAQEAQEgcJBANpiLB3bTxTUvYtpApZklQTgXtERgfTH8KLylrw0wMN2m0bpLg2oR9HYxa5pEYHs7BxwdgxkoJgd01QQ/Ay4A17IMniMiniPqPs+khYEBAFBQBDILwJwG1xWXt/hMVD3CDYBMAzMxcQwVfsA9FEN+Z5x35OhHyfptaj5hruwjQBR43qZWEO65v/pEgE8XpbsBNxIlLGjiFImBPYzCbQMXv5y/hEsW7ZMdhZoUOQqCAgCgkANRwA7AsrKytS3H5NCd4B30ti3P0eO53jyqQbg2NDu7o5vOnIisEHHnspYsO7yGb43TV4QDREAz8n28oD9WeBnAGtDJSVe17VaDksGcCKBvaPpqHB0O3IVBAQBQUAQyD0CGFPwrcd33rQEoHuE7zw8z2bDT4C+h/saG1MwfqY2m4+cCGyxU381f1857y93H1NIe4kAKrtyk7QXkwZjy2XAjwRkoLS0zHE2gakPq1auVDsM4GsazBEGJHiRQhBMaEmeICAICAK5QwDfcvyDLRg0vThzBjsB6tarF9gJfM9hFAgSkOtveWxZAN0LTwQsSSuiH8+ToQuSXou22vVApZlYNmdiUmF/AcOQz1mGXP8mLOncagV0h/CjKSllxlgCQpCuTwXdmlwFAUFAEBAEChkBTOZWrGCN7/LlkR4gFPaZE9oA1Ag/iCtJo7gxM1R3irbufKgarxf/90uoCmYhw5CfNhFgSHKsFbA/kyIEJSVUj9VIbqcSdjmJCwKCgCAgCNQ8BOA3ZiUvA6xYsSIvBEAjltAGICf8IJ4VIrDN7ocpG4FFBUQEAApUPPkMuH9dXleqF1ctCSnI59uQewsCgoAgkD4CGPyxtLtSXfNv7+XUBuC5wo93WSEC2+1+OO/bI1ow/af0UbbU+rYmMtAIKFjyqBWwPYUVja031VVepxCHxSn+QXuRb9JidVIigoAgIAispQhgcMUsG7u+8A9r//Aeu2oVbLpWFRQqTm0AupZnIrBDlyOrMfmeO+2HDICKdmkg1pH8awUyAESqCgKCgCAgCAgCHgS82gCI5JkI7LLHUUwEimjm1G89HQ6fkQ0iwNAUmFYgPB4iKQgIAoKAICAIeBHwagMgk2cisFvXY6uxYW/61K+9PQ6dkx0igNsLGQj9EkRQEBAEBAFBoIARMJMAdDjPRKATEwFWwjMR+CoD+LJHBACQrMFn8GqkqiAgCAgCgkDeETAvCehu5ZkIdO52nCIC06Z8qXuUxjWLRABN89KFkIE0XotUEQQEAUFAEMg7AooEsDGj/8Q/z0RgdyYC6F3BEgG8QiEDef8hSwcEAUFAEBAEUkcgOQlAm3kmAl26HY9hlqZmpBFAC6oZRGKBk64cXeJzDZCOFymtALY4SBAEBAFBQBAQBAodAbsL+sChK7DQ8ZRK0iPuyXDUSZYoAhEo4oF2ytRMlgZwG9dAzklXTpK+BEjHi3ABGZBlgiRQSrEgIAgIAoJAXhGAJgD/rCHaipi6FVjoqKAkPeKeDEedZIkaRwTwQEIGkr1WKRcEBAFBQBDIFwKaBOD+1hBtRUy9Cix0VFCSHnFPhqNOskQBEQF01UcrYNMI6AfCCoFsLdRoyFUQEAQEAUGgEBDAFkHYBepgDdFWRJfoq2+BFnBclbSniifDUSdZoqhL17iNQN6XBtBVG3r2nhuIAGSx7VHsBuxASVwQEAQEAUEgLwjElwLUcb4JPUAi5jtW+xYYH0NJe6p4Mox1/TKZCGDXABsLZuRHAC24BnFOunIglCT41IhnO0sTqdhSAdwiSRAEBAFBQBAQBHKLQEwLkBiTbAsCQgTwKuzQJH81AdLxooREIqbblQOANBJyFQQEAUFAEMg2AjFbgDWG28Rm6NY83YoYRBNUwVToyLOasSK62JOhC0Jds6oRQA+8w3VQvwKk40VOCWdKtywaAo2EXAUBQUAQEASiRsCrAbDfITEoWzErYpfT8cBCLaSulqQV0cWeDF0Q6lq0B28fBKuJfGkAt+dx2jxU+/UtQDpe5JRwprytxmwIYq4HMgPK27bkCAKCgCAgCKwdCGArII9nygow+bijMbFGHSuiS+zXwEK7YEx3YBQ3ZjrqBiUUEcBoHbkfAdwVwAXd3VjmUyOe7Sx1pozNIRNiCicQA2TEQFOGhkhKEAQEAUFAEBAEGIHYYA8oYoO/GkCsMSQMRIlB2YpZEXd93wK3oEoraWMVY6axDVPm2kME1NPHiENI+hDHyyZti5rA1HkhxbS465pZbVdjkhQEBAFBoIARSH8AC13TIehIBOKSkIzHEhmB9fREE0JWFSvirupb4BZUaSVtrGLMNLZhyqxxRAAP4RwqnSnTQ6o8JRaTDVkj3pRL2pX0u19IMb/qrvxoW3M1LklBQBAQBHKAQGaDlb2DoVvyCHoy7M064glJjiUSDhlvIiGYiLGUI2Gv5VtgF7LiStpYxZhp1UsWUUQATUzO+KwB3Mo1YHHSlZOsP9427DXijTnbdKbs4o64EkvIJmIOKZ+ES9qV9KmkslMQDWomoCz7dwi4uRQJAoKAIGBDILMBydaQMZpS6x5hT4bxHsh0SnLKmeFbzy5oVbEipmqBhZ4KStpTxZPhqZcsI6YRYKkp2SAC3K6yrUjWC0d5wMAWL3JKOFOOpuwJSywWsZJ2mcC4rYYtGljFVphGFVttiQoCgoAgsPYikNZQ56jkSCQFMiEdjyUyktRNCFoxK2KqGljoqRCzcXNnp9aGuzbScSJQzUTgK1N5inmG4Y6zDLkB7QZIx4ucEs5UQMPxjiTkE7HAWvFCl7QrGaYFyKRZLWzzIicICAKCQK1BIO0hzlPRk+GLkVOSU84M33qxgoSwFbMipqqBhY4KStIobsx01E2WUEQALhGnFgwRQJd9hktbti3qL+9+eqtSLGIl3XK+aVcNV9K3mk9BhtV9WpVsQUAQEARqLgIZD2ueBjwZgeAkpOOxREZgPTtjcFRxJOxN+BbYhay4kjZWMWZa9cJE1KFDGHhrBBHAE8VHT+cg6kwFPrgSTcgnYoG1bIWGGoYsW4XQ0YiaCX0/ERQEBAFBIN8IZD6MxZ/A2JAx0/eRndKccmb41osVJIStmBUxVQ0s9FRQ0sYqxkxP/aCMWkIE8Ighh1FLLBaxkkEoecoMtQxZnmppZmSx6TR7JNUEAUFAEEgNgcyHq4D7GRs3ZgY0Yh/343VDN+EUtFJWxHTbwEJPBSVtrGLM9NQPyoiYCOBWrmGLk66coP7EywJq2IpsUe99g+6iKiZqJ2JBlUxlrpqupKmG5AkCgoAgIAhEiIBnHPRkhLqZsxannBlJ2kgIJ2JcxZFwNxFY6BaONeWp4snw1AuTkX0igF7wAJn6GBlQI17klHCmAh/eErUiafRP3yHRhs7JoDGrCYkIAoKAICAIBCBgHAONmQGNxIqcteIpZ2aSNhLCVsyKmKoGFnoqKGljFWOmp36yjFpEBPCohkHZDwFLNBaxkn7ygfk+tX2yA5uSQkFAEBAEBAF/BHzHPt8C/7biJYma8VgiI2ld97TfqmpFTE0EFnoqKGljFWOmp36yjBgR4AFr6tQvk8mGLDeMfpxlyE3SXkANW5Etyu05U0luEBdP1EnEktb0EQhoIaDIpzHJFgQEAUFAEAACgeNdYGFS/Jy1OeXMSFrfXsFR1ZFwNxNY6Bb2WRaAWGrteBqOZ/AxxAN5iMLpg4VGBNDDgNEzXuSV8Ob4PXyi+USdRMy3VoiCEK2EEAlxIxERBAQBQaD2IRBqfAslFIiNs4V4ypkZWN89EFtVrYipemChqUIOiEA3JgLqGOKoiACewzDKcZYh1/jQicyAGrYiW9R870SD3phV2Yqk0U9vs4mcRLuJvIBYiuIBLUmRICAICAKFjUDKY2LKFXyf39lSPOXM9K2bKEhUSMS41JFISMdigYVu4ayTANyQlwYKmQigiwEjY7zIK+HNQUu+wRK3IkF39W0mXEHiHuHkfaQiasandckWBAQBQSB9BFIb6wLuE1lDjns4W42nnJkOeXPCWcFKWRFTrcBCUwUhAjFUAkY8W5EtytWcKSO67kyrihVJpxV3q0nSiXslEZRiQUAQEATWEgRSHyxTAcbZejzlzAzZXKJSIsZVHQl3U4GFbmGVVjWM1YyZxjaSZRbtHtcITIvMRkDf0jXIcdKVowWTXJPUihd7pbw5SW5k66CzrjOVtJWIBfJ794gfRpoTBASBtRqB6AavVGH03jme4y0I0bSzkpWyIn5NJBXwVFQ1PNU8GZ56qWQoIlDEY83UqV+kUi+ErGEA4yxDbnpt6Vq2Bm3ReKk3R1fzvVpVrIgSdaZ8a0uBICAICAKCQIEh4B024zneghA9d1ZypBwJd1OBhW5hlVY1jNWMmcY2wmQWddkTNgJFfNbA52HkU5AxDJ2cZcgN0WaSWrZiWzTerjcn6Q0dVRyJNPuf9I4iIAgIAoKAIBAxAt7h0pZji4a/rbOSI+VImFpMKuCppGoYqxkzPfXDZmSRCKALzkEUSVdO2H5623LXjDfsbd+b467qm7aqWhFL1JtjFUlEEBAEBAFBII8ImIfJeK65MGRvnZWtlBXxayapgLGiquWp6skw1k0ls2iPPU9QY9qUyVFrBNANw3DJWYbcEH1OUstWbIvG2/XmhLhhTMRR1ZFQ5d6c0C2LoCAgCAgCgkCECJiHSFuuLZr6bZ2VHSlHwtRyUgFPJVXDWM2Y6amfSoYiAkVs5jh58mep1EtB1jVUctKVk35b7pq2hm3RuJQ3x109MO2o7kioat6cwNakUBAQBAQBQSAiBMxDoy3XFk3vls4GHClHwtR6UgFTJZ9tg+m1ZbyBLbNoj+6Dqou57X//+dSWHWXUMERyliE3xE1D1LKJ2KLxtr05IW7qFHE04UhYcuZcq1gigoAgIAgIAhki4D8k2kps0fRv52zEkXIk/O4QSshRWdUwVjNmOuqmkyjq1mMQmwoW0T9/f5JO/RB1DMMiZxlyQ7QFkRA1bSK2aLx9b07IGzvFPM14Mix5/xJLRCKCgCAgCAgCAQgED4GuUlcyoNkkRc6GHClHwq+ZUEKeyqqWsaox01M/1Yz/AwAA//8ElE4TAABAAElEQVTtvWeYHdd95nmqE7rR3cipkUHknAMBEAABEpkIJBgsyTuyZUsOGiWPtM9qZ+3Z3Wfng2c/+fGHnZlnnpFsy5ZIiiJBgMg5kASRCTQSkXPOQKPT3fPW7VN9bt2qunVzqPfYRFWdOvFXV33e+p//OWXMnf+DUJEQ4sKFz+W/6Qqh6IJllENsdDrHmBg5bbdtl7LE6BjHavxGRhUXFeFYkr9UjlkZSQIkQAIFScDw3StbStul72JcE0YWGHklM0VF2AuKmcCewbw2czlmdYx0LCPeSGPu/L8IGbL8i+f3xps3jvQOQ56Mcoj1WaaPnLYktktZT3SMz8q9kzkW6xjpXY6Pu+kp1UfFTEICJEACLgTSOFxF15i2yiILjrySzYiKiG6az0RRGc2iHct3jIzKn0hE9oQAWitHssQHMx85bUlsly28nGMTgemYx7N4z5uOxTGSBEiABAqbgMeA53ErNUyiK4iKiYpwqtlXoqiMZi7XrK43osqJN0IKgb8MCSMkLqXVIoBmOQx6MsohNo4++MhtS2K7bKnLOTaOhsSfNOkqky4g/jYzBwmQAAn4IpDkoJVkdl9NjEoUXWlUTFREVCEywlcip4zhnI7ZHSMdy0gkskUICCkE9iSSP448LgOXjHa547NsH7ltSWyXLfU4x/psRGaS5UETMwOCtZAACeQNgfSOYSnCEN3IqJioCKeqfSVyyughApA88XIdK7NFhoVAkSEundttu5WOS4eRTEY5xMZReRy5bUltly11OsfG0SAmJQESIAESyAsC0QNsVExUhFfH4kocUZCZ0zG7Y2RE3mQvjLkL/kpODUAI7Eq2LB/5XQZZGe1yx0eZSBJHbltS26VWn/sdLRFPSYAESIAE8o6A8+AaFRsV4dXRuBJHFGTmdM3ueiOijGQujHlSCGDZQGaEAJrqMMDKKIfYBPrlsxSHZA5RLfW730mggcxCAiRAAiSQNQLOg6pjrGOkU8N9J3TKbMaZJTgW4xjpWk6iN4x5C8MWgYtnM2ERUM10GFxllEOsyhDHMY5SHJI6RGl1e9/VEvKUBEiABEggJwi4D6aOdxwj3ToSV2LHQswSHItxjHQsI9lI4/WFfy0tAkXiwtkdyZYVR36XAVVGu9yJo2wkjbMUh+QOUbY2xE5hy8BLEiABEiCBjBDwHkQd7zpGejU27gxRhZkluBbjeiOqnGQjjAXSIoCpgXMZtQig2Q4DaUuUw50E+hlnKS7JXaJt7fGXypaJlyRAAiRAAikjEHvgdE3hesOtcXFniCrIKsE60ZM4RuoJUnpuLFr4l6EmuTThXEZWDehtdxk8ZbTLHT2zz/MES3LI5hDl0Yb4UnsUxFskQAIkQAKOBPwPlo4pHSMdK7JFJpwxohyzFNeiXG9ElJGqC2PJgr8INcs6z5xL5xbDbs11GTBltMsdt4JixCdYmks2l+gYbVC3k8utSuGRBEiABAqfQOIDomtO1xuxaCacMapgsyTX4lxvRJWTqghj2YLvh5rk1MCpc+n86JBXc10GRhntcserMI97SZbmkd3jlkd7Er2V2doSbSXzkQAJkEC6N8LRCXsOn5439VLczpMuwCrYLMm1ONcbVv50nBgrF/y5KQRqz32RjvJ9lOkxsMlbHnd9lG1PkqLSfBTjI4m9cbwmARIgARLwQcDXcOkrkY/KUrirn9kkz3Z53vTT2ITSGG8t/LNQs8z69bl9CRWQmkwew6a85XE3wepTXGKCxSWYLcE+MxsJkAAJ5D6BhIfChDO6MUltgWZpnkV63nRrZErijXcW/qkUAoY4fO6rlBSYeCEew6K85XE38SrTVKrZoPQ0OK6+5kAT4movE5MACeQ+gewNVxqbtDYi9YWbJXoW63lT63h6To13W4TAoawLAXTQY+iStzzuJkknfSW7NiwLVbq2hTdIgARIIJcIZGVcTE+lZqmeRXvezMhTMd5Z8L2Q/NiAOHQ+m1MDel89Rkh5y+OuXkgS5+mvIYnG+ctaAF3w11GmIgESyBqB7I9fKeh6ejthlu5ZhefNFPTPXxHGO/P/LCwELnzpL0dGUnmMZPKWx90Uty5zNaW44SyOBEiABEjAkUBmBt98EQFAZLzbYhE4mDMWATQrxgCcUTGA9iDEaFM4Ef8lARIgARLIOQKZGfxVt2OLAKTMbJtU25yO0kfgeyERMsSBnBICqqkeg2/LLY8UqpA0HLNTaxo6wiJJgARIoEAJZH6gtWq0TpzQet50ypD2OOO9BX9qTg0cOJ/tVQNuffUYdLMqBpza69FWp+SMIwESIAESSJJAbgysViusE6dued50ypCROOOPpBBoluPXgQv7M1JhYpV4DLA5JwaceujRfqfkjCMBEiABErARyM1BFI20Wmad2JpuXnredMqQsThTCGCY2n8+l4UAeMQYTPNCECT7XGMwSLZ45icBEiCBlBPI3QEw2a5aPbNO3EqMmcAtY0bijW9LH4Fm6SPwVU76CNgZxB4Iu3btYWZSKW/fumEvhNckQAIkQAIkkDABa1i3TryK8pXIq4C03zO+s0guH5RC4MtzubR80KvfaohvTTNi1HjzYsSoca2R2tntmzfE8WOHBEWBBoWnJEACJEACcRGwhnTrJFZ23wljFZTW+8b/svj7prPg599k6+uDifYvLAggAtwEgL3k2mOHxfGvD9mjeU0CJEACJEACrgSs4dw6cU3acsN3wlgFZeS+8e+W/mXIMIrE7lO7MlJhKiuZPXeh6NotPBXgt1xYB7ZvXec3OdORAAmQAAkElIA1nFsnfkDEldhPgWlPY/zJG38thUCx2Hlye9orS2UFTiIAb/wItXIaQAkEWAzUuaqfYkCR4JEESIAESMBOwBrKrRN7CqfruBI7FZC1OONPl/1ICgFD7DixLWuNiLdiTAXo0wGY+4cIuH3rumNREAJ2QYD0tS3TBNFeB47FMJIESIAESKBACUQM4xEXsTocV+JYhWXlvvFny38svzlUJLbXbslKAxKpdNV737WyQQTs2Lreug6fOA/tq977k4h0H/72f0Yld84ZkY0XJEACJEACBUAgYgiPuPDTubgz+Ck0K2mMP1/+E1MIbKvdnJUGxFsp3u4xLaACRID7aoDIYd3uWGhaBeQ0QkSIzBJr94KIrLwgARIgARLIXQJRQ3dUhJ+2J5TJT8FZS2P8YPlPpRAwxJY8EQK6b4CzNcCNZXiEnz13keUz4CgEnLLbxAGSOEQ55WRcjhIoLi4WFW0r5U/fEI8fPfTVyurqdnILsfAfgcaGBvH8+TNf+ZiIBEggswQch2rHSL/tSiqz30qyls74C1MIFInNtZuy1oh4Ko49LeBdmt2/wJoe8M7mfNdDDTjdKi0tFWPGTY4o6+yZk+LBg3sRcV4Xffu9ZAkZpMNgBEHD4I9AvwGDxPCRY4U5qMsschMN8eFvf2VmblNeLsaOnyK69+gpbt64Jo4c3CdevKizCl7+1rdEWVkb8/ryxfPii73brXs8IQESyBwBz2HZ82Y8bUxZQfFUmpW0xl+t+JkcswyxMQ+FgPe0gDPPlAoB5ypczQXl5RVi6cr3InLduH5F7NruT4SVSCGxZNnb1mCEgh5KEbFx3ScRZfLCmcDAwcPEhEkvR9zUhcDI0ZF7UmDPCV1kUQhEoOMFCaSUQNzDbtwZ/DY3bQX7bUDG0xk/XIGpgSKx/ri/wSjjLbRVqFsEwqb9+N6Go4XAr1pqcHqHt1We5KUpBFZECgEUuXXjGnHv7u2YpQ8bOUaMGjMxIh2EwCYKgQgmTheYAlj+1rcFxJQKzc3Noq7uufjsk/fNqLETpojBQ0eq2+LUia/F14dbv8GxzGYR+HLvdistT0iABFJAIGtjcNYqTgG05IswfiyFAKY91xzPj1UDifsIhGH5y58eUeAmBG5cvyp279jo+TRLSkrF4jekNaBN2DStEptCYD0tAoqH27GqqlosXLrKun3l8gWx/8vdorGxwYqrrKwSk6fNEp27dBN379wU+z7fKZ49e2rdX/amNjVw6bygELDQ8IQE8pBAsAd//YEZP1uBVQNCrD6+VY/P2XP3N3p/TdYtCok4G/qrxTmVmxBA6q2bvK0CQ4ePFqPHTooqmEIgColjRLfuPcWsVxdY9zC/f0UO5k6huLhENDU1Rt2iEIhCwggSyBMCHPS9HpTxs5U/Nr818GmeCAH78sF4pgd0awCgJOJj4AzTnwXBSwjclFaBXS5WgZKSErFIWgPatCmPqj6XhAD6B4vF0ydPHAfSqMZ7RKAsmO3dApz24PWPN/rn8q0dZn6v0KOmt5g5+3UryZ6dm8X1a5etaz8n8QoBCIq2so1FxUXi2dOnoqGh3k81TEMCJJAQAQ72CWGTmfJOCKCjdquAHzFgzxOfNSBRvJH5wkLgXSuyvv5FhOPfts1rpUn6lnVfnQwdJq0B41qtAXo+XQgMGzFGDBw0TGUThw58Ia5dvWRd6ycYSOcteEMUSf8QhDuy3lim7up27cWsOa1v1Zs3rhYhOQDDb6FrtxqB+yrA6/5k7RHXPR7mL1ohSkvLzOQHvtojMD0CkTdg4FDRrXuNeHj/XpQwwjz/oCEjxEuyj8rrHwVABFyVpv6TJ45K58n7qgnmsV37DuKV2fPlYFwcIaSwGqC5qSkirf0CVgP9efgVAr37DhCDZTsxxaCHB7JP35ypFRfOndGjeU4CJOBKgIO7K5oU3mgRAkJ8enxbCotNf1G6iR+1YWCHIMBRDxAAGGDwnx5SZw3QS/U+twuB0yePi/4vDZZiIDwgYvDctT3SVwBvlYvfWCWwtA0BqwzgL9Cla3fzGgPfpvUfm+dVcp37wiVvmef4J1zeButaPxkybFTEUsbPd28VV69c1JNEnbfv0Em8vnC5FY8BfPCQkQKDrVPAAI1ynd689UH1yKF95gA+Y9ZrAuv7EewWEoiAKdNmiT5y+aRbwBs3+OmOlx06dhKvLWhts1tep/id29aLWzevW7f0Nl928RGwc7UyayemE+KRVidE7RZPSSCPCXDQzteHZ/x05Y/kCipDrKnNLyFgnyLQH4ASA/bBX6XxY0FQaVN5tAsB85PIcmJm5JgJVjXbNn8W8RY6ZNjIiAF7i1xhMHb8ZJsQaHUWfEWav7vX9LLKW/fph+Lp0yfWtTpZuPQtAQc6BNxfv+b35pp6dd/p2L5DxwghYE/TJN+w1UCu7iEOg/Od2zdVlHkMD6phAYR7HTt1lnlLrDRhIRBeydIqAgZY93HSIDf1wbQJ7qvQKgbumFFhIbBM3Y7ruHPbBgchEG5zWAjsiCgPyxPHT5wWEfdMsoXDIdgpCwgSnDpxTHxNMRDBihckQALZIdAiBOSqgdrt2WlBErV6iQG3YrMlAtAeJyFw5lSt+cavVgPoVgEMqoukNQD5EK5fvSz27Noi5sxb5CoEevbqI6a/Ms9Mj39O1h4Vx44etK5x0kMKBX2+/Mihr8SZU8cj0jhdOAmB+vp6gTf6a1cumXPgVVXtpLAZL/pI87gKGLDXrflQ1L94oaKELgRUJOb7YeF4+PCBeHDvjjh39rR5yz6tc+/uHQFrBNJCCGAAHjl6gigqCk9zoE2frf7A9B9AHHwrusrphinTXlFVia/kioFb0gKjhx49e4uJk6dbUfEIAftvEVMKhw58KR7cv2uWBxEwccp00btPf6v8vfJZXpPPlIEESIAEsknA+OkKaRGQG+auqY18u8lmo/zUbR8c/ORRabIlBpyEwInjR8TQ4aMiVgQoq8DgoSPMne5UuzdvWC0HlnueQgBvx4vk235buRQOAQ53az/5QL7ttzrTzZBCoUYKBgQMvmvlOnoM1rGCXQhgMx6sdrh/LzzY6fknTZ0h+g8YbEUdPvil+Ob0CevaLgQeycF/945NEcv1kBgD+WK5iZISQ5jbX7/2I9EgB3s9jJC7BY6QGwKpcPCrvZaQQFzYWfA1dVvs2bklasqiV59+4uUZr1pp4hEC06bPEb379jfzgsum9avFo4eR/gqmsJNLGMsrWoTdtSuyHfnxjQ8LCk9IgAQKjoDxEykEsBVevgiBWAJATQuoJ+U2PeDmU6DypePoJgTMVQFygFB+AJiXxgCxSBs0MH//+e7w9I2XRQDtHiaXGo4a27rxEPKp+X8IBAgFZU4/c7rW3ErXT3/tQuDSxXPmWnunvLBwvCE3T1L1XLcNenYhgDd4fc2+KtNu2neycCAtphVWrPq2Vd8V6Tz4xZ7tqpi0CwHsOqhM//BROCk3I3IKeDadOnc1b0Gkrfn4d07JGEcCJEACGSNgWgQgBD7NA4uA3fyqKOENH0EdVbw6Ip9yGlRx6phJp0E3IYC2YEc7zP2rgDlo3by+SW4apDziYwkBmMKXLH9bvk2HHe/CGxaF59shEDAYIeDNFW/XT588VtV6Hu1CAFMCmNpwCwuXvCngwIgQdmps9WXQhQC+lwCrhFPo2buvmD5zrnXrqy92iYsXzlrX+gmcKpUlBIPx1k1rrdvptAjAeRMiJJHw0fv/FHPpYyLlMg8JkAAJ+CVg/HT5v5c7C4bE6tqdfvNkJZ2TCIjXxO8mCDIlBryEgN1srEO2O6bFEgLIi/nwvv0HmsWYA750Bnz+/LkpENR+BFflvD68+v0GuxA4LOfAvznTau63lzN/0XK5oqCjGf3o0QOx8bPw6gZE6EIAqwpgqncKdnM9dvuDJcIpLFwqhYf0UUC4L30M4FipQjqFACw5sH6ogM2Imhqb1KXn8dOPfxvTSdOzAN4kARIggSQJyJ0F/30ILlYf57BFIBUiQOfkNL2gvkCnp0v1uZcQQF2DhgwX4yZMjajWnG9e97F4pH0q148QgPl57utLrLLgi4DP7U55eZYVt33Luihvfuumw4ldCJyXznwH5Fy8U4Cwwd7+yoFPd4JEel0I2IWOXl6nzl1kP5ZaUW7iD/WsfPuPrakBfSoFmdMpBFD+m+/8sWWBiWe6BXkZSIAESCCbBIy/kcsHi+Uewx/l8D4C9h0B3QaDeEDaxUAqyoxVfywhAFP+IvlWix3zVHCah/cjBJD/tQXLBObYEWB+xw58an4a3uybN3xq3vP7j10INDc3mV8+fPL4UVQRo+SSSGxwpEItvuQnxYgKfoUABMXSFe9a8+9Yjrfhsz/InQsj37jtIsq+EiLdQkB/Jk+ePDI/BGVvY6ncL6Jnzz4KgVwdcd90/rQieEICJEACWSBg/PxNKQSkp/mHX+fmPgJ2a0AqB2y7GEj3FEEsIYDn/9KgodancmENwKBnH2j1Qcc+967/hgbIzYomTpmhR1nnXnPtViLbiV0I4DYG5v379ljr7eG0N1x+JRHfRlCOgugH9jPQnQH9CgHUASsJBnoVMJWw/8s9AisIEPrKTYYmTH7Z3GgJ1xiA165+P2K5YrqFQD85DTNZW54IKwdWLqjVGBA0WLKJ3zOCk6XHvMF/SIAESCDDBIz/9c0fh0qkWfV3R53naDPcnqjq7NaAVJvw9R0KUykyojoiI/wIAZi4MeAiYEDDsjp78CsEMCgvWf6OtXOhKqdO+gp89ukHcTupOQkBVSYGvBfSC75SblKkBADuYcCD6LDP68cjBNCPmbNfswZRVe7jxw9FeZvw9w1UO2Cl2Ltrm7kDo4rDMd1CAHVAdEF8qQChcu/ObXN7Y+wECTGggte0ikrDIwmQAAlkgoDxy7d+GiqWg8+/HQl7lWeiUr91pNMaoNpgtwqkWmioenD0IwT09G7nfoUA8mMlAlYk6OG43GDohNxoKN5gFwLYM79GmrrVsken8g7u/1yc++ZU1K14hAAyY4kl3qjV1spRBcoINxGAtJkQAqhngtyQ6KWBQ3DqGiCKYC1obIz+wqFrJt4gARIggTQRMH656qehUikEfnM494VAugbpTFkFsiEEYGHA8jvsmocAKwPW7Cuzejy/K7sQwCAPJ8DJU2eavgfKMRBlwjERYuOSy1K/eIUAyoQYwAeOYIbHfLseYu0LkSkhgDZhgyh8/EktZUQcLCOY4sEOjmrHRMQzkAAJkEC2CRj/cdXPQqXyM6n/fCjyYzfZbhjq16cF8Icec/jpCHo96Z4eSEf7vcqEqR7r+ZW5PhmTtJMQUG/7cHSEYyIG6GdyX4LHDg6EXu2M5x5M7FXV7c1P/OLbAtgHAc6QuRTAG3so4DPE+PgSdl/ELo4MJEACJJBrBIy/fedvpI9Asfing+kZZJPpcKYGaH16IJ2CIxkWieYdN1E62g1udbTbiKWIDn4Hfsr3EgJ+8jMNCZAACZBA7hEw/u7d/2AKgV8fWJdzrdOFQDo9+nUhAAjpmoLINOCysjbmBkJwtkOwr+WPtz0UAvESY3oSIAESyH0Cxv/53s9DmNv99f7cEwL63H06hYDdKbFQhMBw+SGekdqHePBRH2w3nGigEEiUHPORAAmQQO4SMP7TOz8PGUWG+OccnBqgEEj8h4M5+8XLWj9hDOc97EmQTKAQSIYe85IACZBAbhIw/k4KAenSLH5zJPecBSkEEv/RDJBL2CbKpWwquC3jU/f9HCkE/FBiGhIgARLILwLG/7Hqb8wv1f/uaO4tH6QQSPzHVFHRVpSUlloFwLMe3uvJBFgZKquqrCLwGd2G+nrrmickQAIkQAL5R8D45Zs/NYXAh8dyb2dB3Ykv3fP2SnQU2qqB/PtJssUkQAIkQAKZJGD8YuVP5V4nzeIPtbn7rQEMzpkIcBrMVF2Z6A/rIAESIAESIIFYBIyfr/xJqFn6CHySo0IgVgd4nwRIgARIgARIIHEC8jPEP5YWgZBYXbs98VKYkwRIgARIgARIIC8JGD9b8aMQWk4hkJfPj40mARIgARIggaQIUAgkhY+ZSYAESIAESCC/CUghIKcGZB8+pY9Afj9Jtp4ESIAESIAEEiBg/Ew6C8JHgEIgAXrMQgIkQAIkQAJ5TsD4SYsQWEuLQJ4/SjafBEiABEiABOInYPyVdBbE8sHNJ3bEn5s5SIAESIAESIAE8pqA8b1lf236COw8uSuvO8LGkwAJkAAJkAAJxE/A+Nbi70uLgBD7z34Rf27mIAESIAESIAESyGsCxvLXv2t+a+DExYN53RE2ngRIgARIgARIIH4Cxg9+9HdyaiAktq7/OP7czEECJEACJEACJJDXBCgE8vrxsfEkQAIkQAIkkBwBCoHk+DE3CZAACZAACeQ1AQqBvH58bDwJkAAJkAAJJEfAmDPrO6EiWcalG0eTK4m5SYAESIAESIAE8o6AMXPmt0JFhiGu3fw67xrPBpMACZAACZAACSRHwJg2492QETLE7Tu1yZXE3CRAAiRAAiRAAnlHwJj08jtSCITE/Xun8q7xbDAJkAAJkAAJkEByBIwJU9+W+wqGxKP7p5MriblJgARIgARIgATyjoAxbupb+AqxePrgTN41ng0mARIgARIgARJIjoAxtkUIPKMQSI4kc5MACZAACZBAHhIwxphCICSeP/gmD5vPJpMACZAACZAACSRDwBg99U1zaqCOQiAZjsxLAiRAAiRAAnlJwBhlCoGQePHgbF52gI0mARIgARIgARJInIAxcgosAs2i/uG5xEtJQc5OnbuloBQWQQIkQAIkQAL5ReDe3VtZbbAxYspKKQRCooFCIKsPgpWTAAmQAAkEk0DWhcCwKStCQgqBxofng/kE2GsSIAESIAESCDABY9jkZaFmuY9A86MLAcbArpMACZAACZBAMAkYQya+YQoB8eRiMAmw1yRAAiRAAiQQYALGoIlLzeWDxpNLAcbArpMACZAACZBAMAkYAye8gR2GRREtAsH8BbDXJEACJEACgSZgDJiwTOqAkCimEAj0D4GdJwESIAESCCYBo9+4JXLVgBClzy8HkwB7TQIkQAIkQAIBJmD0GbtY7icUEuUvrgYYA7tOAiRAAiRAAsEkYPQevdD0Eah4cS2YBNhrEiABEiABEggwAaOXFALoP4VAgH8F7DoJkAAJkEBgCRg9Ry0IGYZBIRDYnwA7TgIkQAIkEGQCRk9pETAkAVoEgvwzYN9JgARIgASCSiAsBGARqKOzYFB/BOw3CZAACZBAcAkYNaPl1IAwRFs6Cwb3V8CekwAJkAAJBJaAUSN9BND7yvrrgYXAjpMACZAACZBAUAmYFgF8bKCq/kZQGbDfJEACJEACJBBYAqYQwBbDlS8oBAL7K2DHSYAESIAEAkvA6Dlmvvn1QQqBwP4G2HESIAESIIEAE5AWgfnyWwPSIlB/M8AY2HUSIAESIAESCCYBY8DEpaG6uheisoFCIJg/AfaaBEiABEggyASMw1+fCB05fkb833/7H4PMgX0nARIgARIggUASMIUAnATeXvVeIAGw0yRAAiRAAiQQZAIUAkF++uw7CZAACZBA4AkYy7/9w9CPf/Ad8f0/+37gYRAACZAACZAACQSNgNFlyPTQmBFDxKXag0HrO/tLAiRAAiRAAoEnYHQdOtv8DHG75nuBh0EAJEACJEACJBA0Aka34fNCRUaRqGrk8sGgPXz2lwRIgARIgASMHiPkhkIyVDVyi2H+HEiABEiABEggaASMGikEzI8ONdEiELSHz/6SAAmQAAmQgFEz/PXQgL414tb5w6RBAiRAAiRAAiQQMALGjIXfCf1vP/me+MmPfhywrrO7JEACJEACJEAC3FCIvwESIAESIAESCDABCoEAP3x2nQRIgARIgARMIXDpynXxsx//hDRIgARIgARIgAQCRsAYM2tZ6NqN26KDeBqwrrO7JEACJEACJEACcmfBV0JGUZFo13SfNEiABEiABEiABAJGwOg2cm6oSMidBRtuBazr7C4JkAAJkAAJkIDRRX5rABg6hPLLItC1W4+Ip6df4/z2reidEvU4/TyiIF6QAAmQAAmQQIAIGJ0Gzgw1h5pFl5InOd1tDO4jRo0T+oCfigbXHgtvpKSOqSiTZZAACZAACZBAvhAw2vebHGpubhbdKxpyts2z5y5MuQCwdxZCgGLAToXXJEACJEAChU7AqOo5yvzWQE11cU721Y8I8Gvmj2VNQDk7tq7PSQ5sFAmQAAmQAAmkg4DRtsfIkCFLrmmXe0IAUwH4TwUM1Oo/xPkVACq/foQoUNMNejzFgE6D5yRAAiRAAoVOwKjuPTFkGMWiW0VdTvXVSQSk623dbnVAPcmIjJwCycaQAAmQAAmQgAcBo2O/GSGjuEx0KrnrkSzzt+xC4MPf/iqtjdDFAK0C3qhLy8pEQ329dyLeJQESIAESyAsCRueBc+SGQsWig3E7pxq86r3vWu3JhCNfJoRHaWmpGD1ustUvnJw9c1I8fHAvIs7rok+/lyIcJ58/eypOHD/ilSVl9wzDEC/PnCtqevYWz58/E4cPfCmuXb2UsvJZEAmQAAmQQOYJyJ0FX5NTA4Zo13wz87V71KgLAS9TvXIATNaUj3JgFVDBq06VJt5jeXmFWLri3YhsN65fEbt3bI6Ic7soKSkVi5etEmVlbawkDx/cF5vWf2Jdp/OkV+9+Ugi8alXx8KGse11m6rYq5QkJkAAJkEBKCRjdhr8uNxQKyS2Gc2dnQfug7DQtoBz9lBAAlWQGb3udyZTl9oSchADSbt20Vty7G9siM2zEGDFqzISI4jMpBDp36SZefW2xVf/NG9fEru0brWt1MnbCFAHRgnDm1HHx6OEDdYtHEiABEiCBHCNgdB0+LyQ3EpA7C+aOj4B9UHYSArrFQDFNdm5fLzOTQuDG9avSKrBJdcPxaFoD3pDWgDat1gAkzKQQQH0QI/36DxSPHj00912wT2sUye9WrHz7jwWsTAgQChAMDCRAAiRAArlJwOg6bI7UAY2io3iUMy2MJQTs9/WGJzOA60IgHX4JbhYBtD+WVWDo8NFi9NiJelfN80wLgagG2CIqK6vEIilYVKAQUCR4JAESIIHcJGB0HDgtFGpqFF3KcscLXHfcc3rLT5cQ0FcOZFoI3JRWgV0uVoGSkhJzcG3TpjzqV5RrQqBL1+5izrxFVjvjFQLlFRUCgqn+xQvpkPhcSHOVVVY8J8XFxQKi5PHjx55lVFe3Ew2NDaJO1uU3GEaRaFtZKac/SsTTJ09Eo8zPQAIkQAL5SsCo7jNO/q1tEj0qw6bcXOhILCGANuqDtt5mp2kE/b7XuV5mJoRAff2LCMe/bZvXirt3on0Fhg4bJVcbTLKaXi+X7pXJJXwIuhCA2X7goKFWukMeXv1wOJy34A1R1GLCv3Pnlvhy7w4rr9MJBteFS960bp375pQ4UXvUvJ44ZYbo0aOnKJJpdMHy4kWdaG5qsvKsW/N7gS2t9VBR0VYMGT5KTjkMsvqF+42NjeLypfPipFwV8fRp9Lcw+g8YJEaOHm8W9VD6IWB6pXef/mLIsJGiQ8fOAtMUKOP+vTvmNIZyKG3foaO5URVEi2ornsXli+fF10f2m3n09qnzTp27SB+NieaqDTX1gXuPHz8SpySHixfOStFhfsNLZeGRBEiABHKegFHVa7T829UsaqpyZ2dBP0LAbhXAH3kM3uqPfSLkMy0ETp88Lvq/NNga/Jyc74qLS8RiaWpvUx62BmCVAfwFMIgh6EKgSr7d6gO1U3mKCwbLMdpSxs93bxNXr1xUtx2PaMvKt79j3Tt98pg4eni/eT39lbmiZ6++1j23k4/e/2cpBFqFASwAsCBUVbVzy2IuVdyxZb148iRy+mrQkOFi3ISpZj4M+MeOHhBjx0+x/BP0Apuk1WvX9k3mvemvzBNYyukUnshBfcumNVH7JEBgTJsxxymLFQdhdHD/59Y1T0iABEggHwgYbWtGyC2GDZFL3xrwIwQUXAgChGQEgCpLFwIoD/4GqQx2H4HjXx+SCzZCYqS2EmDb5s+kVaB1BYd9wN6ycY0c7CY7CgG09ZXZr4vuNb2sZq/79EPHt+mFS9+Sg2+1mQ5v2+vlm3qst9lUCwG8jc+et1C0a9fBai+sBVhBgXvV7dpb8di3wC4GdCFgJZQnGPSfP3smKmX/9Dd3mPCL5J4ZsBQgYDogJP8PFgk9nDrxtbQMHLCiYD3Bsk21EgLl3Ll1U8CK0EX+/tq2rbTS+hFUVmKekAAJkEAOEDAqa+S3BuQWwz2qcqA1LU2IRwjE22oIBzfRkA0hcOZUrfnGr1YD6G/xMMXD8Q4CAuH61ctiz64t5hu0k0UAaXr26iPwxqvCSWmyPnb0oLo0jz2kUJgpBYMKRw59ZS7zU9duRy8hgMES7e0upwcmTZ1pFbHv850RvDGgq6DzRhzepmGeb2gI+6ugLOxboAbgB/fvic0bVqvswkkIwCqEDZYgaiAmkF+xUhnr6p6LL/ZsF3duh/fO6Na9RjKba9XTJKcyVn/0b6agQJ4ecgOlmbNeU9kjVkKAyfzFK0x/BCS4cumC+GLvdpwykAAJkEBeEDCqe40LiaIS+Rni3HEW1AeIVLyZY/CHuFDWA/Vk7H4Aer32eypPMkcniwAGraFyfnz02FYfAGUVGDx0hGnqVnViEMRgCFO6Gtz0qQGkwxvwIvm231Y6yiFg0Fv7yQdyYGydl58hhUKNFAwIeLtd+8n7cvCN7fDmJQTMwuQ/diHi5izYTr7tz1+8UmVzHUAHD5EM5L4EKsAigjl/BLsQuH7titizc7NKah7bte8g5i9aERGHgRoDth4wTQLriwob131s7X/Qq4/cSGnGq+qWKVgwDaAChEpxSXhqLdQcMi0F6h6PJEACJJDrBIz2fSbLLYblnHObaGesbDU+lRYBDP4Y4N2CPuBnSwiYqwKWtvoB3Lp53RzQFsk4zKEjYP4eZmcELyGA+8PkUsNR2lJD3VwNgQChoEzmZ07XiiMH9yFbzJBKIWAXOUcO7XOcwoDnP+b9VYDVQA3CdiGAt/wrly+opNYRuzkqqwp8CT7+8F+se+oEwggCSQVYXmCBQcC3Fd5Y8Z41pYA4WDawvTLEx+2bNyzrAe4xkAAJkEA+ETA69JsmLQJFoktp4QmBWCJAPSglBrIlBNCOwUNHmnP/qk3wlu/Td4C6NLcRxts/QiwhAJP4kuVvm/PhSK9vWASBAKGAAPP5+rUfySVwj83rWP+kUgiMkX4OQ2Sf4w36VIddCGze8Km0mERvjPXagmVyFUEnsyrscoi3fXvo2KmLmDd/qRV9YN8ecf7cGevaPk1h3ZAncH6EGPhaOivCYsNAAiRAAvlEwOgwYEZIvh6KLiWRHtnZ7EQsi4B6w8dAj6kD/IfBXA9OIkClwz3UoQfkRzz+Q1DiQE+T7Lnb1ADKNf0BNAuAXhdEgb60L5YQQN4p014RfeUOgAjmgC+dAbEuHwIBQgHh6pVL0sqw1Tz3808qhcD4SdPkUsdhVrXYN8BPwEqFk9KZD8EuBDas/YNcyvcwqph5898QHTt1NuPv3b0jN29aE5UGQgGCQQW7EEA8uGGVBwSaEhYqPY7gjJULp04c06N5TgIkQAI5TcBoP2C6ufC5aw5ZBPRBXPcR0OPtVPWB2ymdfh95ndLoZdrT6/cSPfcSAijTPrAhDoPLJsxXyy19VfAjBDp17irmvr5EZTEd6B7LMqa8PMuK275lneUwZ0V6nKRSCNi/m7D6o3+Vc+vx+anYeaVbCOho4NzZvUcvUSMdL/FFSDXVAkHz6ce/k8+t1SdDz8dzEiABEsg1Aka7/nJqQP7R6tamLmfaZh+ksUmQPc6tsRAOSKsHt0Hdq8xktirW69bPYwmBIrm0bdHSN0WFthzt0sVzAp73evAjBJBeN4ljThufLIZAQIAJHab0eIIfIWBnuv/L3eLC+W+iqoGn/qxXF1jxB77aK86fPW1dqxOUp5bnQbFeljwgjhAyJQR69+0v9x0Ib+CEgd6+34Ld0TAdvx2zw/yHBEiABNJAwPjBj/5O/lkNia3ro+dN01CfryLtgwn+sKrpAFUABnz8Zzfxq/vq6CYC1H17XSo+HX/MYwkB1P2S3BlwwqSXzWZgwNvw2R8ENrnRg18hMECasbHjn1P46otd5k54Tvfc4vwIAQzai5e9bRWBPRGw6dAj+clijN/6drz6XgaI37trq4CjpApw4Js+c671tm0XRZkSAti0CHWpsHPbRtnO1g8p2a0bbpYJlZ9HEiABEsglAnkhBOzA7IO77lOgp7Wn0+/p5xADKANHFbIlBLDZDbbARcB6dqdP+PoVAhi4lyx/x9q5UPUNG+l89ukHUVv9qvtuRz9CAHmXSCGgWzVUeVii+Mnvf6MuzXn2WXMWRHxREUsDn0jnRTjvqQ2PkAEbDW2AY6O21XCmhIB9qSPagj0IIHLgewDrBqw5CHC8xDbKDCRAAiSQLwRyUggAnv4lQB2m2+COQVwN5LAUIKijnt/tHHl1q0My3yxwq8OPRcAtrx7vVwggD3YhxIoEPRyXGwypbwTo8bHO/QqBHjVyA57ZrRvwqHLtQgDx7Tt0klME8y0HRpVWP+J7BZgesX/OOFNCAG2Bk+D4iVOlU2eJ3rSI8wbp44A9CuztjEjECxIgARLIMQJ5JQTcREAqmNqtCoUiBGBhgHkdu+MhwMrw2eoPBAbXeINfIYBy8dGf4fIjSPCux94FcKZzEgJIi01/8DGfGtlG5XSHeAysEHOHDnxhrttHnB4yKQRQL9qJaQJ8fEjtdoh4bGmM1QgH9u2N+h4C7jOQAAmQQC4TMNr1nRQqkp9V7ZJDzoIApq/px3U6RQDK1y0Q6a4L9WUqYL99fIhIDbBwyINjXi4GbFNcVV0trQMV5jJAu29ELrUZ0xZV1e3lVMVj04dDOTDmUhvZFhIgARLwQ0BuKDRVfmvAEJ3LWveA95Mx3Wnspnq8GWLePh0h06IjHX1wK3OcNGcPGtzq6KZvneuWh/EkQAIkQALBIWB07D9dfn1QiE5lubOzoMJvH6ARj7d1iIJ45v9VeeqofAlwVP+pe4VkDcAbNjYQUvPa+geNVH95JAESIAESCDYBo1P/GVIIhETHHBQCeDROYsD+yGKJAjXw2/PZr9NpdbDXlYnr4SPHipGjx1tV7d6xydxu2IrgCQmQAAmQQOAJmFMD2AWta7m/LV6zQczuyJeONhSaCMBytsXLWj9hjF0FsScBAwmQAAmQAAnoBIx2fSaFmpsbRY/K3N4SFWIAQR31TiRzDgGgphuSKSfX8g4YOERMnDzdapb+1T4rkickQAIkQAKBJ2BU9x4rP6HeJGoqi/IKhjL3q6PeeD3OPm2gX+vnev5COK+oaCtKSkutrmCjG2yEw0ACJEACJEACOgGjsucIufNrs+hZFd5LXb/JcxIgARIgARIggcImYLTtOdxcNVBT1fr2WNhdZu9IgARIgARIgAQUAaOy1+hQkSgS3SvDX3RTN3gkARIgARIgARIofAJGVe/xckOhUtG9Iv4tZwsfD3tIAiRAAiRAAoVNQK4amCKFQIlcPph7GwoVNnr2jgRIgARIgASyT8Do0HdGSBjF8lsDD7LfGraABEiABEiABEggowSMjv1myFUDQgqBxxmtmJWRAAmQAAmQAAlkn4DRse80c/lgl3L6CGT/cbAFJEACJEACJJBZAkaHPpPlF1TrRde2XDWQWfSsjQRIgARIgASyT8Co7jlW7idUL7q34z4C2X8cbAEJkAAJkAAJZJaAUdl9mPzmUIPo2bEyszWzNhIgARIgARIggawTMNp2HxoS8uuDPTtUZL0xbAAJkAAJkAAJkEBmCRhtuw2V+wgYoqY9vzWQWfSsjQRIgARIgASyT0BaBOS3BowiUdOuOPutYQtIgARIgARIgAQySsCorBkZKioqlt8ayGi9rIwESIAESIAESCAHCBhVvcaEjKIS+a2BxhxoDptAAiRAAiRAAiSQSQLyo0Njw0KgvCGT9bIuEiABEiABEiCBHCBgVPcZHxKwCLR5kQPNYRNIgARIgARIgAQyScCo6jPBdBbsXl6fyXpZFwmQAAmQAAmQQA4QCAsBYUgfAU4N5MDzYBNIgARIgARIIKMEWoSAoLNgRrGzMhIgARIgARLIDQLSR2CC+bUhrhrIjQfCVpAACZAACZBAJgm0CIGQtAg0ZbJe1kUCJEACJEACJJADBMKrBuS3BrrzM8Q58DjYBBIgARIgARLILAGjWu4jIELSIsCdBTNLnrWRAAmQAAmQQA4QkEJgjPwMcbPoUVWUA81hE0iABEiABEiABDJJwKjqOUrqAPkZ4nYlmayXdZEACZAACZAACeQAAfOjQ83NTaJXlj9D3KlztxzAwSaQAAmQAAmQQGYJ3Lt7K7MV2moz2vYYEZJzAxQCNjC8JAESIAESIIFMEMi6EKjoMdx0Fsy2RSATsFkHCZAACZAACZBAJAGDQiASCK9IgARIgARIIEgEWoSAkFMDpUHqN/tKAiRAAiRAAiQgCVAI8GdAAiRAAiRAAgEmQCEQ4IfPrpMACZAACZCAKQQM+Rli7iPAHwMJkAAJkAAJBI8ALQLBe+bsMQmQAAmQAAlYBCgELBQ8IQESIAESIIHgEaAQCN4zZ49JgARIgARIwCJAIWCh4AkJkAAJkAAJBI8AhUDwnjl7TAIkQAIkQAIWAQoBCwVPSIAESIAESCB4BCgEgvfM2WMSIAESIAESsAhQCFgoeEICJEACJEACwSNAIRC8Z84ekwAJkAAJkIBFgELAQsETEiABEiABEggegRYhEJJfHywLXu/ZYxIgARIgARIIOAEKgYD/ANh9EiABEiCBYBPg1ECwnz97TwIkQAIkEHACFAIB/wGw+yRAAiRAAsEmQCEQ7OfP3pMACZAACQScAIVAwH8A7D4JkAAJkECwCVAIBPv5s/ckQAIkQAIBJ9AiBAy5fLAk4CjYfRIgARIgARIIHgEpBEaERAhCoDh4vWePSYAESIAESCDgBCgEAv4DYPdJgARIgASCTYBCINjPn70nARIgARIIOAEKgYD/ANh9EiABEiCBYBMwuvfsHxIiJKqr2gebBHtPAiRAAiRAAgEkQCEQwIfOLpMACZAACZCAIkAhoEjwSAIkQAIkQAIBJEAhEMCHzi6TAAmQAAmQgCJAIaBI8EgCJEACJEACASRAIRDAh84ukwAJkAAJkIAiUBBCoGu3HkL9h47hHOH2rRvmsfbY4Yhr84L/kAAJkAAJZJVAeadxoqLzeFHWfrgoq+wrisu7iKLiSiEMI6vtill5KCSam56Kpro7ov7pJVH/8IR4fveQqLsXHmti5s+xBHktBEaMGmfiVMdYbCEMIAqUQIiVnvdJgARIgARSS6C0sreo7rNCVPWaL0rKu6W28CyX1lh3Szy5ulE8vvyxaHh6Jcut8V993goBDP5+BYAdB8SAshLY7/GaBEiABEgg9QSK23QSHQd/T7Tr91bqC8/BEh9d/L24f+Z/iKYX93KwdZFNykshMHvuQsv8r3dHH9zx1q+mC9RUgZ6W1gGdBs9JgARIIH0EqvssE51H/EgUlVSlr5IcLLm58Ym4W/sP0kKwOgdb19qkvBMCTiLAzxu+kwUBYmDH1vWtNHhGAiRAAiSQUgJdRv08MFYAN3CwDtw59l/cbmc9Pq+EgF0EJDKQ28vwIyKy/pTYABIgARLIQwLdJ/29qOw+Kw9bnvomP725U9zc/4vUF5yCEvNGCMC8j0FchUREgMprtw5QDCgyPJIACZBAaghQBERzzFUxkDdCQH+TT0YEqEejl4e4D3/7K3WLRxIgARIggSQIcDrAHV4uThPkhRCwWwMwrw8xkEygVSAZesxLAiRAAs4E4BjYdcwvnW/mYWyvroaYOaZIjBlYJPr1MESHqvAeBw+ehMTFGyFx9Gyz2H20WVy9LT/k6zPcPvqfc8qBMC+EgP72ngprgHpWermcHlBU3I/V1e2sjT4aGxrE8+fP3BOn8U5FRVtRUlpq1hCSG3s8efwojbWxaBIgAb8EsESwz5z3C2J1AATAt18vEXPGF/nq/vZDzeI3mxp9CQKsJri8/Z2cWVqYF0Jg1XvftR5EKqwBqjC7VSDd0wOlcvAaPW6yqj7yKAe0Fy/qRF3dc/H82TNp8bguGuRgm0th2ZvfEmVlZWaTLl86L77cuyMrzXt55lzRq3dfs27wWvPx77LSDlZKAiQQSaBQpgQWTi0WP3yzRBT50wAWhOZmIf7xo0ax/ssmK87tJJemCHJeCKRjWkA9mHSWrerQj+XlFWLpinf1KNfzpqYmce3qJXHm1HFx7+4d13SZvEEhkEnarIsE8osAdgzsM+fD/Gq0Q2vfnVss/t2iEoc7/qN+va5R/G5rbDFwefuqnNiBMO+EQKrf2tNlbXD6ycQjBFT+Zikxjx09IE6fPK6isnZMtxAYOGio6NCpi9m/G9euiKtXLjr2lRYBRyyMJIGsEug07Ieiw8DvZLUNyVYOS8CPViUnAlQb/uHD2JaBB2f/Rdw7+Y8qS9aOBSMEYOaH/4DdiRDxCE73EJ9NIXDz+lVx8+Y1NEN+Y6NItGlTLtq2rRTde/QUpS0mePOm/Kf260Oi9vgRdZmVY7qFwJx5i0SXrt3Nvp2sPSoF0EHHflIIOGJhJAlklUDfeavz+tsB8An4r/+hLO7pADfomCb4wf9b7+kzgG8TXNqyzK2IjMUXhBBwc/rTfQCcnAyzPTVwXA7uJxwG96KiYvHSoCFijPQnKGqZpIJT3LbNa7M6TZBuIbD4jVWibWV4C1IKgYz9DWBFJJA0AXxFsOfL/1/S5WSzgF98q9S3Y6DfdsKB8O//1dvX69rnf5H1rxbmvBAA8Fhv7boQQHqsAEBQ1gCc+xECqZ52QL16sE8NuAkBladX737i5Zmvqktx88Y1sWv7Ruva7QT1lEnrwtMnj0VTU6NbspjxECHwzq9/8cJMm04hYMjPjq58+48t4ZOoEECbq+TqhufPnsbtbFlcXGJaZIqKi8Szp8hfH5ORW4JKKWgaJfsXdXVuSURJSakUPpVy1cNj0dwcez5RLyiVbdXL5TkJJEKg4+A/ER2H/CCRrDmRB9aA//6LsCN0qhv053/vbRW4f/q/yo8T/c9UVxtXeXknBJyW+dnf7J0IOK02sAuIXBMC6Mcrc+abUwU4h1UAHvJYXWAPnbt0E8NHjBEdOnYW5RUV1m0s8Tt35qQ4fao2ShRUt2svZsnyVdi47hNz8Ov/0mDRW4qQLt26i5PHj4qTJ742k3gJAQzA02a8Kjp27KSKMwXZ+XNnrGunkwGyLlOwSSGAZYEqNDY2iIb61oF43xe7rGkfp6mBHj17iyFDR4rOXboKDJIIEEJHj+wXVy87+xqounr37S8GDxkh80Z+EvXB/XvimzMnxAWXPsxftFyUlob/eOzft8e01oybOFV0797TegZPnjwSN+QU0NFDX8nBvllOARli2PDRoqfk20GywjWe68OH98WRg/usPqq22Y+JttVeDq9JIJUE8n0XwXfnSQfBhanxDbBz/fV66Ti4xV3o58Jug3khBHQTPyA7DdheYsBJBKAc3dLgZDFAmlSGeC0CqBuD+8gxE6xmfCUHxIsXzlrXOBk6bJQYNXaiOahE3NAunsk35G2b1kas/W/foaN4feFyK9XmDatFTU3viPqOHTngSwhMnvaK6Nd/oFXWuW9OiYP7P7eu3U4GDx0hxo6f4nbbit+1Y5OATwWCXQhgAJ3y8izX/juJR1XwEMluzLhJ6tLxeOrEMfG1FBT2oAujM1JodeteI8DUKVy9ckng2U2aOkP07tPfKYkZd/jAl6b4cEqQTFudymMcCaSKQJ/ZvxWlVf1TVVzGy/l/vl8qxg+Oc62gz1YeOtMs/vf/5j490PDkgri84z2fpaUnWV4IAfsg7/aH3Z4OyNxEgF1cuKVLJfZEhEDPXn3F9FfmWs04Lh3oTkhHOhUGDBwiJk6eri7NI96EsQcB3jj1cEs6Ju7c1jq1YBcCGGi71/TSswg/QmDk6PFi+MixVj4Mel/s2Wa+6VqRLifJCgG8TSPgzRpLLp89fSIqq6qtKQbcw5v4+rUfmfdwrcLAwcPE+InT1KV5RH6IJrBRb/u44SQGdCGgF4IyYPYva9NGjzanWFQc2vQUbZVTA/AJUQGWkHVrfh81pZBsW1X5PJJAOgj0X7A5rzcR+pe/LROdqo10oBH3HofEd/6vVuumvRJsLnRhw2v26Ixe54UQABG/A7du7nd7y7cLBrd0qX4SiQiBKjmoLVz6ltWUs9LMf+jAF9b13NeXik6dw0vuMKe9bfM68UiamRGQd+KUGQL9VWHrpjWWw6FdCKg02KTn4YP74vHjh+KaHNRv3bxu3tIHPrWhEKYRJsk6VLhz+6bpx4BB2U/AgImNluCLsGDxSisLTPKnasNTEoh8If0U1Dy6bhHAPQyqXx/eb75JQxhgagBv3n36DsBtM5yW+zHAPK+C/Tdw984tyfVL8eD+XTMJRMDEKdMj3t737toi93a4rIoQOg9EPn70UHwuBdCjhw/MNH37vSRgKYFI0QOmSw7LZwhGxcXFYsq0WaJXn35WEjiQwn9EhVS0VZXFIwmkg8BLi6X1z/Y7T0c96Spzzd+3EUWR/zNNWVXN8l1l6S/CflaOhcq/Wec+e9nxVqYi80YI2P8YApDTW3wsIeC3nHQ8gESEAN4gl638I6s5mK/GfDRCm/JyMVWaxFU4f+4bcfniOXVpHmEVeG1B6/KUAzKvmrd3EgJXLl8wTdhOA7k+8EEIXDj/jZg56zVroMMAuH3LZ6Jem9uPaIzHBcTA8re+baXw6yyIDE5pUd7iZe+YIgNpME+/W04vqDBt+hyB+XYEiIdN61dbAsqMlP9gkF60dJU1339d7m2wZ+dmdTtKCGzZuEbcvxe5+ZNeDzKC0ab1n0RYS7BsdPGyt836kAbP4Is923FqBr2MRNuqyuKRBNJBgELAnSqFgDubhO7YrQIoxC4GvISAU363aYaEGhgjUyJCAOvqsb5eBadBT93DEXXAWRD7EiBgMNPznzop57vl2zOCXQg8kVMKyXlpCQAAIwhJREFU66VZ2i3oQgCOdFXV1aYJHOnhpb9182fm0S2/V3wyQmDtJ+9H+D6oema9usCct8c13tY3fPYHdUuKjm9Zpv97d29bfhBWgpYTOPZ16tzVvLJvZ6zzwAC/cd3H9uxyGehQMWFSq9qHrwGmGezhtQVvmI6eiIdVYvOGT60kqWirVRhPSCANBDg14A6VUwPubBK+4zSY686DXkJAdw5EAzIpAlBfIkIAu+2N1wYSJ2cyzOtjwILXu9p3APU5BTi1HTm0z7xlFwKXpDVh3+c7nbKZcfrAZ0+0/8vdpoXAHu/3OlEhgDn1jz/8jWM1cCCEeR6hvv6FWP3Rv5nnmI5YsarV+mBG+vzno/f/yZyKQHKdx3U5ZbBHTh3Yg93HA2/6eOO3B1hWsPIBAaJq7eoPzPNUtdUsjP+QQJoI0FnQHSydBd3ZJHXHLgYSEQKZFgHocCJCYPykaWLgoGEWry0bP5Xm5/A8NiLtLKyELideQuDo4a88tzLWBz74DWC9PnZCRMBAu23TZ6ZfgUvVntGJCgH7W7peyeSpM0W/AYPMKF0IYErljRWtXrrYa6Gp0Z9Pw6cf/9Yy6+s8lM+EXj/Oa3r2ETNmzbOid+/YLKcprljX6mT6K/NEz159zEtdCKSqraoeHkkgHQS4fNCdKpcPurNJ6o59nj8RIWCfUkiqQT4zxysEsK5+wZKVlvndbrrv2KmLmDd/qVX7Y/k53oNf7TUd/dRGQngjnTp9tpXGSwhguR+W/bkF+8B3Su4v8OprS6y5baxW2Cp3P/TaRMet7EwKAbThzXeweVGx2Zwzp6WVRC5BjDfYeTh9jTFZIYA2paKt8faN6UkgHgLcUMidFjcUcmeT1J0gCIEK+aY9Xe4qiMFeBfsb+9Dho8Tosa1r4GHWh3lfD/o8OeJTKQQw8MH0DhO8CvhSIkSWEiIqPtYRUxrYWVB52GOvBKy7dwr6qoFELAIoU/+uATb92SQ3U7I7SOJ7Dz3lG70K2PQHvhEqZEoIpKKtqs08kkA6CHCLYWeq3GLYmUtKYgtFCGDHvjMtXxXEAAgzMKwANdJE3KfvS6JM+/AQlrdt37LOMksDpH1awL7sDL4Dr8x+PYJ5qoUACseGPNjsRgUssft899aItqp7XsdFcpkk9gBAgCkfQgDCAgM0hIXaMyAVQgCbH2Fpnwow7cOagv0XEOBkOVOyw28NwfTWl86Aj6TToQqZEgKpaKtqM48kkC4C/OhQJFm5qpkfHYpEktoruxDQ5/vdnAXteXJhasAvlQcP7om9O7eYG93oeewrCrCeHnP38Dqvrm4vt7Hta75hY/29ZQb3cBaMd2pAmcIhYjBo4quJKmAfADg2xhN05z57Pux6qN7GUyEEUD72WMAWxypg6+Z7d26LIikCwBZiQIXzZ0+LA1Io6CFTQgB1JttWvd08J4F0EOBniCOp8jPEkTzScmVfAYBNgRDUG5yq1C1e9ytQadN9tPsIxKoPAzv2DYCXv91sjbxYIohdB2tavM2dysNOhJ3loNajZcfAdFgEUC+sF3Pnv2FuYqTaYZ/KUPFuRyx7nL9oZYQlRKVNhxBA2RPkrowvyd0ZvQKmW2AtaGyM/IBTJoVAsm316h/vkUAqCJRW9hZ95nyYiqKyWsa7c+V3BxaVJNWGX6+T3xfYGtsB+fL2VaLhabTzcFKVJ5A5bzYUsvfNbha33/e6zoY1AO3xEgIwPeMrf8/rnom6Z8/EdelZfuXSBccPDOl9w9s49urHXL3avhb34Th4UYoITD+MmzBVDBoy3MyWLiGAwtu17yDmvr7Ecm5EnNtyOdxzChADw4aPMdf/Y5pAvZWnSwigDfC1wMoM9QlkxOF5PJEMz8gdCc9Ja4BTyLQQQBsSbatT+xlHAqkm0GXUz0W7fq07oaa6/EyVt3BqsfjhmyXSkhpfjZgO+MePGsX6L2OLgEcXfy/uHPsv8VWQptR5KwTAQ58G8MsnU9sJ+21PKtNhKV+1HIwfye2B8dVBBv8EIKjUckhYYrBEE3sU5GLIp7bmIj+2KX0Eitt0klaB9/P6uwOKDj5N/O3XS8Sc8f7UABwDf7OpUVy9LfcUjhHwfYHL298RTS9anY9jZEnr7YISAmoawE5Mny4oZCFg7zevSYAESCDTBKr7LBNdx/wy09WmrT4IgpljisSYgUWiXw9DdKgKf5TgwZOQuHgjJI6ebRa7jzb7EgCqkbeP/mfx+PJqdZn1Y8EIAa8BXrcceKXL+tNgA0iABEigAAgUyhRBOh5FLk0JqP5RCCgSPJIACZAACaSMQL7vNpgyEFpBT2/uFDf3/0KLyY1TCoHceA5sBQmQAAkUHAGKgdZHmqsiAC3MayFgXzngtiSQUwOtP0aekQAJkEAmCXCaQH5+PIdWCDg9+4ISApj/x+ZCKignQQgGFbK1dFDVzyMJkAAJBI0AHAg7j/hRQawmiOfZYXXA3dp/yCnHQKf257UQQIfsGws5dVLF0VFQkeCRBEiABDJLAEsLOw7+XkHsM+CHHKwA98/8j5xZIujV5rwXAvatg706S2uAFx3eIwESIIH0E8AOhNV9VoiqXvNFSXm39FeYwRoa626JJ1c3SgvAxzmxY6Dfrue9EFAdhR8AgpoOUPGwAtinDNQ9HkmABEiABLJHAF8trOg8XpS1Hy7KKvuK4vIu8lsfldg/PXuN8lOz3Hm0uempaKq7I+qfXhL1D0+I53cPibp7rVPTforJlTQFIwRyBSjbQQIkQAIkQAL5RIBCIJ+eFttKAiRAAiRAAikmQCGQYqAsjgRIgARIgATyiQCFQD49LbaVBEiABEiABFJMgEIgxUBZHAmQAAmQAAnkEwEKgXx6WmwrCZAACZAACaSYAIVAioGyOBIgARIgARLIJwIUAvn0tNhWEiABEiABEkgxAQqBFANlcSRAAiRAAiSQTwQoBPLpabGtJEACJEACJJBiAhQCKQbK4kiABEiABEggnwhQCOTT02JbSYAESIAESCDFBCgEUgyUxZEACZAACZBAPhGgEMinp8W2kgAJkAAJkECKCVAIpBgoiyMBEiABEiCBfCJAIZBPT4ttJQESIAESIIEUE6AQSDFQFkcCJEACJEAC+USAQiCfnhbbSgIkQAIkQAIpJkAhkGKgLI4ESIAESIAE8okAhUA+PS22lQRIgARIgARSTIBCIMVAWRwJkAAJkAAJ5BMBCoF8elpsKwmQAAmQAAmkmACFQIqBsjgSIAESIAESyCcCFAL59LTYVhIgARIgARJIMYGcEQKdOndLcddYHAmQAAmQAAnkPoF7d29ltZEUAlnFz8pJgARIgASCToBCIOi/APafBEiABEiABLJIIGcsAllkwKpJgARIgARIILAEKAQC++jZcRIgARIgARIQgkKAvwISIAESIAESCDABCoEAP3x2nQRIgARIgAQoBPgbIAESIAESIIEAE6AQCPDDZ9dJgARIgARIgEKAvwESIAESIAESCDABCoEAP3x2nQRIgARIgAQoBPgbIAESIAESIIEAE6AQCPDDZ9dJgARIgARIgEKAvwESIAESIAESCDCBFiEgRHVVuwBjYNdJgARIgARIIJgEKASC+dzZaxIgARIgARIwCVAI8IdAAiRAAiRAAgEmQCEQ4IfPrpMACZAACZAAhQB/AyRAAiRAAiQQYAIUAgF++Ow6CZAACZAACVAI8DdAAiRAAiRAAgEmQCEQ4IfPrpMACZAACZAAhQB/AyRAAiRAAiQQYAIUAgF++Ow6CZAACZAACVAI8DdAAiRAAiRAAgEmQCEQ4IfPrpMACZAACZAAhQB/AyRAAiRAAiQQYAIUAgF++Ow6CZAACZAACVAI8DdAAiRAAiRAAgEmQCEQ4IfPrpMACZAACZAAhQB/AyRAAiRAAiQQYAIUAgF++Ow6CZAACZAACVAI8DdAAiRAAiRAAgEmQCEQ4IfPrpMACZAACZAAhQB/AyRAAiRAAiQQYAIUAgF++Ow6CZAACZAACVAI8DdAAiRAAiRAAgEmQCEQ4IfPrpMACZAACZAAhQB/AyRAAiRAAiQQYAIFLQS6dush8J8K+vntWzdUtHmsPXY44poXJEACJEACJBAEAgUpBEaMGifwX7wB4mDH1vXxZmN6EiABEiABEshbAgUnBBIVAfoThBiwWwz0+zwnARIgARIggUIhUFBCwEkE+BnQ9SkDPFhaBgrl581+kAAJkAAJxCJQ0EIgnjf72XMXRvgTfPjbX8Vix/skQAIkQAIkkPcECkoIrHrvu9YDgfNfPA6AsApADKgQj4hQeXgkARIgARIggXwjQCGgPTFdSOSTECgtKxMN9fVaT3hKAiRAAiRAAv4IGN1r+oWEYYjqqnb+cuRwqmQHcj1/vBYFP1hKS0vF6HGTnZOGQuLFizpRV/dcPH/2TPopXBcNDQ3OaVtiDfncXp45V9T07C2eP38mDh/4Uly7eskzD2+SAAmQAAmQgE6AQkCjkW4hUF5eIZaueFer0f20qanJHNTPnDou7t2945iwV+9+Ugi8at17+PC+2LTuE+uaJyRAAiRAAiQQi0DeCQHM5eM/+/x/Kub4c0kIqAfX3Nwsjh09IE6fPK6irGPnLt3Eq68ttq5v3rgmdm3faF3zpPAIVFS0FSNGj7c6dvCrz0Uo1Gxd84QESIAE4iWQV0JA9+y3z+HbhUAiXv+ZFgI3r18VN29eM5+ZYRSJNm3KRdu2laJ7j54C8/56qP36kKg9fkSPMs+HjRgj+vUfKB49emiKo4cP7kWlYUThEOjWvUbMenWB1aGP3v8nAbHIQAIkQAKJEsgbIaCLAHTWaQ5f7SPgdM8PIL2ORMvwqsc+NXBcDu4nHAb3oqJi8dKgIWKM9CcoKioyiwxJH4Jtm9e6ThN41ct7hUOg/4BBYtLUmVaHKAQsFDwhARJIkEBeCAF9gEY/07Xhj15POurwKwTUs7T7ACRr+i+TVoaKtlVyhcEL07kQ4iKegPaXV1SYDo11z5/Hk9VKC9N2m/Jy8aKuzmyDdSOBk6rqdqJROlTCwTLRgP4UF5eIp08ex10E8oJJ/QvwfB63iR5WoIq2bQWey9OnT3yt/Bg+cqwYqU0NUAjE/diYgQRIwEYg54WAPjij7ekYoBUTva501BOvEEC7Xpkz35wqwDkG7jUf/85cXYDr4uJisXDJmzg1w7lvTokTtUfVpXnEIDd46AjzP0w9qABz8uWL50yLxBOPQRCD9tBho0W/AQPNqQuVv7GxUVy/dtm0zDyW0xJeAfUOHT5a4G22rE0bKykG0AvnvxGnTnxt9cm6KU+QXg16D+7fE3t2bRHtO3QUmA7BVBB4IkBUfHPmhDgp+24XN9Xt2otZkqEK69d+JIokt1GjJwiY2XEfobGxQTpnXpYrL74Q9R5LMSFkhgwfJadjZF+06RvwuHzpvDgpLTwY1L1C+w6dJI9RonefftLiU2wlxaqR8+fOiNMnjsk2vLDicTJ/8QpRWlJqThmVyKMKWC0iO21e3r9/V+zdtVXd4pEESIAEfBHIaSGgD8zoTToGZ52SXl866kpECAyXg97IMROsZn71xS5x8cJZ8xqD/Mq3v2PdO33ymDh6eL91jUHm1dcWiY6dulhx9hPsP4ApB/gY2ANEAJi0a9fBfsu6xsB7SA6eECFOASLALKO9exlY7bBz64YoMTBoyHAxbsJUs1hYIHZsWy/mzF1kWhSc6nKymEA4vL5wuZV884bVYvzEl0XnLl2tOP3k+bOnYsvGNY5WBlgA5sxbJKo8ltpiYN6xZb148uSRXqx1jnoh7vTB3LrZctLQUC92btso7t9rXS2y/K1vidLSSL8Re757d2+LrZvW2qN5TQIkQAKeBHJWCOiDsuoBBudkAvLbVxvo5el15ooQ6Nmrr5j+ylyrmcePHrTe+mMJgVFSQODtWQW8ud+9c0vApN6pc1fL/+DhA7nscP0nKpl5NEXAq1IE2AZwDJQV0qFRDxADn+/ZJq5didzDwE0EQHzYnSGdxIAuBFAfBlm8kaM+WDFwXlJSojdFfLF3u7hy6YIVZxcCz2T74ZCJ8Ey+uRfL/LqlBPFnvzkpDu3/AqdWMPsyL1IUwaqCwRf3lGUBGdzEgJMIQBl4+1fWDVUhrAPb5KCurDUUAooMjyRAAqkmkJNCQDn9pbqzKM++2kCvIxeFQFVVtVi49C2rmWfPyEFKvoEjxBIC8+YvtawBd+/cNt/8VUEDBw0V4ye9rC7Fxs/+EGEVwJtvl67drfuXpBXi8MF94UFLvhkPHDRMYL5aBbwBr1/zkbo0jzpPRFyU0wBfHzlgvm1j4BszbpLoK1c8qHBLrqDAm7AKdiGAeFgejh7+SpryG81kdovJ/Xt35Rv9p6oIcypBtwjgxp3bN8U+aVmBEEDoITdkmjZ9tvWWjsF5zce/jZgisPfl4P7P5dTKebnpU3hHR6z0wJ4O6k0fUxmwPqgA4bP4jVXWWz3qOCZF3Tena02vfwguCDcIPxXOnz0tDny117yENcKQ/4f/bQwYOEQlEes+/dBaNYAyISAYSIAESCAeAmEhIHNUV4fnSuPJnK609qWAqazHazWA/sc+VywCmFNftvKPLAQX5Bzy/n17zOtYQmD+ouXyjb6jmfaBXFa4e/umCJM33vpVaKhvkANKk3lpf4t2YzEduxr26qOKMEUWBlkEexlOZnukw1I4zNWrsGHtH8Tjx+FpCrsQQNnbt6xTSa3j3NeXmBYORDQ1NYo/fPAv1j17OzD/v37t700HPyuRPBk9dqLpx6Ditm5aY63QaCf9COYvXqlumRYHWB7sYfCQEWLshClWNKYYlHnf3hesFsGqET3A9P/awmWWxQI7S6795H2zTyrd2PGTpb/HSHUp6CxooeAJCZBAggRyUgigL/qgrPqGASmZABHgVYZep5dgSLQNifgI4K0cb+cqwCEOb5IIsYTAaPnGPXTYKJXVNKljMIUJ/4bcw0ANuFaClpMhcqAZIwccFXbv2GSmV9d+jhisMGipgI2OIAbsoXtNL/HK7NetaFg7YPVAsA+eX+7dYTrkWYlbTuxTIHCoVCsJ7EIAFgW8zdsD3ugxd6+CXhecLceObx3gjxza5+gQWFlZFZEO9SjfiRmvzLNEE6Y2Pvn9byyrhqrTz5FCwA8lpiEBEoiHQM4KAXRCH5hx7fZminupCHp9uSIE7CZ8fE8AHvIIsYQAVhVMfXm26Nm71dysc4JpHObnU9LJEGZlFfBWi7dbFT6T5mdlRldxsY5RZaz+QGB+3h7aysETJnMVsIIA0wcIdiEAkz9M//YwcPAw6QA4zYqGvwP8HhDsQgDTCk67NMI0P3/RCquMwwcl59NhzhBFEEfxBl204U2/g1wtgACWYJpIoBBIhBrzkAAJeBHIaSGAhuuDM67TKQb0unJFCIyfNM2cj0ffEfTBMJYQCOcQ5lK7l6RPAN56y8pal++p+3Ai3Lltg7Wuf9zEqWLQ4OHqtmmeNpepWTGxT/yWAYe/JcvfsQrUVz7YhYA+bWBlkCfo2wTN38FLCOhv6XoZmBpbsKTV/K8LAfszwLJHPwF9OSmFDYI+TfPksfSnkMsYEwkUAolQYx4SIAEvAjkvBNB4fYDGdbrEgF5PLggBDJIYnJQDGjzI16/5PRCYwa8QUOnxtcIOHTuLGmmO79PvpQhPd5i7z5yqNZNiOgHTCip4OViqNPYj1smPHhu7DLs/iD4A54oQwMoLTD+osPqjf41wJFTxXseZs14znRKRBlMDf/jgnyOsMF559XsUAjoNnpMACaSCQF4IAXRUH6Rx7TQ4qdUGiQ7ieh2JloG2uYV4fASwRG+69ELv2KmLVZzdrO0lBLDaoKvmhIf5ed28D5EBBzh8GhlBF1dYWjhXOuCpgE8bO21UgzX+PTVnwS8/3yGXJ942s2Gp3KuvtZaBJX1ODnbwtMcOiirA0x4e9wi5IgTs+/vDkx9TKvYAUaOWJmKLH2zYhEEfYZjcUGmUdEhUQRdeKg77Psx6db5VBr5AuXnDpxHOgthgSV+tgVUDsTYwUuXzSAIkQAJOBPJGCKDxsQZq/aNBiXx0KFb5TgDjibMLAZiNz7R8VRBv6/DixwANT/w+fV+K2LkO6//hMa8GFtTrJQRQ1+Jlb1t7Bdg97mFlWLxslTVVgF3x4CCngj6njTi09fjRQ7L+ZrNMLPubNGWGSm7O/2NQ0tv3uly10L5l1QISwlMe/8EfAd9QwKCGHQdVgIc9PO1VyBUhgPZgCSfEFQJ2IYQwunXzunmNf/DMsIoCzxHhkhQB+z7faZ7jn/DzWCX7Hd5JEGUc2LfXcn7E8sLRYyaa0xwqE5ZsYpmjHvCBqcnTXrGiIEjOyCWIz54+NZ8NxAMDCZAACcRDIK+EADqGt368veI/PdhNzE4WAz2903mmhYBTG5zisPRv784tUc52XkIA5UybPkf07tvfKhLOetgWONQcMs3UamBDAn3HQlzjHnjomwdhIyDsQNi+QwdrugJpETDoYfDTAzYuMsuQ4kYFLO/DFAd254Mzowpo2w4pdPS321wSAh06dpJbFS+I2CIZwgV9gdVGZwmhs0H6AOh9QT8hFl6e8aolzhCHDZqwwgFTNkpEIB77E2zb/Jl49PABLq2AjYvg1KinVTexRfJeuQ0zAwmQAAnEQyDvhIBX53SLQLJCIJH8Xm3DPbtFIFZ6DCjYNwBmZKc3vVhCAJvQYNUARJJXuHL5gikE7HVgsJ4td9ODlcIrwMsf3v5OodoUA4vMjxU53UeckwhAfC4JAbQH3wiA6d6+EyHuqYANfSCKnJZKIg2mUqbZxIDKq454DliyaRe76j6mGDDVYA8UAnYivCYBEvBDgEJAo5SskNCKcjz1EgIwqZtfsat7JuqePRPXr18xN67x2ikulhBAI/DmCGe3fvIDPvpbK+7BZwDr3JVnO+LsAXlGSZM1liCqTyKrNBiosKcBpi28AiwDatc8vQwInatXLopjUkjY355RXq4JAbQpvAPgRFEjdyPU38phLQEP7IMQa4VFt+49pWVrbMTOjSgbvwF8RwL+Kbo/B+7ZA/wqwAdslVCjELBT4jUJkIAfAhQCGqV0CwGtqqycwi8A6+oxGGO6AYOX34Bd7zDowMqADwBhS+F48qMefK2vSi7TK5e+EDCHP5bL6OItw297050OyzCrqquldaDC3JgJSwLjDRjAK6XQAtunTx+bn0K2W2XiLZPpSYAESCBeAgUrBPB2BvN+PKHQhUA8LJiWBEiABEggGAQKSgjozn7xCgG19FA99kRWHai8PJIACZAACZBAvhAoKCFgXzmgHgJEgVewO9OlYw8Br/p5jwRIgARIgASyRaCghAAg6laBRKHSGpAoOeYjARIgARLINwIFJwTwAOxmfr8PBZYDWANiWRD8lsd0JEACJEACJJDrBApSCCjoEAT2oKYB9MFenaujPQ+vSYAESIAESKBQCRS0ECjUh8Z+kQAJkAAJkECqCFAIpIokyyEBEiABEiCBPCRAIZCHD41NJgESIAESIIFUEaAQSBVJlkMCJEACJEACeUiAQiAPHxqbTAIkQAIkQAKpIkAhkCqSLIcESIAESIAE8pAAhUAePjQ2mQRIgARIgARSRYBCIFUkWQ4JkAAJkAAJ5CEBCoE8fGhsMgmQAAmQAAmkigCFQKpIshwSIAESIAESyEMCFAJ5+NDYZBIgARIgARJIFQEKgVSRZDkkQAIkQAIkkIcEKATy8KGxySRAAiRAAiSQKgIUAqkiyXJIgARIgARIIA8JGN1q+oYMYYjq6vZ52Hw2mQRIgARIgARIIBkCFALJ0GNeEiABEiABEshzAhQCef4A2XwSIAESIAESSIYAhUAy9JiXBEiABEiABPKcgCkE0Id21R3yvCtsPgmQAAmQAAmQQLwEKATiJcb0JEACJEACJFBABCgECuhhsiskQAIkQAIkEC8BCoF4iTE9CZAACZAACRQQAQqBAnqY7AoJkAAJkAAJxEuAQiBeYkxPAiRAAiRAAgVEwOjWo29IbizIVQMF9FDZFRIgARIgARLwS4BCwC8ppiMBEiABEiCBAiRAIVCAD5VdIgESIAESIAG/BCgE/JJiOhIgARIgARIoQAJhISA71q4ddxYswOfLLpEACZAACZCAJwEKAU88vEkCJEACJEAChU2AQqCwny97RwIkQAIkQAKeBIzuNX1DoRCnBjwp8SYJkAAJkAAJFCgBCoECfbDsFgmQAAmQAAn4IUAh4IcS05AACZAACZBAgRIwhQD6Vl3NVQMF+ozZLRIgARIgARJwJUAh4IqGN0iABEiABEig8AlQCBT+M2YPSYAESIAESMCVgBQCfeSaAYNTA66IeIMESIAESIAECpcAhUDhPlv2jARIgARIgARiEqAQiImICUiABEiABEigcAm0CAGsGuhYuL1kz0iABEiABEiABBwJUAg4YmEkCZAACZAACQSDAIVAMJ4ze0kCJEACJEACjgQoBByxMJIESIAESIAEgkFAEwLYWdAIRq/ZSxIgARIgARIgAUkgJCwhUFnZThQVFRMLCZAACZAACZBAQAg0Nze1CoGKimpRUlISkK6zmyRAAiRAAiRAAo2Nja1CoE2btqKsrA2pkAAJkAAJkAAJBIRAff2LViFQWtpGlJe3DUjX2U0SIAESIAESIIG6umetQqCoqEhUVrYnFRIgARIgARIggYAQePr0IYRAX/nRIfn/MrStrBbFRfQTCMjzZzdJgARIgAQCTKCpuVE8e/pYGN169A0ZRlgIlJaWy+mBigBjYddJgARIgARIIBgE6uqei4aGOiUE0Gm5ltAoElVVnB4Ixk+AvSQBEiABEggygSdPHopQqBlCoI80BxhSBIStAlw9EOSfBftOAiRAAiQQBAJYLfDixTOzq5oQwHVIbipEp8Eg/AjYRxIgARIggeASgJNgc3OzBCANAWGLAGDAKoBjSLRpUy73FKCvAGgwkAAJkAAJkEAhEaivfy6tAXWyS4acGpD/OgkBdJgrCArpsbMvJEACJEACJCCEWikQZhElBBDdahUokssIK+VyQgYSIAESIAESIIHCIPBULhdslssGlTXAXCjQahEId9Iw5wfUckLuNlgYj569IAESIAESCDoB7CLY0PCiBQOsAeGxXpsaUIharQKI4d4CiguPJEACJEACJJCfBNSeAeHWh6cEYA1AcBACZrTlOIgrigFQYCABEiABEiCB/CPgJQLQG19CAAn5USJQYCABEiABEiCB/CEQOR2AdkdaA8wYu49Aa/cipwgQDwfC8ooKfo+gFRLPSIAESIAESCDnCGB1QN3z5y2Ogap50SIAd1wsAq2Z1N4CKgbHsrJyudcA9xnQmfCcBEiABEiABHKBwIsXz0V9PfYJ0IOzCECKhIQAMmIHQvgOlJW1wSUDCZAACZAACZBAFglg22B8RCi8Y6C9IQkLARQUPUUQWXyxFASlorSsTE4ZFEfe4hUJkAAJkAAJkEDaCDQ1N4mG+nopABpkHU0u9biLAGSIYRFQZcYSA+bexKaVoEiKgeLiEnleLP8zzDiICQYSIAESIAESIIFECYTMN/3mZhybRFNTo3lsffsPLwWMLt1bBCB9ioSAWZRZf8v+BOa5ffyXciIc7/Vv2CnBliK6g45l2YqPaItZoi2BrRb7ZbgpTnmi22PP637tVJ5M7RLtXk7kndjZY6dQJUZzU3d4JAESKBQCjn9qXTvn/TfP+65roa03XAtwvdGa1/XM6W9eyNxb3zWL443INkRxi7xtliBrcSjJoT0+/thGlaUV3doWLTKqZl9CoLcswaGBDoWFK3WrsLWMiL61RpslOg7g9rpae6fdca7XsTytzoi2tLRAKzTmaWtTtEIjcjm3KyKJ64VLmS7RrsV43PBXlL9U9mqi2dpT8JoESCDTBFr/ZsVbc+y/ZbFTxFGna2GuN3wU7va3LFxm/H+zItsSwTbyltm2qEHbarFDu3w0Jqo8rc6ItjgKD1QeWwQg1f8PHyJNq4U7pVkAAAAASUVORK5CYII=;" vertex="1" parent="1">
                    <mxGeometry x="640.58" y="350" width="149.42" height="250" as="geometry"/>
                </mxCell>
            </root>
        </mxGraphModel>
    </diagram>
</mxfile>